<svg version="1.1" xmlns="http://www.w3.org/2000/svg" xmlns:xlink="http://www.w3.org/1999/xlink" width="1012.91796875" height="532"><defs/><g><text fill="#eeeeee" stroke="none" font-family="Arial" font-size="24px" font-style="normal" font-weight="normal" text-decoration="none" x="0" y="0">UNREGISTERED</text><text fill="#eeeeee" stroke="none" font-family="Arial" font-size="24px" font-style="normal" font-weight="normal" text-decoration="none" x="0" y="30">UNREGISTERED</text><text fill="#eeeeee" stroke="none" font-family="Arial" font-size="24px" font-style="normal" font-weight="normal" text-decoration="none" x="0" y="60">UNREGISTERED</text><text fill="#eeeeee" stroke="none" font-family="Arial" font-size="24px" font-style="normal" font-weight="normal" text-decoration="none" x="0" y="90">UNREGISTERED</text><text fill="#eeeeee" stroke="none" font-family="Arial" font-size="24px" font-style="normal" font-weight="normal" text-decoration="none" x="0" y="120">UNREGISTERED</text><text fill="#eeeeee" stroke="none" font-family="Arial" font-size="24px" font-style="normal" font-weight="normal" text-decoration="none" x="0" y="150">UNREGISTERED</text><text fill="#eeeeee" stroke="none" font-family="Arial" font-size="24px" font-style="normal" font-weight="normal" text-decoration="none" x="0" y="180">UNREGISTERED</text><text fill="#eeeeee" stroke="none" font-family="Arial" font-size="24px" font-style="normal" font-weight="normal" text-decoration="none" x="0" y="210">UNREGISTERED</text><text fill="#eeeeee" stroke="none" font-family="Arial" font-size="24px" font-style="normal" font-weight="normal" text-decoration="none" x="0" y="240">UNREGISTERED</text><text fill="#eeeeee" stroke="none" font-family="Arial" font-size="24px" font-style="normal" font-weight="normal" text-decoration="none" x="0" y="270">UNREGISTERED</text><text fill="#eeeeee" stroke="none" font-family="Arial" font-size="24px" font-style="normal" font-weight="normal" text-decoration="none" x="0" y="300">UNREGISTERED</text><text fill="#eeeeee" stroke="none" font-family="Arial" font-size="24px" font-style="normal" font-weight="normal" text-decoration="none" x="0" y="330">UNREGISTERED</text><text fill="#eeeeee" stroke="none" font-family="Arial" font-size="24px" font-style="normal" font-weight="normal" text-decoration="none" x="0" y="360">UNREGISTERED</text><text fill="#eeeeee" stroke="none" font-family="Arial" font-size="24px" font-style="normal" font-weight="normal" text-decoration="none" x="0" y="390">UNREGISTERED</text><text fill="#eeeeee" stroke="none" font-family="Arial" font-size="24px" font-style="normal" font-weight="normal" text-decoration="none" x="0" y="420">UNREGISTERED</text><text fill="#eeeeee" stroke="none" font-family="Arial" font-size="24px" font-style="normal" font-weight="normal" text-decoration="none" x="0" y="450">UNREGISTERED</text><text fill="#eeeeee" stroke="none" font-family="Arial" font-size="24px" font-style="normal" font-weight="normal" text-decoration="none" x="0" y="480">UNREGISTERED</text><text fill="#eeeeee" stroke="none" font-family="Arial" font-size="24px" font-style="normal" font-weight="normal" text-decoration="none" x="0" y="510">UNREGISTERED</text><text fill="#eeeeee" stroke="none" font-family="Arial" font-size="24px" font-style="normal" font-weight="normal" text-decoration="none" x="200" y="0">UNREGISTERED</text><text fill="#eeeeee" stroke="none" font-family="Arial" font-size="24px" font-style="normal" font-weight="normal" text-decoration="none" x="200" y="30">UNREGISTERED</text><text fill="#eeeeee" stroke="none" font-family="Arial" font-size="24px" font-style="normal" font-weight="normal" text-decoration="none" x="200" y="60">UNREGISTERED</text><text fill="#eeeeee" stroke="none" font-family="Arial" font-size="24px" font-style="normal" font-weight="normal" text-decoration="none" x="200" y="90">UNREGISTERED</text><text fill="#eeeeee" stroke="none" font-family="Arial" font-size="24px" font-style="normal" font-weight="normal" text-decoration="none" x="200" y="120">UNREGISTERED</text><text fill="#eeeeee" stroke="none" font-family="Arial" font-size="24px" font-style="normal" font-weight="normal" text-decoration="none" x="200" y="150">UNREGISTERED</text><text fill="#eeeeee" stroke="none" font-family="Arial" font-size="24px" font-style="normal" font-weight="normal" text-decoration="none" x="200" y="180">UNREGISTERED</text><text fill="#eeeeee" stroke="none" font-family="Arial" font-size="24px" font-style="normal" font-weight="normal" text-decoration="none" x="200" y="210">UNREGISTERED</text><text fill="#eeeeee" stroke="none" font-family="Arial" font-size="24px" font-style="normal" font-weight="normal" text-decoration="none" x="200" y="240">UNREGISTERED</text><text fill="#eeeeee" stroke="none" font-family="Arial" font-size="24px" font-style="normal" font-weight="normal" text-decoration="none" x="200" y="270">UNREGISTERED</text><text fill="#eeeeee" stroke="none" font-family="Arial" font-size="24px" font-style="normal" font-weight="normal" text-decoration="none" x="200" y="300">UNREGISTERED</text><text fill="#eeeeee" stroke="none" font-family="Arial" font-size="24px" font-style="normal" font-weight="normal" text-decoration="none" x="200" y="330">UNREGISTERED</text><text fill="#eeeeee" stroke="none" font-family="Arial" font-size="24px" font-style="normal" font-weight="normal" text-decoration="none" x="200" y="360">UNREGISTERED</text><text fill="#eeeeee" stroke="none" font-family="Arial" font-size="24px" font-style="normal" font-weight="normal" text-decoration="none" x="200" y="390">UNREGISTERED</text><text fill="#eeeeee" stroke="none" font-family="Arial" font-size="24px" font-style="normal" font-weight="normal" text-decoration="none" x="200" y="420">UNREGISTERED</text><text fill="#eeeeee" stroke="none" font-family="Arial" font-size="24px" font-style="normal" font-weight="normal" text-decoration="none" x="200" y="450">UNREGISTERED</text><text fill="#eeeeee" stroke="none" font-family="Arial" font-size="24px" font-style="normal" font-weight="normal" text-decoration="none" x="200" y="480">UNREGISTERED</text><text fill="#eeeeee" stroke="none" font-family="Arial" font-size="24px" font-style="normal" font-weight="normal" text-decoration="none" x="200" y="510">UNREGISTERED</text><text fill="#eeeeee" stroke="none" font-family="Arial" font-size="24px" font-style="normal" font-weight="normal" text-decoration="none" x="400" y="0">UNREGISTERED</text><text fill="#eeeeee" stroke="none" font-family="Arial" font-size="24px" font-style="normal" font-weight="normal" text-decoration="none" x="400" y="30">UNREGISTERED</text><text fill="#eeeeee" stroke="none" font-family="Arial" font-size="24px" font-style="normal" font-weight="normal" text-decoration="none" x="400" y="60">UNREGISTERED</text><text fill="#eeeeee" stroke="none" font-family="Arial" font-size="24px" font-style="normal" font-weight="normal" text-decoration="none" x="400" y="90">UNREGISTERED</text><text fill="#eeeeee" stroke="none" font-family="Arial" font-size="24px" font-style="normal" font-weight="normal" text-decoration="none" x="400" y="120">UNREGISTERED</text><text fill="#eeeeee" stroke="none" font-family="Arial" font-size="24px" font-style="normal" font-weight="normal" text-decoration="none" x="400" y="150">UNREGISTERED</text><text fill="#eeeeee" stroke="none" font-family="Arial" font-size="24px" font-style="normal" font-weight="normal" text-decoration="none" x="400" y="180">UNREGISTERED</text><text fill="#eeeeee" stroke="none" font-family="Arial" font-size="24px" font-style="normal" font-weight="normal" text-decoration="none" x="400" y="210">UNREGISTERED</text><text fill="#eeeeee" stroke="none" font-family="Arial" font-size="24px" font-style="normal" font-weight="normal" text-decoration="none" x="400" y="240">UNREGISTERED</text><text fill="#eeeeee" stroke="none" font-family="Arial" font-size="24px" font-style="normal" font-weight="normal" text-decoration="none" x="400" y="270">UNREGISTERED</text><text fill="#eeeeee" stroke="none" font-family="Arial" font-size="24px" font-style="normal" font-weight="normal" text-decoration="none" x="400" y="300">UNREGISTERED</text><text fill="#eeeeee" stroke="none" font-family="Arial" font-size="24px" font-style="normal" font-weight="normal" text-decoration="none" x="400" y="330">UNREGISTERED</text><text fill="#eeeeee" stroke="none" font-family="Arial" font-size="24px" font-style="normal" font-weight="normal" text-decoration="none" x="400" y="360">UNREGISTERED</text><text fill="#eeeeee" stroke="none" font-family="Arial" font-size="24px" font-style="normal" font-weight="normal" text-decoration="none" x="400" y="390">UNREGISTERED</text><text fill="#eeeeee" stroke="none" font-family="Arial" font-size="24px" font-style="normal" font-weight="normal" text-decoration="none" x="400" y="420">UNREGISTERED</text><text fill="#eeeeee" stroke="none" font-family="Arial" font-size="24px" font-style="normal" font-weight="normal" text-decoration="none" x="400" y="450">UNREGISTERED</text><text fill="#eeeeee" stroke="none" font-family="Arial" font-size="24px" font-style="normal" font-weight="normal" text-decoration="none" x="400" y="480">UNREGISTERED</text><text fill="#eeeeee" stroke="none" font-family="Arial" font-size="24px" font-style="normal" font-weight="normal" text-decoration="none" x="400" y="510">UNREGISTERED</text><text fill="#eeeeee" stroke="none" font-family="Arial" font-size="24px" font-style="normal" font-weight="normal" text-decoration="none" x="600" y="0">UNREGISTERED</text><text fill="#eeeeee" stroke="none" font-family="Arial" font-size="24px" font-style="normal" font-weight="normal" text-decoration="none" x="600" y="30">UNREGISTERED</text><text fill="#eeeeee" stroke="none" font-family="Arial" font-size="24px" font-style="normal" font-weight="normal" text-decoration="none" x="600" y="60">UNREGISTERED</text><text fill="#eeeeee" stroke="none" font-family="Arial" font-size="24px" font-style="normal" font-weight="normal" text-decoration="none" x="600" y="90">UNREGISTERED</text><text fill="#eeeeee" stroke="none" font-family="Arial" font-size="24px" font-style="normal" font-weight="normal" text-decoration="none" x="600" y="120">UNREGISTERED</text><text fill="#eeeeee" stroke="none" font-family="Arial" font-size="24px" font-style="normal" font-weight="normal" text-decoration="none" x="600" y="150">UNREGISTERED</text><text fill="#eeeeee" stroke="none" font-family="Arial" font-size="24px" font-style="normal" font-weight="normal" text-decoration="none" x="600" y="180">UNREGISTERED</text><text fill="#eeeeee" stroke="none" font-family="Arial" font-size="24px" font-style="normal" font-weight="normal" text-decoration="none" x="600" y="210">UNREGISTERED</text><text fill="#eeeeee" stroke="none" font-family="Arial" font-size="24px" font-style="normal" font-weight="normal" text-decoration="none" x="600" y="240">UNREGISTERED</text><text fill="#eeeeee" stroke="none" font-family="Arial" font-size="24px" font-style="normal" font-weight="normal" text-decoration="none" x="600" y="270">UNREGISTERED</text><text fill="#eeeeee" stroke="none" font-family="Arial" font-size="24px" font-style="normal" font-weight="normal" text-decoration="none" x="600" y="300">UNREGISTERED</text><text fill="#eeeeee" stroke="none" font-family="Arial" font-size="24px" font-style="normal" font-weight="normal" text-decoration="none" x="600" y="330">UNREGISTERED</text><text fill="#eeeeee" stroke="none" font-family="Arial" font-size="24px" font-style="normal" font-weight="normal" text-decoration="none" x="600" y="360">UNREGISTERED</text><text fill="#eeeeee" stroke="none" font-family="Arial" font-size="24px" font-style="normal" font-weight="normal" text-decoration="none" x="600" y="390">UNREGISTERED</text><text fill="#eeeeee" stroke="none" font-family="Arial" font-size="24px" font-style="normal" font-weight="normal" text-decoration="none" x="600" y="420">UNREGISTERED</text><text fill="#eeeeee" stroke="none" font-family="Arial" font-size="24px" font-style="normal" font-weight="normal" text-decoration="none" x="600" y="450">UNREGISTERED</text><text fill="#eeeeee" stroke="none" font-family="Arial" font-size="24px" font-style="normal" font-weight="normal" text-decoration="none" x="600" y="480">UNREGISTERED</text><text fill="#eeeeee" stroke="none" font-family="Arial" font-size="24px" font-style="normal" font-weight="normal" text-decoration="none" x="600" y="510">UNREGISTERED</text><text fill="#eeeeee" stroke="none" font-family="Arial" font-size="24px" font-style="normal" font-weight="normal" text-decoration="none" x="800" y="0">UNREGISTERED</text><text fill="#eeeeee" stroke="none" font-family="Arial" font-size="24px" font-style="normal" font-weight="normal" text-decoration="none" x="800" y="30">UNREGISTERED</text><text fill="#eeeeee" stroke="none" font-family="Arial" font-size="24px" font-style="normal" font-weight="normal" text-decoration="none" x="800" y="60">UNREGISTERED</text><text fill="#eeeeee" stroke="none" font-family="Arial" font-size="24px" font-style="normal" font-weight="normal" text-decoration="none" x="800" y="90">UNREGISTERED</text><text fill="#eeeeee" stroke="none" font-family="Arial" font-size="24px" font-style="normal" font-weight="normal" text-decoration="none" x="800" y="120">UNREGISTERED</text><text fill="#eeeeee" stroke="none" font-family="Arial" font-size="24px" font-style="normal" font-weight="normal" text-decoration="none" x="800" y="150">UNREGISTERED</text><text fill="#eeeeee" stroke="none" font-family="Arial" font-size="24px" font-style="normal" font-weight="normal" text-decoration="none" x="800" y="180">UNREGISTERED</text><text fill="#eeeeee" stroke="none" font-family="Arial" font-size="24px" font-style="normal" font-weight="normal" text-decoration="none" x="800" y="210">UNREGISTERED</text><text fill="#eeeeee" stroke="none" font-family="Arial" font-size="24px" font-style="normal" font-weight="normal" text-decoration="none" x="800" y="240">UNREGISTERED</text><text fill="#eeeeee" stroke="none" font-family="Arial" font-size="24px" font-style="normal" font-weight="normal" text-decoration="none" x="800" y="270">UNREGISTERED</text><text fill="#eeeeee" stroke="none" font-family="Arial" font-size="24px" font-style="normal" font-weight="normal" text-decoration="none" x="800" y="300">UNREGISTERED</text><text fill="#eeeeee" stroke="none" font-family="Arial" font-size="24px" font-style="normal" font-weight="normal" text-decoration="none" x="800" y="330">UNREGISTERED</text><text fill="#eeeeee" stroke="none" font-family="Arial" font-size="24px" font-style="normal" font-weight="normal" text-decoration="none" x="800" y="360">UNREGISTERED</text><text fill="#eeeeee" stroke="none" font-family="Arial" font-size="24px" font-style="normal" font-weight="normal" text-decoration="none" x="800" y="390">UNREGISTERED</text><text fill="#eeeeee" stroke="none" font-family="Arial" font-size="24px" font-style="normal" font-weight="normal" text-decoration="none" x="800" y="420">UNREGISTERED</text><text fill="#eeeeee" stroke="none" font-family="Arial" font-size="24px" font-style="normal" font-weight="normal" text-decoration="none" x="800" y="450">UNREGISTERED</text><text fill="#eeeeee" stroke="none" font-family="Arial" font-size="24px" font-style="normal" font-weight="normal" text-decoration="none" x="800" y="480">UNREGISTERED</text><text fill="#eeeeee" stroke="none" font-family="Arial" font-size="24px" font-style="normal" font-weight="normal" text-decoration="none" x="800" y="510">UNREGISTERED</text><text fill="#eeeeee" stroke="none" font-family="Arial" font-size="24px" font-style="normal" font-weight="normal" text-decoration="none" x="1000" y="0">UNREGISTERED</text><text fill="#eeeeee" stroke="none" font-family="Arial" font-size="24px" font-style="normal" font-weight="normal" text-decoration="none" x="1000" y="30">UNREGISTERED</text><text fill="#eeeeee" stroke="none" font-family="Arial" font-size="24px" font-style="normal" font-weight="normal" text-decoration="none" x="1000" y="60">UNREGISTERED</text><text fill="#eeeeee" stroke="none" font-family="Arial" font-size="24px" font-style="normal" font-weight="normal" text-decoration="none" x="1000" y="90">UNREGISTERED</text><text fill="#eeeeee" stroke="none" font-family="Arial" font-size="24px" font-style="normal" font-weight="normal" text-decoration="none" x="1000" y="120">UNREGISTERED</text><text fill="#eeeeee" stroke="none" font-family="Arial" font-size="24px" font-style="normal" font-weight="normal" text-decoration="none" x="1000" y="150">UNREGISTERED</text><text fill="#eeeeee" stroke="none" font-family="Arial" font-size="24px" font-style="normal" font-weight="normal" text-decoration="none" x="1000" y="180">UNREGISTERED</text><text fill="#eeeeee" stroke="none" font-family="Arial" font-size="24px" font-style="normal" font-weight="normal" text-decoration="none" x="1000" y="210">UNREGISTERED</text><text fill="#eeeeee" stroke="none" font-family="Arial" font-size="24px" font-style="normal" font-weight="normal" text-decoration="none" x="1000" y="240">UNREGISTERED</text><text fill="#eeeeee" stroke="none" font-family="Arial" font-size="24px" font-style="normal" font-weight="normal" text-decoration="none" x="1000" y="270">UNREGISTERED</text><text fill="#eeeeee" stroke="none" font-family="Arial" font-size="24px" font-style="normal" font-weight="normal" text-decoration="none" x="1000" y="300">UNREGISTERED</text><text fill="#eeeeee" stroke="none" font-family="Arial" font-size="24px" font-style="normal" font-weight="normal" text-decoration="none" x="1000" y="330">UNREGISTERED</text><text fill="#eeeeee" stroke="none" font-family="Arial" font-size="24px" font-style="normal" font-weight="normal" text-decoration="none" x="1000" y="360">UNREGISTERED</text><text fill="#eeeeee" stroke="none" font-family="Arial" font-size="24px" font-style="normal" font-weight="normal" text-decoration="none" x="1000" y="390">UNREGISTERED</text><text fill="#eeeeee" stroke="none" font-family="Arial" font-size="24px" font-style="normal" font-weight="normal" text-decoration="none" x="1000" y="420">UNREGISTERED</text><text fill="#eeeeee" stroke="none" font-family="Arial" font-size="24px" font-style="normal" font-weight="normal" text-decoration="none" x="1000" y="450">UNREGISTERED</text><text fill="#eeeeee" stroke="none" font-family="Arial" font-size="24px" font-style="normal" font-weight="normal" text-decoration="none" x="1000" y="480">UNREGISTERED</text><text fill="#eeeeee" stroke="none" font-family="Arial" font-size="24px" font-style="normal" font-weight="normal" text-decoration="none" x="1000" y="510">UNREGISTERED</text><g transform="translate(-102,-85) scale(1,1)"><path fill="#C0C0C0" stroke="none" d="M 119 128.5 C 119 123.2532944 123.2532944 119 128.5 119 C 133.7467056 119 138 123.2532944 138 128.5 C 138 133.7467056 133.7467056 138 128.5 138 C 123.2532944 138 119 133.7467056 119 128.5 Z" opacity="0.2"/></g><g transform="translate(-102,-85) scale(1,1)"><path fill="#000000" stroke="none" d="M 112 121.5 C 112 116.2532944 116.2532944 112 121.5 112 C 126.7467056 112 131 116.2532944 131 121.5 C 131 126.7467056 126.7467056 131 121.5 131 C 116.2532944 131 112 126.7467056 112 121.5 Z"/></g><g transform="translate(-102,-85) scale(1,1)"><path fill="#C0C0C0" stroke="none" d="M 329 103 L 552.787109375 103 Q 562.787109375 103 562.787109375 113 L 562.787109375 140 Q 562.787109375 150 552.787109375 150 L 329 150 Q 319 150 319 140 L 319 113 Q 319 103 329 103 Z" opacity="0.2"/></g><g transform="translate(-102,-85) scale(1,1)"><path fill="#ffffff" stroke="none" d="M 322 96 L 545.787109375 96 Q 555.787109375 96 555.787109375 106 L 555.787109375 133 Q 555.787109375 143 545.787109375 143 L 322 143 Q 312 143 312 133 L 312 106 Q 312 96 322 96 Z"/></g><g transform="translate(-102,-85) scale(1,1)"><path fill="none" stroke="#000000" d="M 322 96 L 545.787109375 96 Q 555.787109375 96 555.787109375 106 L 555.787109375 133 Q 555.787109375 143 545.787109375 143 L 322 143 Q 312 143 312 133 L 312 106 Q 312 96 322 96 Z" stroke-miterlimit="10"/></g><g transform="translate(-102,-85) scale(1,1)"><path fill="none" stroke="#000000" d="M 312 121 L 555.787109375 121" stroke-miterlimit="10"/></g><g transform="translate(-102,-85) scale(1,1)"><g><path fill="none" stroke="none"/><text fill="#000000" stroke="none" font-family="Arial" font-size="13px" font-style="normal" font-weight="bold" text-decoration="none" x="316.5" y="114">Cliente preenche os dados de compra</text></g></g><g transform="translate(-102,-85) scale(1,1)"><g><path fill="none" stroke="none"/><text fill="#000000" stroke="none" font-family="Arial" font-size="13px" font-style="normal" font-weight="normal" text-decoration="none" x="317" y="137">entry/PreencheDadosCompra</text></g></g><g transform="translate(-102,-85) scale(1,1)"><path fill="none" stroke="#000000" d="M 132 121 L 311 120" stroke-miterlimit="10"/></g><g transform="translate(-102,-85) scale(1,1)"><path fill="none" stroke="#000000" d="M 300.86100021926677 124.26622590192926 L 311 120 L 300.8139672352668 115.84732176592252" stroke-miterlimit="10"/></g><g transform="translate(-102,-85) scale(1,1)"><g><path fill="none" stroke="none"/><text fill="#000000" stroke="none" font-family="Arial" font-size="13px" font-style="normal" font-weight="normal" text-decoration="none" x="181.759521484375" y="106">Escolhe ativo</text></g></g><g transform="translate(-102,-85) scale(1,1)"><path fill="#C0C0C0" stroke="none" d="M 809 103 L 1036 103 Q 1046 103 1046 113 L 1046 140 Q 1046 150 1036 150 L 809 150 Q 799 150 799 140 L 799 113 Q 799 103 809 103 Z" opacity="0.2"/></g><g transform="translate(-102,-85) scale(1,1)"><path fill="#ffffff" stroke="none" d="M 802 96 L 1029 96 Q 1039 96 1039 106 L 1039 133 Q 1039 143 1029 143 L 802 143 Q 792 143 792 133 L 792 106 Q 792 96 802 96 Z"/></g><g transform="translate(-102,-85) scale(1,1)"><path fill="none" stroke="#000000" d="M 802 96 L 1029 96 Q 1039 96 1039 106 L 1039 133 Q 1039 143 1029 143 L 802 143 Q 792 143 792 133 L 792 106 Q 792 96 802 96 Z" stroke-miterlimit="10"/></g><g transform="translate(-102,-85) scale(1,1)"><path fill="none" stroke="#000000" d="M 792 121 L 1039 121" stroke-miterlimit="10"/></g><g transform="translate(-102,-85) scale(1,1)"><g><path fill="none" stroke="none"/><text fill="#000000" stroke="none" font-family="Arial" font-size="13px" font-style="normal" font-weight="bold" text-decoration="none" x="833.50732421875" y="114">Enviando Ordem de venda</text></g></g><g transform="translate(-102,-85) scale(1,1)"><g><path fill="none" stroke="none"/><text fill="#000000" stroke="none" font-family="Arial" font-size="13px" font-style="normal" font-weight="normal" text-decoration="none" x="797" y="137">entry/EnviaOrdem</text></g></g><g transform="translate(-102,-85) scale(1,1)"><path fill="none" stroke="#000000" d="M 557 119 L 791 119" stroke-miterlimit="10"/></g><g transform="translate(-102,-85) scale(1,1)"><path fill="none" stroke="#000000" d="M 780.8373251423759 123.20951775601598 L 791 119 L 780.8373251423758 114.79048224398402" stroke-miterlimit="10"/></g><g transform="translate(-102,-85) scale(1,1)"><g><path fill="none" stroke="none"/><text fill="#000000" stroke="none" font-family="Arial" font-size="13px" font-style="normal" font-weight="normal" text-decoration="none" x="629.5" y="109"> [Enviar ordem]</text></g></g><g transform="translate(-102,-85) scale(1,1)"><path fill="#C0C0C0" stroke="none" d="M 809 215 L 1036 215 Q 1046 215 1046 225 L 1046 252 Q 1046 262 1036 262 L 809 262 Q 799 262 799 252 L 799 225 Q 799 215 809 215 Z" opacity="0.2"/></g><g transform="translate(-102,-85) scale(1,1)"><path fill="#ffffff" stroke="none" d="M 802 208 L 1029 208 Q 1039 208 1039 218 L 1039 245 Q 1039 255 1029 255 L 802 255 Q 792 255 792 245 L 792 218 Q 792 208 802 208 Z"/></g><g transform="translate(-102,-85) scale(1,1)"><path fill="none" stroke="#000000" d="M 802 208 L 1029 208 Q 1039 208 1039 218 L 1039 245 Q 1039 255 1029 255 L 802 255 Q 792 255 792 245 L 792 218 Q 792 208 802 208 Z" stroke-miterlimit="10"/></g><g transform="translate(-102,-85) scale(1,1)"><path fill="none" stroke="#000000" d="M 792 233 L 1039 233" stroke-miterlimit="10"/></g><g transform="translate(-102,-85) scale(1,1)"><g><path fill="none" stroke="none"/><text fill="#000000" stroke="none" font-family="Arial" font-size="13px" font-style="normal" font-weight="bold" text-decoration="none" x="842.90185546875" y="226">Verificando Quantidade</text></g></g><g transform="translate(-102,-85) scale(1,1)"><g><path fill="none" stroke="none"/><text fill="#000000" stroke="none" font-family="Arial" font-size="13px" font-style="normal" font-weight="normal" text-decoration="none" x="797" y="249">entry/VerificaQuantidade</text></g></g><g transform="translate(-102,-85) scale(1,1)"><path fill="none" stroke="#000000" d="M 915 144 L 915 207" stroke-miterlimit="10"/></g><g transform="translate(-102,-85) scale(1,1)"><path fill="none" stroke="#000000" d="M 910.790482243984 196.83732514237585 L 915 207 L 919.209517756016 196.83732514237585" stroke-miterlimit="10"/></g><g transform="translate(-102,-85) scale(1,1)"><g><path fill="none" stroke="none"/><text fill="#000000" stroke="none" font-family="Arial" font-size="13px" font-style="normal" font-weight="normal" text-decoration="none" x="883.5" y="179">Ordem Enviada</text></g></g><g transform="translate(-102,-85) scale(1,1)"><path fill="#C0C0C0" stroke="none" d="M 919 318 C 919 314.1340064 922.1340064 311 926 311 C 929.8659936 311 933 314.1340064 933 318 C 933 321.8659936 929.8659936 325 926 325 C 922.1340064 325 919 321.8659936 919 318 Z" opacity="0.2"/></g><g transform="translate(-102,-85) scale(1,1)"><path fill="#ffffff" stroke="none" d="M 912 311 C 912 307.1340064 915.1340064 304 919 304 C 922.8659936 304 926 307.1340064 926 311 C 926 314.8659936 922.8659936 318 919 318 C 915.1340064 318 912 314.8659936 912 311 Z"/></g><g transform="translate(-102,-85) scale(1,1)"><path fill="none" stroke="#000000" d="M 912 311 C 912 307.1340064 915.1340064 304 919 304 C 922.8659936 304 926 307.1340064 926 311 C 926 314.8659936 922.8659936 318 919 318 C 915.1340064 318 912 314.8659936 912 311 Z" stroke-miterlimit="10"/></g><g transform="translate(-102,-85) scale(1,1)"><path fill="none" stroke="#000000" d="M 916 256 L 919 303" stroke-miterlimit="10"/></g><g transform="translate(-102,-85) scale(1,1)"><path fill="none" stroke="#000000" d="M 914.1516674699579 293.12611162316813 L 919 303 L 922.5536046184968 292.58981776262306" stroke-miterlimit="10"/></g><g transform="translate(-102,-85) scale(1,1)"><path fill="#C0C0C0" stroke="none" d="M 265 295 L 524.181640625 295 Q 534.181640625 295 534.181640625 305 L 534.181640625 332 Q 534.181640625 342 524.181640625 342 L 265 342 Q 255 342 255 332 L 255 305 Q 255 295 265 295 Z" opacity="0.2"/></g><g transform="translate(-102,-85) scale(1,1)"><path fill="#ffffff" stroke="none" d="M 258 288 L 517.181640625 288 Q 527.181640625 288 527.181640625 298 L 527.181640625 325 Q 527.181640625 335 517.181640625 335 L 258 335 Q 248 335 248 325 L 248 298 Q 248 288 258 288 Z"/></g><g transform="translate(-102,-85) scale(1,1)"><path fill="none" stroke="#000000" d="M 258 288 L 517.181640625 288 Q 527.181640625 288 527.181640625 298 L 527.181640625 325 Q 527.181640625 335 517.181640625 335 L 258 335 Q 248 335 248 325 L 248 298 Q 248 288 258 288 Z" stroke-miterlimit="10"/></g><g transform="translate(-102,-85) scale(1,1)"><path fill="none" stroke="#000000" d="M 248 313 L 527.181640625 313" stroke-miterlimit="10"/></g><g transform="translate(-102,-85) scale(1,1)"><g><path fill="none" stroke="none"/><text fill="#000000" stroke="none" font-family="Arial" font-size="13px" font-style="normal" font-weight="bold" text-decoration="none" x="257.194091796875" y="306">Enviando confirmação de venda por email</text></g></g><g transform="translate(-102,-85) scale(1,1)"><g><path fill="none" stroke="none"/><text fill="#000000" stroke="none" font-family="Arial" font-size="13px" font-style="normal" font-weight="normal" text-decoration="none" x="253" y="329">entry/EnviaConfirmacao</text></g></g><g transform="translate(-102,-85) scale(1,1)"><path fill="none" stroke="#000000" d="M 911 311 L 528 311" stroke-miterlimit="10"/></g><g transform="translate(-102,-85) scale(1,1)"><path fill="none" stroke="#000000" d="M 538.1626748576241 306.790482243984 L 528 311 L 538.1626748576241 315.209517756016" stroke-miterlimit="10"/></g><g transform="translate(-102,-85) scale(1,1)"><g><path fill="none" stroke="none"/><text fill="#000000" stroke="none" font-family="Arial" font-size="13px" font-style="normal" font-weight="normal" text-decoration="none" x="664.5" y="331">Quantidade Válida</text></g></g><g transform="translate(-102,-85) scale(1,1)"><path fill="#C0C0C0" stroke="none" d="M 297 407 L 460.80810546875 407 Q 470.80810546875 407 470.80810546875 417 L 470.80810546875 444 Q 470.80810546875 454 460.80810546875 454 L 297 454 Q 287 454 287 444 L 287 417 Q 287 407 297 407 Z" opacity="0.2"/></g><g transform="translate(-102,-85) scale(1,1)"><path fill="#ffffff" stroke="none" d="M 290 400 L 453.80810546875 400 Q 463.80810546875 400 463.80810546875 410 L 463.80810546875 437 Q 463.80810546875 447 453.80810546875 447 L 290 447 Q 280 447 280 437 L 280 410 Q 280 400 290 400 Z"/></g><g transform="translate(-102,-85) scale(1,1)"><path fill="none" stroke="#000000" d="M 290 400 L 453.80810546875 400 Q 463.80810546875 400 463.80810546875 410 L 463.80810546875 437 Q 463.80810546875 447 453.80810546875 447 L 290 447 Q 280 447 280 437 L 280 410 Q 280 400 290 400 Z" stroke-miterlimit="10"/></g><g transform="translate(-102,-85) scale(1,1)"><path fill="none" stroke="#000000" d="M 280 425 L 463.80810546875 425" stroke-miterlimit="10"/></g><g transform="translate(-102,-85) scale(1,1)"><g><path fill="none" stroke="none"/><text fill="#000000" stroke="none" font-family="Arial" font-size="13px" font-style="normal" font-weight="bold" text-decoration="none" x="294.595947265625" y="418">Ordem de Venda enviada</text></g></g><g transform="translate(-102,-85) scale(1,1)"><g><path fill="none" stroke="none"/><text fill="#000000" stroke="none" font-family="Arial" font-size="13px" font-style="normal" font-weight="normal" text-decoration="none" x="285" y="441">entry/RetornaStatus</text></g></g><g transform="translate(-102,-85) scale(1,1)"><path fill="none" stroke="#000000" d="M 383 336 L 374 399" stroke-miterlimit="10"/></g><g transform="translate(-102,-85) scale(1,1)"><path fill="none" stroke="#000000" d="M 371.2700092902383 388.3441494602911 L 374 399 L 379.60442923248974 389.53478088061274" stroke-miterlimit="10"/></g><g transform="translate(-102,-85) scale(1,1)"><path fill="#C0C0C0" stroke="none" d="M 297 551 L 468 551 Q 478 551 478 561 L 478 589 Q 478 599 468 599 L 297 599 Q 287 599 287 589 L 287 561 Q 287 551 297 551 Z" opacity="0.2"/></g><g transform="translate(-102,-85) scale(1,1)"><path fill="#ffffff" stroke="none" d="M 290 544 L 461 544 Q 471 544 471 554 L 471 582 Q 471 592 461 592 L 290 592 Q 280 592 280 582 L 280 554 Q 280 544 290 544 Z"/></g><g transform="translate(-102,-85) scale(1,1)"><path fill="none" stroke="#000000" d="M 290 544 L 461 544 Q 471 544 471 554 L 471 582 Q 471 592 461 592 L 290 592 Q 280 592 280 582 L 280 554 Q 280 544 290 544 Z" stroke-miterlimit="10"/></g><g transform="translate(-102,-85) scale(1,1)"><path fill="none" stroke="#000000" d="M 280 569 L 471 569" stroke-miterlimit="10"/></g><g transform="translate(-102,-85) scale(1,1)"><g><path fill="none" stroke="none"/><text fill="#000000" stroke="none" font-family="Arial" font-size="13px" font-style="normal" font-weight="bold" text-decoration="none" x="309.392333984375" y="562">Enviar Cancelamento</text></g></g><g transform="translate(-102,-85) scale(1,1)"><g><path fill="none" stroke="none"/><text fill="#000000" stroke="none" font-family="Arial" font-size="13px" font-style="normal" font-weight="normal" text-decoration="none" x="285" y="585">entry/EnviaCancelamento</text></g></g><g transform="translate(-102,-85) scale(1,1)"><path fill="none" stroke="#000000" d="M 372 448 L 374 543" stroke-miterlimit="10"/></g><g transform="translate(-102,-85) scale(1,1)"><path fill="none" stroke="#000000" d="M 369.577511138714 532.9281783042093 L 374 543 L 377.99468155645815 532.7509747164672" stroke-miterlimit="10"/></g><g transform="translate(-102,-85) scale(1,1)"><g><path fill="none" stroke="none"/><text fill="#000000" stroke="none" font-family="Arial" font-size="13px" font-style="normal" font-weight="normal" text-decoration="none" x="287.5" y="497">Se cancelamento solicitado em até 2h</text></g></g><g transform="translate(-102,-85) scale(1,1)"><path fill="#C0C0C0" stroke="none" d="M 927 579.5 C 927 572.59644 932.59644 567 939.5 567 C 946.40356 567 952 572.59644 952 579.5 C 952 586.40356 946.40356 592 939.5 592 C 932.59644 592 927 586.40356 927 579.5 Z" opacity="0.2"/></g><g transform="translate(-102,-85) scale(1,1)"><path fill="none" stroke="#000000" d="M 920 572.5 C 920 565.59644 925.59644 560 932.5 560 C 939.40356 560 945 565.59644 945 572.5 C 945 579.40356 939.40356 585 932.5 585 C 925.59644 585 920 579.40356 920 572.5 Z" stroke-miterlimit="10"/></g><g transform="translate(-102,-85) scale(1,1)"><path fill="#000000" stroke="none" d="M 925 572.5 C 925 568.357864 928.357864 565 932.5 565 C 936.642136 565 940 568.357864 940 572.5 C 940 576.642136 936.642136 580 932.5 580 C 928.357864 580 925 576.642136 925 572.5 Z"/></g><g transform="translate(-102,-85) scale(1,1)"><path fill="none" stroke="#000000" d="M 472 569 L 919 572" stroke-miterlimit="10"/></g><g transform="translate(-102,-85) scale(1,1)"><path fill="none" stroke="#000000" d="M 908.8093028526389 576.1412186190502 L 919 572 L 908.8658051741762 567.7223727099889" stroke-miterlimit="10"/></g><g transform="translate(-102,-85) scale(1,1)"><g><path fill="none" stroke="none"/><text fill="#000000" stroke="none" font-family="Arial" font-size="13px" font-style="normal" font-weight="normal" text-decoration="none" x="599.5" y="606">Ordem Cancelada</text></g></g><g transform="translate(-102,-85) scale(1,1)"><path fill="#C0C0C0" stroke="none" d="M 833 407 L 1028 407 Q 1038 407 1038 417 L 1038 453 Q 1038 463 1028 463 L 833 463 Q 823 463 823 453 L 823 417 Q 823 407 833 407 Z" opacity="0.2"/></g><g transform="translate(-102,-85) scale(1,1)"><path fill="#ffffff" stroke="none" d="M 826 400 L 1021 400 Q 1031 400 1031 410 L 1031 446 Q 1031 456 1021 456 L 826 456 Q 816 456 816 446 L 816 410 Q 816 400 826 400 Z"/></g><g transform="translate(-102,-85) scale(1,1)"><path fill="none" stroke="#000000" d="M 826 400 L 1021 400 Q 1031 400 1031 410 L 1031 446 Q 1031 456 1021 456 L 826 456 Q 816 456 816 446 L 816 410 Q 816 400 826 400 Z" stroke-miterlimit="10"/></g><g transform="translate(-102,-85) scale(1,1)"><path fill="none" stroke="#000000" d="M 816 425 L 1031 425" stroke-miterlimit="10"/></g><g transform="translate(-102,-85) scale(1,1)"><g><path fill="none" stroke="none"/><text fill="#000000" stroke="none" font-family="Arial" font-size="13px" font-style="normal" font-weight="bold" text-decoration="none" x="877.263671875" y="418">Ordem Negada</text></g></g><g transform="translate(-102,-85) scale(1,1)"><g><path fill="none" stroke="none"/><text fill="#000000" stroke="none" font-family="Arial" font-size="13px" font-style="normal" font-weight="normal" text-decoration="none" x="821" y="441">entry/RetornaStatus</text></g></g><g transform="translate(-102,-85) scale(1,1)"><path fill="none" stroke="#000000" d="M 919 319 L 922 399" stroke-miterlimit="10"/></g><g transform="translate(-102,-85) scale(1,1)"><path fill="none" stroke="#000000" d="M 917.4126063148358 389.00220928518127 L 922 399 L 925.8257284285803 388.68671720591584" stroke-miterlimit="10"/></g><g transform="translate(-102,-85) scale(1,1)"><g><path fill="none" stroke="none"/><text fill="#000000" stroke="none" font-family="Arial" font-size="13px" font-style="normal" font-weight="normal" text-decoration="none" x="990.5" y="363">Quantidade inválida</text></g></g><g transform="translate(-102,-85) scale(1,1)"><path fill="none" stroke="#000000" d="M 925 457 L 931 559" stroke-miterlimit="10"/></g><g transform="translate(-102,-85) scale(1,1)"><path fill="none" stroke="#000000" d="M 926.200973484669 549.1020535207979 L 931 559 L 934.6054808831808 548.60767073265" stroke-miterlimit="10"/></g><g transform="translate(-102,-85) scale(1,1)"><path fill="#C0C0C0" stroke="none" d="M 655 430 C 655 426.1340064 658.1340064 423 662 423 C 665.8659936 423 669 426.1340064 669 430 C 669 433.8659936 665.8659936 437 662 437 C 658.1340064 437 655 433.8659936 655 430 Z" opacity="0.2"/></g><g transform="translate(-102,-85) scale(1,1)"><path fill="#ffffff" stroke="none" d="M 648 423 C 648 419.1340064 651.1340064 416 655 416 C 658.8659936 416 662 419.1340064 662 423 C 662 426.8659936 658.8659936 430 655 430 C 651.1340064 430 648 426.8659936 648 423 Z"/></g><g transform="translate(-102,-85) scale(1,1)"><path fill="none" stroke="#000000" d="M 648 423 C 648 419.1340064 651.1340064 416 655 416 C 658.8659936 416 662 419.1340064 662 423 C 662 426.8659936 658.8659936 430 655 430 C 651.1340064 430 648 426.8659936 648 423 Z" stroke-miterlimit="10"/></g><g transform="translate(-102,-85) scale(1,1)"><path fill="none" stroke="#000000" d="M 465 423 L 647 423" stroke-miterlimit="10"/></g><g transform="translate(-102,-85) scale(1,1)"><path fill="none" stroke="#000000" d="M 636.8373251423759 427.209517756016 L 647 423 L 636.8373251423758 418.790482243984" stroke-miterlimit="10"/></g><g transform="translate(-102,-85) scale(1,1)"><path fill="none" stroke="#000000" d="M 663 423 L 815 426" stroke-miterlimit="10"/></g><g transform="translate(-102,-85) scale(1,1)"><path fill="none" stroke="#000000" d="M 804.7562375534716 430.0081580481681 L 815 426 L 804.9223703732686 421.5907618451228" stroke-miterlimit="10"/></g><g transform="translate(-102,-85) scale(1,1)"><g><path fill="none" stroke="none"/><text fill="#000000" stroke="none" font-family="Arial" font-size="13px" font-style="normal" font-weight="normal" text-decoration="none" x="675.5" y="413">se recusada pela B3</text></g></g><g transform="translate(-102,-85) scale(1,1)"><path fill="none" stroke="#000000" d="M 663 427 L 919 565" stroke-miterlimit="10"/></g><g transform="translate(-102,-85) scale(1,1)"><path fill="none" stroke="#000000" d="M 908.0568458756616 563.8831393054749 L 919 565 L 912.0517612818502 556.4722817403714" stroke-miterlimit="10"/></g><g transform="translate(-102,-85) scale(1,1)"><g><path fill="none" stroke="none"/><text fill="#000000" stroke="none" font-family="Arial" font-size="13px" font-style="normal" font-weight="normal" text-decoration="none" x="751.5" y="502">se aceita pela B3</text></g></g></g></svg>