<svg version="1.1" xmlns="http://www.w3.org/2000/svg" xmlns:xlink="http://www.w3.org/1999/xlink" width="705.06982421875" height="587"><defs/><g><text fill="#eeeeee" stroke="none" font-family="Arial" font-size="24px" font-style="normal" font-weight="normal" text-decoration="none" x="0" y="0">UNREGISTERED</text><text fill="#eeeeee" stroke="none" font-family="Arial" font-size="24px" font-style="normal" font-weight="normal" text-decoration="none" x="0" y="30">UNREGISTERED</text><text fill="#eeeeee" stroke="none" font-family="Arial" font-size="24px" font-style="normal" font-weight="normal" text-decoration="none" x="0" y="60">UNREGISTERED</text><text fill="#eeeeee" stroke="none" font-family="Arial" font-size="24px" font-style="normal" font-weight="normal" text-decoration="none" x="0" y="90">UNREGISTERED</text><text fill="#eeeeee" stroke="none" font-family="Arial" font-size="24px" font-style="normal" font-weight="normal" text-decoration="none" x="0" y="120">UNREGISTERED</text><text fill="#eeeeee" stroke="none" font-family="Arial" font-size="24px" font-style="normal" font-weight="normal" text-decoration="none" x="0" y="150">UNREGISTERED</text><text fill="#eeeeee" stroke="none" font-family="Arial" font-size="24px" font-style="normal" font-weight="normal" text-decoration="none" x="0" y="180">UNREGISTERED</text><text fill="#eeeeee" stroke="none" font-family="Arial" font-size="24px" font-style="normal" font-weight="normal" text-decoration="none" x="0" y="210">UNREGISTERED</text><text fill="#eeeeee" stroke="none" font-family="Arial" font-size="24px" font-style="normal" font-weight="normal" text-decoration="none" x="0" y="240">UNREGISTERED</text><text fill="#eeeeee" stroke="none" font-family="Arial" font-size="24px" font-style="normal" font-weight="normal" text-decoration="none" x="0" y="270">UNREGISTERED</text><text fill="#eeeeee" stroke="none" font-family="Arial" font-size="24px" font-style="normal" font-weight="normal" text-decoration="none" x="0" y="300">UNREGISTERED</text><text fill="#eeeeee" stroke="none" font-family="Arial" font-size="24px" font-style="normal" font-weight="normal" text-decoration="none" x="0" y="330">UNREGISTERED</text><text fill="#eeeeee" stroke="none" font-family="Arial" font-size="24px" font-style="normal" font-weight="normal" text-decoration="none" x="0" y="360">UNREGISTERED</text><text fill="#eeeeee" stroke="none" font-family="Arial" font-size="24px" font-style="normal" font-weight="normal" text-decoration="none" x="0" y="390">UNREGISTERED</text><text fill="#eeeeee" stroke="none" font-family="Arial" font-size="24px" font-style="normal" font-weight="normal" text-decoration="none" x="0" y="420">UNREGISTERED</text><text fill="#eeeeee" stroke="none" font-family="Arial" font-size="24px" font-style="normal" font-weight="normal" text-decoration="none" x="0" y="450">UNREGISTERED</text><text fill="#eeeeee" stroke="none" font-family="Arial" font-size="24px" font-style="normal" font-weight="normal" text-decoration="none" x="0" y="480">UNREGISTERED</text><text fill="#eeeeee" stroke="none" font-family="Arial" font-size="24px" font-style="normal" font-weight="normal" text-decoration="none" x="0" y="510">UNREGISTERED</text><text fill="#eeeeee" stroke="none" font-family="Arial" font-size="24px" font-style="normal" font-weight="normal" text-decoration="none" x="0" y="540">UNREGISTERED</text><text fill="#eeeeee" stroke="none" font-family="Arial" font-size="24px" font-style="normal" font-weight="normal" text-decoration="none" x="0" y="570">UNREGISTERED</text><text fill="#eeeeee" stroke="none" font-family="Arial" font-size="24px" font-style="normal" font-weight="normal" text-decoration="none" x="200" y="0">UNREGISTERED</text><text fill="#eeeeee" stroke="none" font-family="Arial" font-size="24px" font-style="normal" font-weight="normal" text-decoration="none" x="200" y="30">UNREGISTERED</text><text fill="#eeeeee" stroke="none" font-family="Arial" font-size="24px" font-style="normal" font-weight="normal" text-decoration="none" x="200" y="60">UNREGISTERED</text><text fill="#eeeeee" stroke="none" font-family="Arial" font-size="24px" font-style="normal" font-weight="normal" text-decoration="none" x="200" y="90">UNREGISTERED</text><text fill="#eeeeee" stroke="none" font-family="Arial" font-size="24px" font-style="normal" font-weight="normal" text-decoration="none" x="200" y="120">UNREGISTERED</text><text fill="#eeeeee" stroke="none" font-family="Arial" font-size="24px" font-style="normal" font-weight="normal" text-decoration="none" x="200" y="150">UNREGISTERED</text><text fill="#eeeeee" stroke="none" font-family="Arial" font-size="24px" font-style="normal" font-weight="normal" text-decoration="none" x="200" y="180">UNREGISTERED</text><text fill="#eeeeee" stroke="none" font-family="Arial" font-size="24px" font-style="normal" font-weight="normal" text-decoration="none" x="200" y="210">UNREGISTERED</text><text fill="#eeeeee" stroke="none" font-family="Arial" font-size="24px" font-style="normal" font-weight="normal" text-decoration="none" x="200" y="240">UNREGISTERED</text><text fill="#eeeeee" stroke="none" font-family="Arial" font-size="24px" font-style="normal" font-weight="normal" text-decoration="none" x="200" y="270">UNREGISTERED</text><text fill="#eeeeee" stroke="none" font-family="Arial" font-size="24px" font-style="normal" font-weight="normal" text-decoration="none" x="200" y="300">UNREGISTERED</text><text fill="#eeeeee" stroke="none" font-family="Arial" font-size="24px" font-style="normal" font-weight="normal" text-decoration="none" x="200" y="330">UNREGISTERED</text><text fill="#eeeeee" stroke="none" font-family="Arial" font-size="24px" font-style="normal" font-weight="normal" text-decoration="none" x="200" y="360">UNREGISTERED</text><text fill="#eeeeee" stroke="none" font-family="Arial" font-size="24px" font-style="normal" font-weight="normal" text-decoration="none" x="200" y="390">UNREGISTERED</text><text fill="#eeeeee" stroke="none" font-family="Arial" font-size="24px" font-style="normal" font-weight="normal" text-decoration="none" x="200" y="420">UNREGISTERED</text><text fill="#eeeeee" stroke="none" font-family="Arial" font-size="24px" font-style="normal" font-weight="normal" text-decoration="none" x="200" y="450">UNREGISTERED</text><text fill="#eeeeee" stroke="none" font-family="Arial" font-size="24px" font-style="normal" font-weight="normal" text-decoration="none" x="200" y="480">UNREGISTERED</text><text fill="#eeeeee" stroke="none" font-family="Arial" font-size="24px" font-style="normal" font-weight="normal" text-decoration="none" x="200" y="510">UNREGISTERED</text><text fill="#eeeeee" stroke="none" font-family="Arial" font-size="24px" font-style="normal" font-weight="normal" text-decoration="none" x="200" y="540">UNREGISTERED</text><text fill="#eeeeee" stroke="none" font-family="Arial" font-size="24px" font-style="normal" font-weight="normal" text-decoration="none" x="200" y="570">UNREGISTERED</text><text fill="#eeeeee" stroke="none" font-family="Arial" font-size="24px" font-style="normal" font-weight="normal" text-decoration="none" x="400" y="0">UNREGISTERED</text><text fill="#eeeeee" stroke="none" font-family="Arial" font-size="24px" font-style="normal" font-weight="normal" text-decoration="none" x="400" y="30">UNREGISTERED</text><text fill="#eeeeee" stroke="none" font-family="Arial" font-size="24px" font-style="normal" font-weight="normal" text-decoration="none" x="400" y="60">UNREGISTERED</text><text fill="#eeeeee" stroke="none" font-family="Arial" font-size="24px" font-style="normal" font-weight="normal" text-decoration="none" x="400" y="90">UNREGISTERED</text><text fill="#eeeeee" stroke="none" font-family="Arial" font-size="24px" font-style="normal" font-weight="normal" text-decoration="none" x="400" y="120">UNREGISTERED</text><text fill="#eeeeee" stroke="none" font-family="Arial" font-size="24px" font-style="normal" font-weight="normal" text-decoration="none" x="400" y="150">UNREGISTERED</text><text fill="#eeeeee" stroke="none" font-family="Arial" font-size="24px" font-style="normal" font-weight="normal" text-decoration="none" x="400" y="180">UNREGISTERED</text><text fill="#eeeeee" stroke="none" font-family="Arial" font-size="24px" font-style="normal" font-weight="normal" text-decoration="none" x="400" y="210">UNREGISTERED</text><text fill="#eeeeee" stroke="none" font-family="Arial" font-size="24px" font-style="normal" font-weight="normal" text-decoration="none" x="400" y="240">UNREGISTERED</text><text fill="#eeeeee" stroke="none" font-family="Arial" font-size="24px" font-style="normal" font-weight="normal" text-decoration="none" x="400" y="270">UNREGISTERED</text><text fill="#eeeeee" stroke="none" font-family="Arial" font-size="24px" font-style="normal" font-weight="normal" text-decoration="none" x="400" y="300">UNREGISTERED</text><text fill="#eeeeee" stroke="none" font-family="Arial" font-size="24px" font-style="normal" font-weight="normal" text-decoration="none" x="400" y="330">UNREGISTERED</text><text fill="#eeeeee" stroke="none" font-family="Arial" font-size="24px" font-style="normal" font-weight="normal" text-decoration="none" x="400" y="360">UNREGISTERED</text><text fill="#eeeeee" stroke="none" font-family="Arial" font-size="24px" font-style="normal" font-weight="normal" text-decoration="none" x="400" y="390">UNREGISTERED</text><text fill="#eeeeee" stroke="none" font-family="Arial" font-size="24px" font-style="normal" font-weight="normal" text-decoration="none" x="400" y="420">UNREGISTERED</text><text fill="#eeeeee" stroke="none" font-family="Arial" font-size="24px" font-style="normal" font-weight="normal" text-decoration="none" x="400" y="450">UNREGISTERED</text><text fill="#eeeeee" stroke="none" font-family="Arial" font-size="24px" font-style="normal" font-weight="normal" text-decoration="none" x="400" y="480">UNREGISTERED</text><text fill="#eeeeee" stroke="none" font-family="Arial" font-size="24px" font-style="normal" font-weight="normal" text-decoration="none" x="400" y="510">UNREGISTERED</text><text fill="#eeeeee" stroke="none" font-family="Arial" font-size="24px" font-style="normal" font-weight="normal" text-decoration="none" x="400" y="540">UNREGISTERED</text><text fill="#eeeeee" stroke="none" font-family="Arial" font-size="24px" font-style="normal" font-weight="normal" text-decoration="none" x="400" y="570">UNREGISTERED</text><text fill="#eeeeee" stroke="none" font-family="Arial" font-size="24px" font-style="normal" font-weight="normal" text-decoration="none" x="600" y="0">UNREGISTERED</text><text fill="#eeeeee" stroke="none" font-family="Arial" font-size="24px" font-style="normal" font-weight="normal" text-decoration="none" x="600" y="30">UNREGISTERED</text><text fill="#eeeeee" stroke="none" font-family="Arial" font-size="24px" font-style="normal" font-weight="normal" text-decoration="none" x="600" y="60">UNREGISTERED</text><text fill="#eeeeee" stroke="none" font-family="Arial" font-size="24px" font-style="normal" font-weight="normal" text-decoration="none" x="600" y="90">UNREGISTERED</text><text fill="#eeeeee" stroke="none" font-family="Arial" font-size="24px" font-style="normal" font-weight="normal" text-decoration="none" x="600" y="120">UNREGISTERED</text><text fill="#eeeeee" stroke="none" font-family="Arial" font-size="24px" font-style="normal" font-weight="normal" text-decoration="none" x="600" y="150">UNREGISTERED</text><text fill="#eeeeee" stroke="none" font-family="Arial" font-size="24px" font-style="normal" font-weight="normal" text-decoration="none" x="600" y="180">UNREGISTERED</text><text fill="#eeeeee" stroke="none" font-family="Arial" font-size="24px" font-style="normal" font-weight="normal" text-decoration="none" x="600" y="210">UNREGISTERED</text><text fill="#eeeeee" stroke="none" font-family="Arial" font-size="24px" font-style="normal" font-weight="normal" text-decoration="none" x="600" y="240">UNREGISTERED</text><text fill="#eeeeee" stroke="none" font-family="Arial" font-size="24px" font-style="normal" font-weight="normal" text-decoration="none" x="600" y="270">UNREGISTERED</text><text fill="#eeeeee" stroke="none" font-family="Arial" font-size="24px" font-style="normal" font-weight="normal" text-decoration="none" x="600" y="300">UNREGISTERED</text><text fill="#eeeeee" stroke="none" font-family="Arial" font-size="24px" font-style="normal" font-weight="normal" text-decoration="none" x="600" y="330">UNREGISTERED</text><text fill="#eeeeee" stroke="none" font-family="Arial" font-size="24px" font-style="normal" font-weight="normal" text-decoration="none" x="600" y="360">UNREGISTERED</text><text fill="#eeeeee" stroke="none" font-family="Arial" font-size="24px" font-style="normal" font-weight="normal" text-decoration="none" x="600" y="390">UNREGISTERED</text><text fill="#eeeeee" stroke="none" font-family="Arial" font-size="24px" font-style="normal" font-weight="normal" text-decoration="none" x="600" y="420">UNREGISTERED</text><text fill="#eeeeee" stroke="none" font-family="Arial" font-size="24px" font-style="normal" font-weight="normal" text-decoration="none" x="600" y="450">UNREGISTERED</text><text fill="#eeeeee" stroke="none" font-family="Arial" font-size="24px" font-style="normal" font-weight="normal" text-decoration="none" x="600" y="480">UNREGISTERED</text><text fill="#eeeeee" stroke="none" font-family="Arial" font-size="24px" font-style="normal" font-weight="normal" text-decoration="none" x="600" y="510">UNREGISTERED</text><text fill="#eeeeee" stroke="none" font-family="Arial" font-size="24px" font-style="normal" font-weight="normal" text-decoration="none" x="600" y="540">UNREGISTERED</text><text fill="#eeeeee" stroke="none" font-family="Arial" font-size="24px" font-style="normal" font-weight="normal" text-decoration="none" x="600" y="570">UNREGISTERED</text><g transform="translate(-134,-102) scale(1,1)"><path fill="#C0C0C0" stroke="none" d="M 151 136.5 C 151 131.2532944 155.2532944 127 160.5 127 C 165.7467056 127 170 131.2532944 170 136.5 C 170 141.7467056 165.7467056 146 160.5 146 C 155.2532944 146 151 141.7467056 151 136.5 Z" opacity="0.2"/></g><g transform="translate(-134,-102) scale(1,1)"><path fill="#000000" stroke="none" d="M 144 129.5 C 144 124.2532944 148.2532944 120 153.5 120 C 158.7467056 120 163 124.2532944 163 129.5 C 163 134.7467056 158.7467056 139 153.5 139 C 148.2532944 139 144 134.7467056 144 129.5 Z"/></g><g transform="translate(-134,-102) scale(1,1)"><path fill="#C0C0C0" stroke="none" d="M 289 119 L 494.00439453125 119 Q 504.00439453125 119 504.00439453125 129 L 504.00439453125 148 Q 504.00439453125 158 494.00439453125 158 L 289 158 Q 279 158 279 148 L 279 129 Q 279 119 289 119 Z" opacity="0.2"/></g><g transform="translate(-134,-102) scale(1,1)"><path fill="#ffffff" stroke="none" d="M 282 112 L 487.00439453125 112 Q 497.00439453125 112 497.00439453125 122 L 497.00439453125 141 Q 497.00439453125 151 487.00439453125 151 L 282 151 Q 272 151 272 141 L 272 122 Q 272 112 282 112 Z"/></g><g transform="translate(-134,-102) scale(1,1)"><path fill="none" stroke="#000000" d="M 282 112 L 487.00439453125 112 Q 497.00439453125 112 497.00439453125 122 L 497.00439453125 141 Q 497.00439453125 151 487.00439453125 151 L 282 151 Q 272 151 272 141 L 272 122 Q 272 112 282 112 Z" stroke-miterlimit="10"/></g><g transform="translate(-134,-102) scale(1,1)"><g><path fill="none" stroke="none"/><text fill="#000000" stroke="none" font-family="Arial" font-size="13px" font-style="normal" font-weight="bold" text-decoration="none" x="276.5" y="130">Cliente preenche dados de compra</text></g></g><g transform="translate(-134,-102) scale(1,1)"><path fill="#C0C0C0" stroke="none" d="M 673 119 L 712 119 Q 722 119 722 129 L 722 148 Q 722 158 712 158 L 673 158 Q 663 158 663 148 L 663 129 Q 663 119 673 119 Z" opacity="0.2"/></g><g transform="translate(-134,-102) scale(1,1)"><path fill="#ffffff" stroke="none" d="M 666 112 L 705 112 Q 715 112 715 122 L 715 141 Q 715 151 705 151 L 666 151 Q 656 151 656 141 L 656 122 Q 656 112 666 112 Z"/></g><g transform="translate(-134,-102) scale(1,1)"><path fill="none" stroke="#000000" d="M 666 112 L 705 112 Q 715 112 715 122 L 715 141 Q 715 151 705 151 L 666 151 Q 656 151 656 141 L 656 122 Q 656 112 666 112 Z" stroke-miterlimit="10"/></g><g transform="translate(-134,-102) scale(1,1)"><g><path fill="none" stroke="none"/><text fill="#000000" stroke="none" font-family="Arial" font-size="13px" font-style="normal" font-weight="bold" text-decoration="none" x="665.990478515625" y="130">State5</text></g></g><g transform="translate(-134,-102) scale(1,1)"><path fill="none" stroke="#000000" d="M 164 129 L 271 130" stroke-miterlimit="10"/></g><g transform="translate(-134,-102) scale(1,1)"><path fill="none" stroke="#000000" d="M 260.79842936755244 134.114359808182 L 271 130 L 260.8771085064359 125.69569194764966" stroke-miterlimit="10"/></g><g transform="translate(-134,-102) scale(1,1)"><path fill="none" stroke="#000000" d="M 498 131 L 655 131" stroke-miterlimit="10"/></g><g transform="translate(-134,-102) scale(1,1)"><path fill="none" stroke="#000000" d="M 644.8373251423759 135.209517756016 L 655 131 L 644.8373251423758 126.79048224398402" stroke-miterlimit="10"/></g><g transform="translate(-134,-102) scale(1,1)"><path fill="#C0C0C0" stroke="none" d="M 641 239 L 737.6435546875 239 Q 747.6435546875 239 747.6435546875 249 L 747.6435546875 268 Q 747.6435546875 278 737.6435546875 278 L 641 278 Q 631 278 631 268 L 631 249 Q 631 239 641 239 Z" opacity="0.2"/></g><g transform="translate(-134,-102) scale(1,1)"><path fill="#ffffff" stroke="none" d="M 634 232 L 730.6435546875 232 Q 740.6435546875 232 740.6435546875 242 L 740.6435546875 261 Q 740.6435546875 271 730.6435546875 271 L 634 271 Q 624 271 624 261 L 624 242 Q 624 232 634 232 Z"/></g><g transform="translate(-134,-102) scale(1,1)"><path fill="none" stroke="#000000" d="M 634 232 L 730.6435546875 232 Q 740.6435546875 232 740.6435546875 242 L 740.6435546875 261 Q 740.6435546875 271 730.6435546875 271 L 634 271 Q 624 271 624 261 L 624 242 Q 624 232 634 232 Z" stroke-miterlimit="10"/></g><g transform="translate(-134,-102) scale(1,1)"><g><path fill="none" stroke="none"/><text fill="#000000" stroke="none" font-family="Arial" font-size="13px" font-style="normal" font-weight="bold" text-decoration="none" x="628.5" y="250">Verificando saldo</text></g></g><g transform="translate(-134,-102) scale(1,1)"><path fill="#C0C0C0" stroke="none" d="M 209 351 L 458.79345703125 351 Q 468.79345703125 351 468.79345703125 361 L 468.79345703125 380 Q 468.79345703125 390 458.79345703125 390 L 209 390 Q 199 390 199 380 L 199 361 Q 199 351 209 351 Z" opacity="0.2"/></g><g transform="translate(-134,-102) scale(1,1)"><path fill="#ffffff" stroke="none" d="M 202 344 L 451.79345703125 344 Q 461.79345703125 344 461.79345703125 354 L 461.79345703125 373 Q 461.79345703125 383 451.79345703125 383 L 202 383 Q 192 383 192 373 L 192 354 Q 192 344 202 344 Z"/></g><g transform="translate(-134,-102) scale(1,1)"><path fill="none" stroke="#000000" d="M 202 344 L 451.79345703125 344 Q 461.79345703125 344 461.79345703125 354 L 461.79345703125 373 Q 461.79345703125 383 451.79345703125 383 L 202 383 Q 192 383 192 373 L 192 354 Q 192 344 202 344 Z" stroke-miterlimit="10"/></g><g transform="translate(-134,-102) scale(1,1)"><g><path fill="none" stroke="none"/><text fill="#000000" stroke="none" font-family="Arial" font-size="13px" font-style="normal" font-weight="bold" text-decoration="none" x="196.5" y="362">Enviando confirmação de venda por email</text></g></g><g transform="translate(-134,-102) scale(1,1)"><path fill="#C0C0C0" stroke="none" d="M 257 447 L 399.892578125 447 Q 409.892578125 447 409.892578125 457 L 409.892578125 484 Q 409.892578125 494 399.892578125 494 L 257 494 Q 247 494 247 484 L 247 457 Q 247 447 257 447 Z" opacity="0.2"/></g><g transform="translate(-134,-102) scale(1,1)"><path fill="#ffffff" stroke="none" d="M 250 440 L 392.892578125 440 Q 402.892578125 440 402.892578125 450 L 402.892578125 477 Q 402.892578125 487 392.892578125 487 L 250 487 Q 240 487 240 477 L 240 450 Q 240 440 250 440 Z"/></g><g transform="translate(-134,-102) scale(1,1)"><path fill="none" stroke="#000000" d="M 250 440 L 392.892578125 440 Q 402.892578125 440 402.892578125 450 L 402.892578125 477 Q 402.892578125 487 392.892578125 487 L 250 487 Q 240 487 240 477 L 240 450 Q 240 440 250 440 Z" stroke-miterlimit="10"/></g><g transform="translate(-134,-102) scale(1,1)"><path fill="none" stroke="#000000" d="M 240 465 L 402.892578125 465" stroke-miterlimit="10"/></g><g transform="translate(-134,-102) scale(1,1)"><g><path fill="none" stroke="none"/><text fill="#000000" stroke="none" font-family="Arial" font-size="13px" font-style="normal" font-weight="bold" text-decoration="none" x="244.5" y="458">Ordem de venda enviada</text></g></g><g transform="translate(-134,-102) scale(1,1)"><g><path fill="none" stroke="none"/><text fill="#000000" stroke="none" font-family="Arial" font-size="13px" font-style="normal" font-weight="normal" text-decoration="none" x="245" y="481">entry/RetornaStatus</text></g></g><g transform="translate(-134,-102) scale(1,1)"><path fill="#C0C0C0" stroke="none" d="M 249 639 L 386.85888671875 639 Q 396.85888671875 639 396.85888671875 649 L 396.85888671875 676 Q 396.85888671875 686 386.85888671875 686 L 249 686 Q 239 686 239 676 L 239 649 Q 239 639 249 639 Z" opacity="0.2"/></g><g transform="translate(-134,-102) scale(1,1)"><path fill="#ffffff" stroke="none" d="M 242 632 L 379.85888671875 632 Q 389.85888671875 632 389.85888671875 642 L 389.85888671875 669 Q 389.85888671875 679 379.85888671875 679 L 242 679 Q 232 679 232 669 L 232 642 Q 232 632 242 632 Z"/></g><g transform="translate(-134,-102) scale(1,1)"><path fill="none" stroke="#000000" d="M 242 632 L 379.85888671875 632 Q 389.85888671875 632 389.85888671875 642 L 389.85888671875 669 Q 389.85888671875 679 379.85888671875 679 L 242 679 Q 232 679 232 669 L 232 642 Q 232 632 242 632 Z" stroke-miterlimit="10"/></g><g transform="translate(-134,-102) scale(1,1)"><path fill="none" stroke="#000000" d="M 232 657 L 389.85888671875 657" stroke-miterlimit="10"/></g><g transform="translate(-134,-102) scale(1,1)"><g><path fill="none" stroke="none"/><text fill="#000000" stroke="none" font-family="Arial" font-size="13px" font-style="normal" font-weight="bold" text-decoration="none" x="244.82177734375" y="650">Enviar Cancelamento</text></g></g><g transform="translate(-134,-102) scale(1,1)"><g><path fill="none" stroke="none"/><text fill="#000000" stroke="none" font-family="Arial" font-size="13px" font-style="normal" font-weight="normal" text-decoration="none" x="237" y="673">entry/EnviaCancelamento</text></g></g><g transform="translate(-134,-102) scale(1,1)"><path fill="#C0C0C0" stroke="none" d="M 689 447 L 815.3125 447 Q 825.3125 447 825.3125 457 L 825.3125 484 Q 825.3125 494 815.3125 494 L 689 494 Q 679 494 679 484 L 679 457 Q 679 447 689 447 Z" opacity="0.2"/></g><g transform="translate(-134,-102) scale(1,1)"><path fill="#ffffff" stroke="none" d="M 682 440 L 808.3125 440 Q 818.3125 440 818.3125 450 L 818.3125 477 Q 818.3125 487 808.3125 487 L 682 487 Q 672 487 672 477 L 672 450 Q 672 440 682 440 Z"/></g><g transform="translate(-134,-102) scale(1,1)"><path fill="none" stroke="#000000" d="M 682 440 L 808.3125 440 Q 818.3125 440 818.3125 450 L 818.3125 477 Q 818.3125 487 808.3125 487 L 682 487 Q 672 487 672 477 L 672 450 Q 672 440 682 440 Z" stroke-miterlimit="10"/></g><g transform="translate(-134,-102) scale(1,1)"><path fill="none" stroke="#000000" d="M 672 465 L 818.3125 465" stroke-miterlimit="10"/></g><g transform="translate(-134,-102) scale(1,1)"><g><path fill="none" stroke="none"/><text fill="#000000" stroke="none" font-family="Arial" font-size="13px" font-style="normal" font-weight="bold" text-decoration="none" x="698.919921875" y="458">Ordem Negada</text></g></g><g transform="translate(-134,-102) scale(1,1)"><g><path fill="none" stroke="none"/><text fill="#000000" stroke="none" font-family="Arial" font-size="13px" font-style="normal" font-weight="normal" text-decoration="none" x="677" y="481">entry/RetornaStatus</text></g></g><g transform="translate(-134,-102) scale(1,1)"><path fill="#C0C0C0" stroke="none" d="M 679 366 C 679 362.1340064 682.1340064 359 686 359 C 689.8659936 359 693 362.1340064 693 366 C 693 369.8659936 689.8659936 373 686 373 C 682.1340064 373 679 369.8659936 679 366 Z" opacity="0.2"/></g><g transform="translate(-134,-102) scale(1,1)"><path fill="#ffffff" stroke="none" d="M 672 359 C 672 355.1340064 675.1340064 352 679 352 C 682.8659936 352 686 355.1340064 686 359 C 686 362.8659936 682.8659936 366 679 366 C 675.1340064 366 672 362.8659936 672 359 Z"/></g><g transform="translate(-134,-102) scale(1,1)"><path fill="none" stroke="#000000" d="M 672 359 C 672 355.1340064 675.1340064 352 679 352 C 682.8659936 352 686 355.1340064 686 359 C 686 362.8659936 682.8659936 366 679 366 C 675.1340064 366 672 362.8659936 672 359 Z" stroke-miterlimit="10"/></g><g transform="translate(-134,-102) scale(1,1)"><path fill="none" stroke="#000000" d="M 684 152 L 683 231" stroke-miterlimit="10"/></g><g transform="translate(-134,-102) scale(1,1)"><path fill="none" stroke="#000000" d="M 678.9194505994928 220.78485846451355 L 683 231 L 687.3378116984575 220.89141999741184" stroke-miterlimit="10"/></g><g transform="translate(-134,-102) scale(1,1)"><path fill="none" stroke="#000000" d="M 681 272 L 679 351" stroke-miterlimit="10"/></g><g transform="translate(-134,-102) scale(1,1)"><path fill="none" stroke="#000000" d="M 675.0490310822491 340.7340443888079 L 679 351 L 683.465369914035 340.947116257967" stroke-miterlimit="10"/></g><g transform="translate(-134,-102) scale(1,1)"><path fill="none" stroke="#000000" d="M 684 367 L 730 439" stroke-miterlimit="10"/></g><g transform="translate(-134,-102) scale(1,1)"><path fill="none" stroke="#000000" d="M 720.9811799613716 432.7023111294036 L 730 439 L 728.0758696985865 428.1695926861829" stroke-miterlimit="10"/></g><g transform="translate(-134,-102) scale(1,1)"><g><path fill="none" stroke="none"/><text fill="#000000" stroke="none" font-family="Arial" font-size="13px" font-style="normal" font-weight="normal" text-decoration="none" x="712.5" y="368">se saldo insuficiente</text></g></g><g transform="translate(-134,-102) scale(1,1)"><path fill="none" stroke="#000000" d="M 671 359 L 463 361" stroke-miterlimit="10"/></g><g transform="translate(-134,-102) scale(1,1)"><path fill="none" stroke="#000000" d="M 473.1217308307131 356.69296331678123 L 463 361 L 473.20267935326535 365.111609662219" stroke-miterlimit="10"/></g><g transform="translate(-134,-102) scale(1,1)"><g><path fill="none" stroke="none"/><text fill="#000000" stroke="none" font-family="Arial" font-size="13px" font-style="normal" font-weight="normal" text-decoration="none" x="513.55908203125" y="379">se saldo suficiente</text></g></g><g transform="translate(-134,-102) scale(1,1)"><path fill="none" stroke="#000000" d="M 320 488 L 311 631" stroke-miterlimit="10"/></g><g transform="translate(-134,-102) scale(1,1)"><path fill="none" stroke="#000000" d="M 307.4371405519757 620.5929815723415 L 311 631 L 315.83955122601816 621.1218046217567" stroke-miterlimit="10"/></g><g transform="translate(-134,-102) scale(1,1)"><g><path fill="none" stroke="none"/><text fill="#000000" stroke="none" font-family="Arial" font-size="13px" font-style="normal" font-weight="normal" text-decoration="none" x="323.5" y="563">se solicitado cancelamento em até 1 dia</text></g></g><g transform="translate(-134,-102) scale(1,1)"><path fill="none" stroke="#000000" d="M 325 384 L 322 439" stroke-miterlimit="10"/></g><g transform="translate(-134,-102) scale(1,1)"><path fill="none" stroke="#000000" d="M 318.3502353330729 428.6231402690385 L 322 439 L 326.7567745374652 429.0816787710963" stroke-miterlimit="10"/></g><g transform="translate(-134,-102) scale(1,1)"><path fill="#C0C0C0" stroke="none" d="M 775 667.5 C 775 660.59644 780.59644 655 787.5 655 C 794.40356 655 800 660.59644 800 667.5 C 800 674.40356 794.40356 680 787.5 680 C 780.59644 680 775 674.40356 775 667.5 Z" opacity="0.2"/></g><g transform="translate(-134,-102) scale(1,1)"><path fill="none" stroke="#000000" d="M 768 660.5 C 768 653.59644 773.59644 648 780.5 648 C 787.40356 648 793 653.59644 793 660.5 C 793 667.40356 787.40356 673 780.5 673 C 773.59644 673 768 667.40356 768 660.5 Z" stroke-miterlimit="10"/></g><g transform="translate(-134,-102) scale(1,1)"><path fill="#000000" stroke="none" d="M 773 660.5 C 773 656.357864 776.357864 653 780.5 653 C 784.642136 653 788 656.357864 788 660.5 C 788 664.642136 784.642136 668 780.5 668 C 776.357864 668 773 664.642136 773 660.5 Z"/></g><g transform="translate(-134,-102) scale(1,1)"><path fill="none" stroke="#000000" d="M 749 488 L 778 647" stroke-miterlimit="10"/></g><g transform="translate(-134,-102) scale(1,1)"><path fill="none" stroke="#000000" d="M 772.0353118940795 637.7575708929367 L 778 647 L 780.3177128888813 636.2469442964006" stroke-miterlimit="10"/></g><g transform="translate(-134,-102) scale(1,1)"><path fill="none" stroke="#000000" d="M 391 656 L 767 660" stroke-miterlimit="10"/></g><g transform="translate(-134,-102) scale(1,1)"><path fill="none" stroke="#000000" d="M 756.7931205957768 664.1011721285074 L 767 660 L 756.8826797356397 655.6826129814013" stroke-miterlimit="10"/></g><g transform="translate(-134,-102) scale(1,1)"><g><path fill="none" stroke="none"/><text fill="#000000" stroke="none" font-family="Arial" font-size="13px" font-style="normal" font-weight="normal" text-decoration="none" x="526.5" y="648">Ordem Cancelada</text></g></g><g transform="translate(-134,-102) scale(1,1)"><path fill="#C0C0C0" stroke="none" d="M 503 470 C 503 466.1340064 506.1340064 463 510 463 C 513.8659936 463 517 466.1340064 517 470 C 517 473.8659936 513.8659936 477 510 477 C 506.1340064 477 503 473.8659936 503 470 Z" opacity="0.2"/></g><g transform="translate(-134,-102) scale(1,1)"><path fill="#ffffff" stroke="none" d="M 496 463 C 496 459.1340064 499.1340064 456 503 456 C 506.8659936 456 510 459.1340064 510 463 C 510 466.8659936 506.8659936 470 503 470 C 499.1340064 470 496 466.8659936 496 463 Z"/></g><g transform="translate(-134,-102) scale(1,1)"><path fill="none" stroke="#000000" d="M 496 463 C 496 459.1340064 499.1340064 456 503 456 C 506.8659936 456 510 459.1340064 510 463 C 510 466.8659936 506.8659936 470 503 470 C 499.1340064 470 496 466.8659936 496 463 Z" stroke-miterlimit="10"/></g><g transform="translate(-134,-102) scale(1,1)"><path fill="none" stroke="#000000" d="M 511 469 L 767 651" stroke-miterlimit="10"/></g><g transform="translate(-134,-102) scale(1,1)"><path fill="none" stroke="#000000" d="M 756.278074865799 648.5422934641033 L 767 651 L 761.1563149879311 641.6805930725329" stroke-miterlimit="10"/></g><g transform="translate(-134,-102) scale(1,1)"><g><path fill="none" stroke="none"/><text fill="#000000" stroke="none" font-family="Arial" font-size="13px" font-style="normal" font-weight="normal" text-decoration="none" x="598.5" y="594">se ordem aceita pela B3</text></g></g><g transform="translate(-134,-102) scale(1,1)"><path fill="none" stroke="#000000" d="M 404 463 L 495 463" stroke-miterlimit="10"/></g><g transform="translate(-134,-102) scale(1,1)"><path fill="none" stroke="#000000" d="M 484.83732514237585 467.209517756016 L 495 463 L 484.83732514237585 458.790482243984" stroke-miterlimit="10"/></g><g transform="translate(-134,-102) scale(1,1)"><path fill="none" stroke="#000000" d="M 511 463 L 671 463" stroke-miterlimit="10"/></g><g transform="translate(-134,-102) scale(1,1)"><path fill="none" stroke="#000000" d="M 660.8373251423759 467.209517756016 L 671 463 L 660.8373251423758 458.790482243984" stroke-miterlimit="10"/></g><g transform="translate(-134,-102) scale(1,1)"><g><path fill="none" stroke="none"/><text fill="#000000" stroke="none" font-family="Arial" font-size="13px" font-style="normal" font-weight="normal" text-decoration="none" x="510.5" y="453">Se ordem recusada pela B3</text></g></g></g></svg>