<svg version="1.1" xmlns="http://www.w3.org/2000/svg" xmlns:xlink="http://www.w3.org/1999/xlink" width="751.41162109375" height="237"><defs/><g><text fill="#eeeeee" stroke="none" font-family="Arial" font-size="24px" font-style="normal" font-weight="normal" text-decoration="none" x="0" y="0">UNREGISTERED</text><text fill="#eeeeee" stroke="none" font-family="Arial" font-size="24px" font-style="normal" font-weight="normal" text-decoration="none" x="0" y="30">UNREGISTERED</text><text fill="#eeeeee" stroke="none" font-family="Arial" font-size="24px" font-style="normal" font-weight="normal" text-decoration="none" x="0" y="60">UNREGISTERED</text><text fill="#eeeeee" stroke="none" font-family="Arial" font-size="24px" font-style="normal" font-weight="normal" text-decoration="none" x="0" y="90">UNREGISTERED</text><text fill="#eeeeee" stroke="none" font-family="Arial" font-size="24px" font-style="normal" font-weight="normal" text-decoration="none" x="0" y="120">UNREGISTERED</text><text fill="#eeeeee" stroke="none" font-family="Arial" font-size="24px" font-style="normal" font-weight="normal" text-decoration="none" x="0" y="150">UNREGISTERED</text><text fill="#eeeeee" stroke="none" font-family="Arial" font-size="24px" font-style="normal" font-weight="normal" text-decoration="none" x="0" y="180">UNREGISTERED</text><text fill="#eeeeee" stroke="none" font-family="Arial" font-size="24px" font-style="normal" font-weight="normal" text-decoration="none" x="0" y="210">UNREGISTERED</text><text fill="#eeeeee" stroke="none" font-family="Arial" font-size="24px" font-style="normal" font-weight="normal" text-decoration="none" x="200" y="0">UNREGISTERED</text><text fill="#eeeeee" stroke="none" font-family="Arial" font-size="24px" font-style="normal" font-weight="normal" text-decoration="none" x="200" y="30">UNREGISTERED</text><text fill="#eeeeee" stroke="none" font-family="Arial" font-size="24px" font-style="normal" font-weight="normal" text-decoration="none" x="200" y="60">UNREGISTERED</text><text fill="#eeeeee" stroke="none" font-family="Arial" font-size="24px" font-style="normal" font-weight="normal" text-decoration="none" x="200" y="90">UNREGISTERED</text><text fill="#eeeeee" stroke="none" font-family="Arial" font-size="24px" font-style="normal" font-weight="normal" text-decoration="none" x="200" y="120">UNREGISTERED</text><text fill="#eeeeee" stroke="none" font-family="Arial" font-size="24px" font-style="normal" font-weight="normal" text-decoration="none" x="200" y="150">UNREGISTERED</text><text fill="#eeeeee" stroke="none" font-family="Arial" font-size="24px" font-style="normal" font-weight="normal" text-decoration="none" x="200" y="180">UNREGISTERED</text><text fill="#eeeeee" stroke="none" font-family="Arial" font-size="24px" font-style="normal" font-weight="normal" text-decoration="none" x="200" y="210">UNREGISTERED</text><text fill="#eeeeee" stroke="none" font-family="Arial" font-size="24px" font-style="normal" font-weight="normal" text-decoration="none" x="400" y="0">UNREGISTERED</text><text fill="#eeeeee" stroke="none" font-family="Arial" font-size="24px" font-style="normal" font-weight="normal" text-decoration="none" x="400" y="30">UNREGISTERED</text><text fill="#eeeeee" stroke="none" font-family="Arial" font-size="24px" font-style="normal" font-weight="normal" text-decoration="none" x="400" y="60">UNREGISTERED</text><text fill="#eeeeee" stroke="none" font-family="Arial" font-size="24px" font-style="normal" font-weight="normal" text-decoration="none" x="400" y="90">UNREGISTERED</text><text fill="#eeeeee" stroke="none" font-family="Arial" font-size="24px" font-style="normal" font-weight="normal" text-decoration="none" x="400" y="120">UNREGISTERED</text><text fill="#eeeeee" stroke="none" font-family="Arial" font-size="24px" font-style="normal" font-weight="normal" text-decoration="none" x="400" y="150">UNREGISTERED</text><text fill="#eeeeee" stroke="none" font-family="Arial" font-size="24px" font-style="normal" font-weight="normal" text-decoration="none" x="400" y="180">UNREGISTERED</text><text fill="#eeeeee" stroke="none" font-family="Arial" font-size="24px" font-style="normal" font-weight="normal" text-decoration="none" x="400" y="210">UNREGISTERED</text><text fill="#eeeeee" stroke="none" font-family="Arial" font-size="24px" font-style="normal" font-weight="normal" text-decoration="none" x="600" y="0">UNREGISTERED</text><text fill="#eeeeee" stroke="none" font-family="Arial" font-size="24px" font-style="normal" font-weight="normal" text-decoration="none" x="600" y="30">UNREGISTERED</text><text fill="#eeeeee" stroke="none" font-family="Arial" font-size="24px" font-style="normal" font-weight="normal" text-decoration="none" x="600" y="60">UNREGISTERED</text><text fill="#eeeeee" stroke="none" font-family="Arial" font-size="24px" font-style="normal" font-weight="normal" text-decoration="none" x="600" y="90">UNREGISTERED</text><text fill="#eeeeee" stroke="none" font-family="Arial" font-size="24px" font-style="normal" font-weight="normal" text-decoration="none" x="600" y="120">UNREGISTERED</text><text fill="#eeeeee" stroke="none" font-family="Arial" font-size="24px" font-style="normal" font-weight="normal" text-decoration="none" x="600" y="150">UNREGISTERED</text><text fill="#eeeeee" stroke="none" font-family="Arial" font-size="24px" font-style="normal" font-weight="normal" text-decoration="none" x="600" y="180">UNREGISTERED</text><text fill="#eeeeee" stroke="none" font-family="Arial" font-size="24px" font-style="normal" font-weight="normal" text-decoration="none" x="600" y="210">UNREGISTERED</text><g transform="translate(-118,-70) scale(1,1)"><path fill="#C0C0C0" stroke="none" d="M 135 112.5 C 135 107.2532944 139.2532944 103 144.5 103 C 149.7467056 103 154 107.2532944 154 112.5 C 154 117.7467056 149.7467056 122 144.5 122 C 139.2532944 122 135 117.7467056 135 112.5 Z" opacity="0.2"/></g><g transform="translate(-118,-70) scale(1,1)"><path fill="#000000" stroke="none" d="M 128 105.5 C 128 100.2532944 132.2532944 96 137.5 96 C 142.7467056 96 147 100.2532944 147 105.5 C 147 110.7467056 142.7467056 115 137.5 115 C 132.2532944 115 128 110.7467056 128 105.5 Z"/></g><g transform="translate(-118,-70) scale(1,1)"><path fill="#C0C0C0" stroke="none" d="M 225 87 L 372 87 Q 382 87 382 97 L 382 124 Q 382 134 372 134 L 225 134 Q 215 134 215 124 L 215 97 Q 215 87 225 87 Z" opacity="0.2"/></g><g transform="translate(-118,-70) scale(1,1)"><path fill="#ffffff" stroke="none" d="M 218 80 L 365 80 Q 375 80 375 90 L 375 117 Q 375 127 365 127 L 218 127 Q 208 127 208 117 L 208 90 Q 208 80 218 80 Z"/></g><g transform="translate(-118,-70) scale(1,1)"><path fill="none" stroke="#000000" d="M 218 80 L 365 80 Q 375 80 375 90 L 375 117 Q 375 127 365 127 L 218 127 Q 208 127 208 117 L 208 90 Q 208 80 218 80 Z" stroke-miterlimit="10"/></g><g transform="translate(-118,-70) scale(1,1)"><path fill="none" stroke="#000000" d="M 208 105 L 375 105" stroke-miterlimit="10"/></g><g transform="translate(-118,-70) scale(1,1)"><g><path fill="none" stroke="none"/><text fill="#000000" stroke="none" font-family="Arial" font-size="13px" font-style="normal" font-weight="bold" text-decoration="none" x="226.48095703125" y="98">Preenche Formulário</text></g></g><g transform="translate(-118,-70) scale(1,1)"><g><path fill="none" stroke="none"/><text fill="#000000" stroke="none" font-family="Arial" font-size="13px" font-style="normal" font-weight="normal" text-decoration="none" x="213" y="121">do/Cadastra</text></g></g><g transform="translate(-118,-70) scale(1,1)"><path fill="#C0C0C0" stroke="none" d="M 617 87 L 820 87 Q 830 87 830 97 L 830 124 Q 830 134 820 134 L 617 134 Q 607 134 607 124 L 607 97 Q 607 87 617 87 Z" opacity="0.2"/></g><g transform="translate(-118,-70) scale(1,1)"><path fill="#ffffff" stroke="none" d="M 610 80 L 813 80 Q 823 80 823 90 L 823 117 Q 823 127 813 127 L 610 127 Q 600 127 600 117 L 600 90 Q 600 80 610 80 Z"/></g><g transform="translate(-118,-70) scale(1,1)"><path fill="none" stroke="#000000" d="M 610 80 L 813 80 Q 823 80 823 90 L 823 117 Q 823 127 813 127 L 610 127 Q 600 127 600 117 L 600 90 Q 600 80 610 80 Z" stroke-miterlimit="10"/></g><g transform="translate(-118,-70) scale(1,1)"><path fill="none" stroke="#000000" d="M 600 105 L 823 105" stroke-miterlimit="10"/></g><g transform="translate(-118,-70) scale(1,1)"><g><path fill="none" stroke="none"/><text fill="#000000" stroke="none" font-family="Arial" font-size="13px" font-style="normal" font-weight="bold" text-decoration="none" x="647.201416015625" y="98">Validação dos dados</text></g></g><g transform="translate(-118,-70) scale(1,1)"><g><path fill="none" stroke="none"/><text fill="#000000" stroke="none" font-family="Arial" font-size="13px" font-style="normal" font-weight="normal" text-decoration="none" x="605" y="121">do/ValidaDocumentos</text></g></g><g transform="translate(-118,-70) scale(1,1)"><path fill="none" stroke="#000000" d="M 376 103 L 599 103" stroke-miterlimit="10"/></g><g transform="translate(-118,-70) scale(1,1)"><path fill="none" stroke="#000000" d="M 588.8373251423759 107.20951775601598 L 599 103 L 588.8373251423758 98.79048224398402" stroke-miterlimit="10"/></g><g transform="translate(-118,-70) scale(1,1)"><g><path fill="none" stroke="none"/><text fill="#000000" stroke="none" font-family="Arial" font-size="13px" font-style="normal" font-weight="normal" text-decoration="none" x="440.5" y="93">Envia formulário</text></g></g><g transform="translate(-118,-70) scale(1,1)"><path fill="none" stroke="#000000" d="M 148 105 L 207 104" stroke-miterlimit="10"/></g><g transform="translate(-118,-70) scale(1,1)"><path fill="none" stroke="#000000" d="M 196.9101220755271 108.38113723469543 L 207 104 L 196.76744705029876 99.96331074622279" stroke-miterlimit="10"/></g><g transform="translate(-118,-70) scale(1,1)"><path fill="#C0C0C0" stroke="none" d="M 711 230 C 711 226.1340064 714.1340064 223 718 223 C 721.8659936 223 725 226.1340064 725 230 C 725 233.8659936 721.8659936 237 718 237 C 714.1340064 237 711 233.8659936 711 230 Z" opacity="0.2"/></g><g transform="translate(-118,-70) scale(1,1)"><path fill="#ffffff" stroke="none" d="M 704 223 C 704 219.1340064 707.1340064 216 711 216 C 714.8659936 216 718 219.1340064 718 223 C 718 226.8659936 714.8659936 230 711 230 C 707.1340064 230 704 226.8659936 704 223 Z"/></g><g transform="translate(-118,-70) scale(1,1)"><path fill="none" stroke="#000000" d="M 704 223 C 704 219.1340064 707.1340064 216 711 216 C 714.8659936 216 718 219.1340064 718 223 C 718 226.8659936 714.8659936 230 711 230 C 707.1340064 230 704 226.8659936 704 223 Z" stroke-miterlimit="10"/></g><g transform="translate(-118,-70) scale(1,1)"><path fill="none" stroke="#000000" d="M 711 128 L 711 215" stroke-miterlimit="10"/></g><g transform="translate(-118,-70) scale(1,1)"><path fill="none" stroke="#000000" d="M 706.790482243984 204.83732514237585 L 711 215 L 715.209517756016 204.83732514237585" stroke-miterlimit="10"/></g><g transform="translate(-118,-70) scale(1,1)"><g><path fill="none" stroke="none"/><text fill="#000000" stroke="none" font-family="Arial" font-size="13px" font-style="normal" font-weight="normal" text-decoration="none" x="725.5" y="179">Se documentos válidos</text></g></g><g transform="translate(-118,-70) scale(1,1)"><path fill="#C0C0C0" stroke="none" d="M 703 291.5 C 703 284.59644 708.59644 279 715.5 279 C 722.40356 279 728 284.59644 728 291.5 C 728 298.40356 722.40356 304 715.5 304 C 708.59644 304 703 298.40356 703 291.5 Z" opacity="0.2"/></g><g transform="translate(-118,-70) scale(1,1)"><path fill="none" stroke="#000000" d="M 696 284.5 C 696 277.59644 701.59644 272 708.5 272 C 715.40356 272 721 277.59644 721 284.5 C 721 291.40356 715.40356 297 708.5 297 C 701.59644 297 696 291.40356 696 284.5 Z" stroke-miterlimit="10"/></g><g transform="translate(-118,-70) scale(1,1)"><path fill="#000000" stroke="none" d="M 701 284.5 C 701 280.357864 704.357864 277 708.5 277 C 712.642136 277 716 280.357864 716 284.5 C 716 288.642136 712.642136 292 708.5 292 C 704.357864 292 701 288.642136 701 284.5 Z"/></g><g transform="translate(-118,-70) scale(1,1)"><path fill="none" stroke="#000000" d="M 711 231 L 709 271" stroke-miterlimit="10"/></g><g transform="translate(-118,-70) scale(1,1)"><path fill="none" stroke="#000000" d="M 705.3032340597965 260.63979143147435 L 709 271 L 713.7117654685342 261.06021800191127" stroke-miterlimit="10"/></g><g transform="translate(-118,-70) scale(1,1)"><g><path fill="none" stroke="none"/><text fill="#000000" stroke="none" font-family="Arial" font-size="13px" font-style="normal" font-weight="normal" text-decoration="none" x="726.5" y="256">Cadastrado</text></g></g><g transform="translate(-118,-70) scale(1,1)"><path fill="none" stroke="#000000" d="M 703 223 L 288 224 L 290 128" stroke-miterlimit="10"/></g><g transform="translate(-118,-70) scale(1,1)"><path fill="none" stroke="#000000" d="M 293.9969280683424 138.24814939471983 L 290 128 L 285.57971900942056 138.07279087265897" stroke-miterlimit="10"/></g><g transform="translate(-118,-70) scale(1,1)"><g><path fill="none" stroke="none"/><text fill="#000000" stroke="none" font-family="Arial" font-size="13px" font-style="normal" font-weight="normal" text-decoration="none" x="406.5" y="250">Se documentos inválidos</text></g></g></g></svg>