<svg version="1.1" xmlns="http://www.w3.org/2000/svg" xmlns:xlink="http://www.w3.org/1999/xlink" width="548.033203125" height="916"><defs/><g><text fill="#eeeeee" stroke="none" font-family="Arial" font-size="24px" font-style="normal" font-weight="normal" text-decoration="none" x="0" y="0">UNREGISTERED</text><text fill="#eeeeee" stroke="none" font-family="Arial" font-size="24px" font-style="normal" font-weight="normal" text-decoration="none" x="0" y="30">UNREGISTERED</text><text fill="#eeeeee" stroke="none" font-family="Arial" font-size="24px" font-style="normal" font-weight="normal" text-decoration="none" x="0" y="60">UNREGISTERED</text><text fill="#eeeeee" stroke="none" font-family="Arial" font-size="24px" font-style="normal" font-weight="normal" text-decoration="none" x="0" y="90">UNREGISTERED</text><text fill="#eeeeee" stroke="none" font-family="Arial" font-size="24px" font-style="normal" font-weight="normal" text-decoration="none" x="0" y="120">UNREGISTERED</text><text fill="#eeeeee" stroke="none" font-family="Arial" font-size="24px" font-style="normal" font-weight="normal" text-decoration="none" x="0" y="150">UNREGISTERED</text><text fill="#eeeeee" stroke="none" font-family="Arial" font-size="24px" font-style="normal" font-weight="normal" text-decoration="none" x="0" y="180">UNREGISTERED</text><text fill="#eeeeee" stroke="none" font-family="Arial" font-size="24px" font-style="normal" font-weight="normal" text-decoration="none" x="0" y="210">UNREGISTERED</text><text fill="#eeeeee" stroke="none" font-family="Arial" font-size="24px" font-style="normal" font-weight="normal" text-decoration="none" x="0" y="240">UNREGISTERED</text><text fill="#eeeeee" stroke="none" font-family="Arial" font-size="24px" font-style="normal" font-weight="normal" text-decoration="none" x="0" y="270">UNREGISTERED</text><text fill="#eeeeee" stroke="none" font-family="Arial" font-size="24px" font-style="normal" font-weight="normal" text-decoration="none" x="0" y="300">UNREGISTERED</text><text fill="#eeeeee" stroke="none" font-family="Arial" font-size="24px" font-style="normal" font-weight="normal" text-decoration="none" x="0" y="330">UNREGISTERED</text><text fill="#eeeeee" stroke="none" font-family="Arial" font-size="24px" font-style="normal" font-weight="normal" text-decoration="none" x="0" y="360">UNREGISTERED</text><text fill="#eeeeee" stroke="none" font-family="Arial" font-size="24px" font-style="normal" font-weight="normal" text-decoration="none" x="0" y="390">UNREGISTERED</text><text fill="#eeeeee" stroke="none" font-family="Arial" font-size="24px" font-style="normal" font-weight="normal" text-decoration="none" x="0" y="420">UNREGISTERED</text><text fill="#eeeeee" stroke="none" font-family="Arial" font-size="24px" font-style="normal" font-weight="normal" text-decoration="none" x="0" y="450">UNREGISTERED</text><text fill="#eeeeee" stroke="none" font-family="Arial" font-size="24px" font-style="normal" font-weight="normal" text-decoration="none" x="0" y="480">UNREGISTERED</text><text fill="#eeeeee" stroke="none" font-family="Arial" font-size="24px" font-style="normal" font-weight="normal" text-decoration="none" x="0" y="510">UNREGISTERED</text><text fill="#eeeeee" stroke="none" font-family="Arial" font-size="24px" font-style="normal" font-weight="normal" text-decoration="none" x="0" y="540">UNREGISTERED</text><text fill="#eeeeee" stroke="none" font-family="Arial" font-size="24px" font-style="normal" font-weight="normal" text-decoration="none" x="0" y="570">UNREGISTERED</text><text fill="#eeeeee" stroke="none" font-family="Arial" font-size="24px" font-style="normal" font-weight="normal" text-decoration="none" x="0" y="600">UNREGISTERED</text><text fill="#eeeeee" stroke="none" font-family="Arial" font-size="24px" font-style="normal" font-weight="normal" text-decoration="none" x="0" y="630">UNREGISTERED</text><text fill="#eeeeee" stroke="none" font-family="Arial" font-size="24px" font-style="normal" font-weight="normal" text-decoration="none" x="0" y="660">UNREGISTERED</text><text fill="#eeeeee" stroke="none" font-family="Arial" font-size="24px" font-style="normal" font-weight="normal" text-decoration="none" x="0" y="690">UNREGISTERED</text><text fill="#eeeeee" stroke="none" font-family="Arial" font-size="24px" font-style="normal" font-weight="normal" text-decoration="none" x="0" y="720">UNREGISTERED</text><text fill="#eeeeee" stroke="none" font-family="Arial" font-size="24px" font-style="normal" font-weight="normal" text-decoration="none" x="0" y="750">UNREGISTERED</text><text fill="#eeeeee" stroke="none" font-family="Arial" font-size="24px" font-style="normal" font-weight="normal" text-decoration="none" x="0" y="780">UNREGISTERED</text><text fill="#eeeeee" stroke="none" font-family="Arial" font-size="24px" font-style="normal" font-weight="normal" text-decoration="none" x="0" y="810">UNREGISTERED</text><text fill="#eeeeee" stroke="none" font-family="Arial" font-size="24px" font-style="normal" font-weight="normal" text-decoration="none" x="0" y="840">UNREGISTERED</text><text fill="#eeeeee" stroke="none" font-family="Arial" font-size="24px" font-style="normal" font-weight="normal" text-decoration="none" x="0" y="870">UNREGISTERED</text><text fill="#eeeeee" stroke="none" font-family="Arial" font-size="24px" font-style="normal" font-weight="normal" text-decoration="none" x="0" y="900">UNREGISTERED</text><text fill="#eeeeee" stroke="none" font-family="Arial" font-size="24px" font-style="normal" font-weight="normal" text-decoration="none" x="200" y="0">UNREGISTERED</text><text fill="#eeeeee" stroke="none" font-family="Arial" font-size="24px" font-style="normal" font-weight="normal" text-decoration="none" x="200" y="30">UNREGISTERED</text><text fill="#eeeeee" stroke="none" font-family="Arial" font-size="24px" font-style="normal" font-weight="normal" text-decoration="none" x="200" y="60">UNREGISTERED</text><text fill="#eeeeee" stroke="none" font-family="Arial" font-size="24px" font-style="normal" font-weight="normal" text-decoration="none" x="200" y="90">UNREGISTERED</text><text fill="#eeeeee" stroke="none" font-family="Arial" font-size="24px" font-style="normal" font-weight="normal" text-decoration="none" x="200" y="120">UNREGISTERED</text><text fill="#eeeeee" stroke="none" font-family="Arial" font-size="24px" font-style="normal" font-weight="normal" text-decoration="none" x="200" y="150">UNREGISTERED</text><text fill="#eeeeee" stroke="none" font-family="Arial" font-size="24px" font-style="normal" font-weight="normal" text-decoration="none" x="200" y="180">UNREGISTERED</text><text fill="#eeeeee" stroke="none" font-family="Arial" font-size="24px" font-style="normal" font-weight="normal" text-decoration="none" x="200" y="210">UNREGISTERED</text><text fill="#eeeeee" stroke="none" font-family="Arial" font-size="24px" font-style="normal" font-weight="normal" text-decoration="none" x="200" y="240">UNREGISTERED</text><text fill="#eeeeee" stroke="none" font-family="Arial" font-size="24px" font-style="normal" font-weight="normal" text-decoration="none" x="200" y="270">UNREGISTERED</text><text fill="#eeeeee" stroke="none" font-family="Arial" font-size="24px" font-style="normal" font-weight="normal" text-decoration="none" x="200" y="300">UNREGISTERED</text><text fill="#eeeeee" stroke="none" font-family="Arial" font-size="24px" font-style="normal" font-weight="normal" text-decoration="none" x="200" y="330">UNREGISTERED</text><text fill="#eeeeee" stroke="none" font-family="Arial" font-size="24px" font-style="normal" font-weight="normal" text-decoration="none" x="200" y="360">UNREGISTERED</text><text fill="#eeeeee" stroke="none" font-family="Arial" font-size="24px" font-style="normal" font-weight="normal" text-decoration="none" x="200" y="390">UNREGISTERED</text><text fill="#eeeeee" stroke="none" font-family="Arial" font-size="24px" font-style="normal" font-weight="normal" text-decoration="none" x="200" y="420">UNREGISTERED</text><text fill="#eeeeee" stroke="none" font-family="Arial" font-size="24px" font-style="normal" font-weight="normal" text-decoration="none" x="200" y="450">UNREGISTERED</text><text fill="#eeeeee" stroke="none" font-family="Arial" font-size="24px" font-style="normal" font-weight="normal" text-decoration="none" x="200" y="480">UNREGISTERED</text><text fill="#eeeeee" stroke="none" font-family="Arial" font-size="24px" font-style="normal" font-weight="normal" text-decoration="none" x="200" y="510">UNREGISTERED</text><text fill="#eeeeee" stroke="none" font-family="Arial" font-size="24px" font-style="normal" font-weight="normal" text-decoration="none" x="200" y="540">UNREGISTERED</text><text fill="#eeeeee" stroke="none" font-family="Arial" font-size="24px" font-style="normal" font-weight="normal" text-decoration="none" x="200" y="570">UNREGISTERED</text><text fill="#eeeeee" stroke="none" font-family="Arial" font-size="24px" font-style="normal" font-weight="normal" text-decoration="none" x="200" y="600">UNREGISTERED</text><text fill="#eeeeee" stroke="none" font-family="Arial" font-size="24px" font-style="normal" font-weight="normal" text-decoration="none" x="200" y="630">UNREGISTERED</text><text fill="#eeeeee" stroke="none" font-family="Arial" font-size="24px" font-style="normal" font-weight="normal" text-decoration="none" x="200" y="660">UNREGISTERED</text><text fill="#eeeeee" stroke="none" font-family="Arial" font-size="24px" font-style="normal" font-weight="normal" text-decoration="none" x="200" y="690">UNREGISTERED</text><text fill="#eeeeee" stroke="none" font-family="Arial" font-size="24px" font-style="normal" font-weight="normal" text-decoration="none" x="200" y="720">UNREGISTERED</text><text fill="#eeeeee" stroke="none" font-family="Arial" font-size="24px" font-style="normal" font-weight="normal" text-decoration="none" x="200" y="750">UNREGISTERED</text><text fill="#eeeeee" stroke="none" font-family="Arial" font-size="24px" font-style="normal" font-weight="normal" text-decoration="none" x="200" y="780">UNREGISTERED</text><text fill="#eeeeee" stroke="none" font-family="Arial" font-size="24px" font-style="normal" font-weight="normal" text-decoration="none" x="200" y="810">UNREGISTERED</text><text fill="#eeeeee" stroke="none" font-family="Arial" font-size="24px" font-style="normal" font-weight="normal" text-decoration="none" x="200" y="840">UNREGISTERED</text><text fill="#eeeeee" stroke="none" font-family="Arial" font-size="24px" font-style="normal" font-weight="normal" text-decoration="none" x="200" y="870">UNREGISTERED</text><text fill="#eeeeee" stroke="none" font-family="Arial" font-size="24px" font-style="normal" font-weight="normal" text-decoration="none" x="200" y="900">UNREGISTERED</text><text fill="#eeeeee" stroke="none" font-family="Arial" font-size="24px" font-style="normal" font-weight="normal" text-decoration="none" x="400" y="0">UNREGISTERED</text><text fill="#eeeeee" stroke="none" font-family="Arial" font-size="24px" font-style="normal" font-weight="normal" text-decoration="none" x="400" y="30">UNREGISTERED</text><text fill="#eeeeee" stroke="none" font-family="Arial" font-size="24px" font-style="normal" font-weight="normal" text-decoration="none" x="400" y="60">UNREGISTERED</text><text fill="#eeeeee" stroke="none" font-family="Arial" font-size="24px" font-style="normal" font-weight="normal" text-decoration="none" x="400" y="90">UNREGISTERED</text><text fill="#eeeeee" stroke="none" font-family="Arial" font-size="24px" font-style="normal" font-weight="normal" text-decoration="none" x="400" y="120">UNREGISTERED</text><text fill="#eeeeee" stroke="none" font-family="Arial" font-size="24px" font-style="normal" font-weight="normal" text-decoration="none" x="400" y="150">UNREGISTERED</text><text fill="#eeeeee" stroke="none" font-family="Arial" font-size="24px" font-style="normal" font-weight="normal" text-decoration="none" x="400" y="180">UNREGISTERED</text><text fill="#eeeeee" stroke="none" font-family="Arial" font-size="24px" font-style="normal" font-weight="normal" text-decoration="none" x="400" y="210">UNREGISTERED</text><text fill="#eeeeee" stroke="none" font-family="Arial" font-size="24px" font-style="normal" font-weight="normal" text-decoration="none" x="400" y="240">UNREGISTERED</text><text fill="#eeeeee" stroke="none" font-family="Arial" font-size="24px" font-style="normal" font-weight="normal" text-decoration="none" x="400" y="270">UNREGISTERED</text><text fill="#eeeeee" stroke="none" font-family="Arial" font-size="24px" font-style="normal" font-weight="normal" text-decoration="none" x="400" y="300">UNREGISTERED</text><text fill="#eeeeee" stroke="none" font-family="Arial" font-size="24px" font-style="normal" font-weight="normal" text-decoration="none" x="400" y="330">UNREGISTERED</text><text fill="#eeeeee" stroke="none" font-family="Arial" font-size="24px" font-style="normal" font-weight="normal" text-decoration="none" x="400" y="360">UNREGISTERED</text><text fill="#eeeeee" stroke="none" font-family="Arial" font-size="24px" font-style="normal" font-weight="normal" text-decoration="none" x="400" y="390">UNREGISTERED</text><text fill="#eeeeee" stroke="none" font-family="Arial" font-size="24px" font-style="normal" font-weight="normal" text-decoration="none" x="400" y="420">UNREGISTERED</text><text fill="#eeeeee" stroke="none" font-family="Arial" font-size="24px" font-style="normal" font-weight="normal" text-decoration="none" x="400" y="450">UNREGISTERED</text><text fill="#eeeeee" stroke="none" font-family="Arial" font-size="24px" font-style="normal" font-weight="normal" text-decoration="none" x="400" y="480">UNREGISTERED</text><text fill="#eeeeee" stroke="none" font-family="Arial" font-size="24px" font-style="normal" font-weight="normal" text-decoration="none" x="400" y="510">UNREGISTERED</text><text fill="#eeeeee" stroke="none" font-family="Arial" font-size="24px" font-style="normal" font-weight="normal" text-decoration="none" x="400" y="540">UNREGISTERED</text><text fill="#eeeeee" stroke="none" font-family="Arial" font-size="24px" font-style="normal" font-weight="normal" text-decoration="none" x="400" y="570">UNREGISTERED</text><text fill="#eeeeee" stroke="none" font-family="Arial" font-size="24px" font-style="normal" font-weight="normal" text-decoration="none" x="400" y="600">UNREGISTERED</text><text fill="#eeeeee" stroke="none" font-family="Arial" font-size="24px" font-style="normal" font-weight="normal" text-decoration="none" x="400" y="630">UNREGISTERED</text><text fill="#eeeeee" stroke="none" font-family="Arial" font-size="24px" font-style="normal" font-weight="normal" text-decoration="none" x="400" y="660">UNREGISTERED</text><text fill="#eeeeee" stroke="none" font-family="Arial" font-size="24px" font-style="normal" font-weight="normal" text-decoration="none" x="400" y="690">UNREGISTERED</text><text fill="#eeeeee" stroke="none" font-family="Arial" font-size="24px" font-style="normal" font-weight="normal" text-decoration="none" x="400" y="720">UNREGISTERED</text><text fill="#eeeeee" stroke="none" font-family="Arial" font-size="24px" font-style="normal" font-weight="normal" text-decoration="none" x="400" y="750">UNREGISTERED</text><text fill="#eeeeee" stroke="none" font-family="Arial" font-size="24px" font-style="normal" font-weight="normal" text-decoration="none" x="400" y="780">UNREGISTERED</text><text fill="#eeeeee" stroke="none" font-family="Arial" font-size="24px" font-style="normal" font-weight="normal" text-decoration="none" x="400" y="810">UNREGISTERED</text><text fill="#eeeeee" stroke="none" font-family="Arial" font-size="24px" font-style="normal" font-weight="normal" text-decoration="none" x="400" y="840">UNREGISTERED</text><text fill="#eeeeee" stroke="none" font-family="Arial" font-size="24px" font-style="normal" font-weight="normal" text-decoration="none" x="400" y="870">UNREGISTERED</text><text fill="#eeeeee" stroke="none" font-family="Arial" font-size="24px" font-style="normal" font-weight="normal" text-decoration="none" x="400" y="900">UNREGISTERED</text><g transform="translate(-110,-30) scale(1,1)"><rect fill="#C0C0C0" stroke="none" x="455" y="47" width="128.078125" height="39" opacity="0.2"/></g><g transform="translate(-110,-30) scale(1,1)"><rect fill="#ffffff" stroke="none" x="448" y="40" width="128.078125" height="39"/></g><g transform="translate(-110,-30) scale(1,1)"><path fill="none" stroke="#000000" d="M 448 40 L 576.078125 40 L 576.078125 79 L 448 79 L 448 40 Z Z" stroke-miterlimit="10"/></g><g transform="translate(-110,-30) scale(1,1)"><g><path fill="none" stroke="none"/><text fill="#000000" stroke="none" font-family="Arial" font-size="13px" font-style="normal" font-weight="bold" text-decoration="none" x="458.937744140625" y="58">Sistema: Usuário</text></g></g><g transform="translate(-110,-30) scale(1,1)"><path fill="none" stroke="#000000" d="M 513.5 80 L 513.5 918" stroke-miterlimit="10" stroke-dasharray="3"/></g><g transform="translate(-110,-30) scale(1,1)"><path fill="#ffffff" stroke="none" d="M 251.8631454190341 47.3 C 251.8631454190341 43.82060576 254.74154714121596 41 258.29223632812506 41 C 261.84292551503415 41 264.721327237216 43.82060576 264.721327237216 47.3 C 264.721327237216 50.779394239999995 261.84292551503415 53.6 258.29223632812506 53.6 C 254.74154714121596 53.6 251.8631454190341 50.779394239999995 251.8631454190341 47.3 Z"/></g><g transform="translate(-110,-30) scale(1,1)"><path fill="none" stroke="#000000" d="M 251.8631454190341 47.3 C 251.8631454190341 43.82060576 254.74154714121596 41 258.29223632812506 41 C 261.84292551503415 41 264.721327237216 43.82060576 264.721327237216 47.3 C 264.721327237216 50.779394239999995 261.84292551503415 53.6 258.29223632812506 53.6 C 254.74154714121596 53.6 251.8631454190341 50.779394239999995 251.8631454190341 47.3 Z" stroke-miterlimit="10"/></g><g transform="translate(-110,-30) scale(1,1)"><path fill="none" stroke="#000000" d="M 258.292236328125 53.6 L 258.292236328125 66.4" stroke-miterlimit="10"/></g><g transform="translate(-110,-30) scale(1,1)"><path fill="none" stroke="#000000" d="M 251.4849636008523 58.4 L 265.0995090553978 58.4" stroke-miterlimit="10"/></g><g transform="translate(-110,-30) scale(1,1)"><path fill="none" stroke="#000000" d="M 258.292236328125 66.4 L 248.83769087357956 79" stroke-miterlimit="10"/></g><g transform="translate(-110,-30) scale(1,1)"><path fill="none" stroke="#000000" d="M 258.292236328125 66.4 L 267.7467817826705 79" stroke-miterlimit="10"/></g><g transform="translate(-110,-30) scale(1,1)"><g><path fill="none" stroke="none"/><text fill="#000000" stroke="none" font-family="Arial" font-size="13px" font-style="normal" font-weight="bold" text-decoration="none" x="225.41455078125" y="98">User: User</text></g></g><g transform="translate(-110,-30) scale(1,1)"><path fill="none" stroke="#000000" d="M 259.5 105 L 259.5 902" stroke-miterlimit="10" stroke-dasharray="3"/></g><g transform="translate(-110,-30) scale(1,1)"><path fill="none" stroke="#000000" d="M 259 120 L 506 120" stroke-miterlimit="10"/></g><g transform="translate(-110,-30) scale(1,1)"><path fill="#000000" stroke="none" d="M 495.83732514237585 124.20951775601598 L 506 120 L 495.83732514237585 115.79048224398402"/></g><g transform="translate(-110,-30) scale(1,1)"><path fill="none" stroke="#000000" d="M 495.83732514237585 124.20951775601598 L 506 120 L 495.83732514237585 115.79048224398402 L 495.83732514237585 124.20951775601598" stroke-miterlimit="10"/></g><g transform="translate(-110,-30) scale(1,1)"><g><path fill="none" stroke="none"/><text fill="#000000" stroke="none" font-family="Arial" font-size="13px" font-style="normal" font-weight="normal" text-decoration="none" x="352.25634765625" y="115">1 : Login()</text></g></g><g transform="translate(-110,-30) scale(1,1)"><rect fill="#ffffff" stroke="none" x="506" y="120" width="13" height="28"/></g><g transform="translate(-110,-30) scale(1,1)"><path fill="none" stroke="#000000" d="M 506 120 L 519 120 L 519 148 L 506 148 L 506 120 Z Z" stroke-miterlimit="10"/></g><g transform="translate(-110,-30) scale(1,1)"><path fill="none" stroke="#000000" d="M 513 200 L 543 200 L 543 220 L 519 220" stroke-miterlimit="10"/></g><g transform="translate(-110,-30) scale(1,1)"><path fill="#000000" stroke="none" d="M 529.1626748576241 215.790482243984 L 519 220 L 529.1626748576241 224.209517756016"/></g><g transform="translate(-110,-30) scale(1,1)"><path fill="none" stroke="#000000" d="M 529.1626748576241 215.790482243984 L 519 220 L 529.1626748576241 224.209517756016 L 529.1626748576241 215.790482243984" stroke-miterlimit="10"/></g><g transform="translate(-110,-30) scale(1,1)"><g><path fill="none" stroke="none"/><text fill="#000000" stroke="none" font-family="Arial" font-size="13px" font-style="normal" font-weight="normal" text-decoration="none" x="550.5" y="214">2 : ValidarLogin()</text></g></g><g transform="translate(-110,-30) scale(1,1)"><rect fill="#ffffff" stroke="none" x="506" y="220" width="13" height="244"/></g><g transform="translate(-110,-30) scale(1,1)"><path fill="none" stroke="#000000" d="M 506 220 L 519 220 L 519 464 L 506 464 L 506 220 Z Z" stroke-miterlimit="10"/></g><g transform="translate(-110,-30) scale(1,1)"><path fill="none" stroke="#000000" d="M 506 288 L 259 288" stroke-miterlimit="10" stroke-dasharray="3"/></g><g transform="translate(-110,-30) scale(1,1)"><path fill="none" stroke="#000000" d="M 269.16267485762415 283.790482243984 L 259 288 L 269.16267485762415 292.209517756016" stroke-miterlimit="10"/></g><g transform="translate(-110,-30) scale(1,1)"><g><path fill="none" stroke="none"/><text fill="#000000" stroke="none" font-family="Arial" font-size="13px" font-style="normal" font-weight="normal" text-decoration="none" x="350.5" y="303">3 : Logado</text></g></g><g transform="translate(-110,-30) scale(1,1)"><path fill="none" stroke="#000000" d="M 506 360 L 259 360" stroke-miterlimit="10" stroke-dasharray="3"/></g><g transform="translate(-110,-30) scale(1,1)"><path fill="none" stroke="#000000" d="M 269.16267485762415 355.790482243984 L 259 360 L 269.16267485762415 364.209517756016" stroke-miterlimit="10"/></g><g transform="translate(-110,-30) scale(1,1)"><g><path fill="none" stroke="none"/><text fill="#000000" stroke="none" font-family="Arial" font-size="13px" font-style="normal" font-weight="normal" text-decoration="none" x="296.5" y="379">4 : Senha ou Login Incorreto</text></g></g><g transform="translate(-110,-30) scale(1,1)"><path fill="none" stroke="#000000" d="M 506 424 L 259 424" stroke-miterlimit="10" stroke-dasharray="3"/></g><g transform="translate(-110,-30) scale(1,1)"><path fill="none" stroke="#000000" d="M 269.16267485762415 419.790482243984 L 259 424 L 269.16267485762415 428.209517756016" stroke-miterlimit="10"/></g><g transform="translate(-110,-30) scale(1,1)"><g><path fill="none" stroke="none"/><text fill="#000000" stroke="none" font-family="Arial" font-size="13px" font-style="normal" font-weight="normal" text-decoration="none" x="302.5" y="439">5 : Bloqueado por 24 horas</text></g></g><g transform="translate(-110,-30) scale(1,1)"><path fill="none" stroke="#000000" d="M 259 533 L 506 533" stroke-miterlimit="10"/></g><g transform="translate(-110,-30) scale(1,1)"><path fill="#000000" stroke="none" d="M 495.83732514237585 537.209517756016 L 506 533 L 495.83732514237585 528.790482243984"/></g><g transform="translate(-110,-30) scale(1,1)"><path fill="none" stroke="#000000" d="M 495.83732514237585 537.209517756016 L 506 533 L 495.83732514237585 528.790482243984 L 495.83732514237585 537.209517756016" stroke-miterlimit="10"/></g><g transform="translate(-110,-30) scale(1,1)"><g><path fill="none" stroke="none"/><text fill="#000000" stroke="none" font-family="Arial" font-size="13px" font-style="normal" font-weight="normal" text-decoration="none" x="333.5" y="528">6 : AlterarLogin()</text></g></g><g transform="translate(-110,-30) scale(1,1)"><rect fill="#ffffff" stroke="none" x="506" y="533" width="13" height="28"/></g><g transform="translate(-110,-30) scale(1,1)"><path fill="none" stroke="#000000" d="M 506 533 L 519 533 L 519 561 L 506 561 L 506 533 Z Z" stroke-miterlimit="10"/></g><g transform="translate(-110,-30) scale(1,1)"><path fill="none" stroke="#000000" d="M 513 584 L 259 584" stroke-miterlimit="10" stroke-dasharray="3"/></g><g transform="translate(-110,-30) scale(1,1)"><path fill="none" stroke="#000000" d="M 269.16267485762415 579.790482243984 L 259 584 L 269.16267485762415 588.209517756016" stroke-miterlimit="10"/></g><g transform="translate(-110,-30) scale(1,1)"><g><path fill="none" stroke="none"/><text fill="#000000" stroke="none" font-family="Arial" font-size="13px" font-style="normal" font-weight="normal" text-decoration="none" x="334.5" y="599">7 : Login alterado</text></g></g><g transform="translate(-110,-30) scale(1,1)"><path fill="none" stroke="#000000" d="M 259 688 L 506 688" stroke-miterlimit="10"/></g><g transform="translate(-110,-30) scale(1,1)"><path fill="#000000" stroke="none" d="M 495.83732514237585 692.209517756016 L 506 688 L 495.83732514237585 683.790482243984"/></g><g transform="translate(-110,-30) scale(1,1)"><path fill="none" stroke="#000000" d="M 495.83732514237585 692.209517756016 L 506 688 L 495.83732514237585 683.790482243984 L 495.83732514237585 692.209517756016" stroke-miterlimit="10"/></g><g transform="translate(-110,-30) scale(1,1)"><g><path fill="none" stroke="none"/><text fill="#000000" stroke="none" font-family="Arial" font-size="13px" font-style="normal" font-weight="normal" text-decoration="none" x="326.5" y="683">8 : EncerrarConta()</text></g></g><g transform="translate(-110,-30) scale(1,1)"><rect fill="#ffffff" stroke="none" x="506" y="688" width="13" height="28"/></g><g transform="translate(-110,-30) scale(1,1)"><path fill="none" stroke="#000000" d="M 506 688 L 519 688 L 519 716 L 506 716 L 506 688 Z Z" stroke-miterlimit="10"/></g><g transform="translate(-110,-30) scale(1,1)"><path fill="none" stroke="#000000" d="M 513 744 L 265 744" stroke-miterlimit="10"/></g><g transform="translate(-110,-30) scale(1,1)"><path fill="#000000" stroke="none" d="M 275.16267485762415 739.790482243984 L 265 744 L 275.16267485762415 748.209517756016"/></g><g transform="translate(-110,-30) scale(1,1)"><path fill="none" stroke="#000000" d="M 275.16267485762415 739.790482243984 L 265 744 L 275.16267485762415 748.209517756016 L 275.16267485762415 739.790482243984" stroke-miterlimit="10"/></g><g transform="translate(-110,-30) scale(1,1)"><g><path fill="none" stroke="none"/><text fill="#000000" stroke="none" font-family="Arial" font-size="13px" font-style="normal" font-weight="normal" text-decoration="none" x="304.5" y="759">9 : ConfirmarCancelamento()</text></g></g><g transform="translate(-110,-30) scale(1,1)"><rect fill="#ffffff" stroke="none" x="252" y="744" width="13" height="28"/></g><g transform="translate(-110,-30) scale(1,1)"><path fill="none" stroke="#000000" d="M 252 744 L 265 744 L 265 772 L 252 772 L 252 744 Z Z" stroke-miterlimit="10"/></g><g transform="translate(-110,-30) scale(1,1)"><path fill="none" stroke="#000000" d="M 259 855 L 506 855" stroke-miterlimit="10"/></g><g transform="translate(-110,-30) scale(1,1)"><path fill="#000000" stroke="none" d="M 495.83732514237585 859.209517756016 L 506 855 L 495.83732514237585 850.790482243984"/></g><g transform="translate(-110,-30) scale(1,1)"><path fill="none" stroke="#000000" d="M 495.83732514237585 859.209517756016 L 506 855 L 495.83732514237585 850.790482243984 L 495.83732514237585 859.209517756016" stroke-miterlimit="10"/></g><g transform="translate(-110,-30) scale(1,1)"><g><path fill="none" stroke="none"/><text fill="#000000" stroke="none" font-family="Arial" font-size="13px" font-style="normal" font-weight="normal" text-decoration="none" x="331.5" y="850">10 : AlterarPerfil()</text></g></g><g transform="translate(-110,-30) scale(1,1)"><rect fill="#ffffff" stroke="none" x="506" y="855" width="13" height="28"/></g><g transform="translate(-110,-30) scale(1,1)"><path fill="none" stroke="#000000" d="M 506 855 L 519 855 L 519 883 L 506 883 L 506 855 Z Z" stroke-miterlimit="10"/></g><g transform="translate(-110,-30) scale(1,1)"><path fill="none" stroke="#000000" d="M 513 888 L 259 888" stroke-miterlimit="10" stroke-dasharray="3"/></g><g transform="translate(-110,-30) scale(1,1)"><path fill="none" stroke="#000000" d="M 269.16267485762415 883.790482243984 L 259 888 L 269.16267485762415 892.209517756016" stroke-miterlimit="10"/></g><g transform="translate(-110,-30) scale(1,1)"><g><path fill="none" stroke="none"/><text fill="#000000" stroke="none" font-family="Arial" font-size="13px" font-style="normal" font-weight="normal" text-decoration="none" x="332.5" y="903">11 : Perfil alterado</text></g></g><g transform="translate(-110,-30) scale(1,1)"><path fill="none" stroke="#000000" d="M 120 256 L 608 256 L 608 472 L 120 472 L 120 256" stroke-miterlimit="10"/></g><g transform="translate(-110,-30) scale(1,1)"><path fill="#ffffff" stroke="none" d="M 120 256 L 120 278 L 213.09228515625 278 L 224.09228515625 267 L 224.09228515625 256 L 120 256"/></g><g transform="translate(-110,-30) scale(1,1)"><path fill="none" stroke="#000000" d="M 120 256 L 120 278 L 213.09228515625 278 L 224.09228515625 267 L 224.09228515625 256 L 120 256 L 120 256" stroke-miterlimit="10"/></g><g transform="translate(-110,-30) scale(1,1)"><g><path fill="none" stroke="none"/><text fill="#000000" stroke="none" font-family="Arial" font-size="13px" font-style="normal" font-weight="normal" text-decoration="none" x="151.9599609375" y="272">Validação</text></g></g><g transform="translate(-110,-30) scale(1,1)"><g><path fill="none" stroke="none"/><text fill="#000000" stroke="none" font-family="Arial" font-size="13px" font-style="normal" font-weight="bold" text-decoration="none" x="124.279541015625" y="270.5">seq</text></g></g><g transform="translate(-110,-30) scale(1,1)"><g><path fill="none" stroke="none"/><text fill="#000000" stroke="none" font-family="Arial" font-size="13px" font-style="normal" font-weight="normal" text-decoration="none" x="139.5" y="305">[Se sucesso]</text></g></g><g transform="translate(-110,-30) scale(1,1)"><path fill="none" stroke="#000000" d="M 120 337 L 608 337" stroke-miterlimit="10" stroke-dasharray="10,3"/></g><g transform="translate(-110,-30) scale(1,1)"><g><path fill="none" stroke="none"/><text fill="#000000" stroke="none" font-family="Arial" font-size="13px" font-style="normal" font-weight="normal" text-decoration="none" x="139.5" y="363">[Se negado]</text></g></g><g transform="translate(-110,-30) scale(1,1)"><path fill="none" stroke="#000000" d="M 120 393 L 608 393" stroke-miterlimit="10" stroke-dasharray="10,3"/></g><g transform="translate(-110,-30) scale(1,1)"><g><path fill="none" stroke="none"/><text fill="#000000" stroke="none" font-family="Arial" font-size="13px" font-style="normal" font-weight="normal" text-decoration="none" x="139.5" y="419">[Se +5 tentativas]</text></g></g><g transform="translate(-110,-30) scale(1,1)"><path fill="none" stroke="#000000" d="M 120 496 L 616 496 L 616 624 L 120 624 L 120 496" stroke-miterlimit="10"/></g><g transform="translate(-110,-30) scale(1,1)"><path fill="#ffffff" stroke="none" d="M 120 496 L 120 518 L 230.6689453125 518 L 241.6689453125 507 L 241.6689453125 496 L 120 496"/></g><g transform="translate(-110,-30) scale(1,1)"><path fill="none" stroke="#000000" d="M 120 496 L 120 518 L 230.6689453125 518 L 241.6689453125 507 L 241.6689453125 496 L 120 496 L 120 496" stroke-miterlimit="10"/></g><g transform="translate(-110,-30) scale(1,1)"><g><path fill="none" stroke="none"/><text fill="#000000" stroke="none" font-family="Arial" font-size="13px" font-style="normal" font-weight="normal" text-decoration="none" x="151.9599609375" y="512">Alterar Login</text></g></g><g transform="translate(-110,-30) scale(1,1)"><g><path fill="none" stroke="none"/><text fill="#000000" stroke="none" font-family="Arial" font-size="13px" font-style="normal" font-weight="bold" text-decoration="none" x="124.279541015625" y="510.5">seq</text></g></g><g transform="translate(-110,-30) scale(1,1)"><path fill="none" stroke="#000000" d="M 120 656 L 616 656 L 616 792 L 120 792 L 120 656" stroke-miterlimit="10"/></g><g transform="translate(-110,-30) scale(1,1)"><path fill="#ffffff" stroke="none" d="M 120 656 L 120 678 L 245.10986328125 678 L 256.10986328125 667 L 256.10986328125 656 L 120 656"/></g><g transform="translate(-110,-30) scale(1,1)"><path fill="none" stroke="#000000" d="M 120 656 L 120 678 L 245.10986328125 678 L 256.10986328125 667 L 256.10986328125 656 L 120 656 L 120 656" stroke-miterlimit="10"/></g><g transform="translate(-110,-30) scale(1,1)"><g><path fill="none" stroke="none"/><text fill="#000000" stroke="none" font-family="Arial" font-size="13px" font-style="normal" font-weight="normal" text-decoration="none" x="151.9599609375" y="672">Encerrar Conta</text></g></g><g transform="translate(-110,-30) scale(1,1)"><g><path fill="none" stroke="none"/><text fill="#000000" stroke="none" font-family="Arial" font-size="13px" font-style="normal" font-weight="bold" text-decoration="none" x="124.279541015625" y="670.5">seq</text></g></g><g transform="translate(-110,-30) scale(1,1)"><path fill="none" stroke="#000000" d="M 120 816 L 616 816 L 616 936 L 120 936 L 120 816" stroke-miterlimit="10"/></g><g transform="translate(-110,-30) scale(1,1)"><path fill="#ffffff" stroke="none" d="M 120 816 L 120 838 L 228.47900390625 838 L 239.47900390625 827 L 239.47900390625 816 L 120 816"/></g><g transform="translate(-110,-30) scale(1,1)"><path fill="none" stroke="#000000" d="M 120 816 L 120 838 L 228.47900390625 838 L 239.47900390625 827 L 239.47900390625 816 L 120 816 L 120 816" stroke-miterlimit="10"/></g><g transform="translate(-110,-30) scale(1,1)"><g><path fill="none" stroke="none"/><text fill="#000000" stroke="none" font-family="Arial" font-size="13px" font-style="normal" font-weight="normal" text-decoration="none" x="151.9599609375" y="832">Alterar Perfil</text></g></g><g transform="translate(-110,-30) scale(1,1)"><g><path fill="none" stroke="none"/><text fill="#000000" stroke="none" font-family="Arial" font-size="13px" font-style="normal" font-weight="bold" text-decoration="none" x="124.279541015625" y="830.5">seq</text></g></g></g></svg>