<svg version="1.1" xmlns="http://www.w3.org/2000/svg" xmlns:xlink="http://www.w3.org/1999/xlink" width="1220" height="732"><defs/><g><text fill="#eeeeee" stroke="none" font-family="Arial" font-size="24px" font-style="normal" font-weight="normal" text-decoration="none" x="0" y="0">UNREGISTERED</text><text fill="#eeeeee" stroke="none" font-family="Arial" font-size="24px" font-style="normal" font-weight="normal" text-decoration="none" x="0" y="30">UNREGISTERED</text><text fill="#eeeeee" stroke="none" font-family="Arial" font-size="24px" font-style="normal" font-weight="normal" text-decoration="none" x="0" y="60">UNREGISTERED</text><text fill="#eeeeee" stroke="none" font-family="Arial" font-size="24px" font-style="normal" font-weight="normal" text-decoration="none" x="0" y="90">UNREGISTERED</text><text fill="#eeeeee" stroke="none" font-family="Arial" font-size="24px" font-style="normal" font-weight="normal" text-decoration="none" x="0" y="120">UNREGISTERED</text><text fill="#eeeeee" stroke="none" font-family="Arial" font-size="24px" font-style="normal" font-weight="normal" text-decoration="none" x="0" y="150">UNREGISTERED</text><text fill="#eeeeee" stroke="none" font-family="Arial" font-size="24px" font-style="normal" font-weight="normal" text-decoration="none" x="0" y="180">UNREGISTERED</text><text fill="#eeeeee" stroke="none" font-family="Arial" font-size="24px" font-style="normal" font-weight="normal" text-decoration="none" x="0" y="210">UNREGISTERED</text><text fill="#eeeeee" stroke="none" font-family="Arial" font-size="24px" font-style="normal" font-weight="normal" text-decoration="none" x="0" y="240">UNREGISTERED</text><text fill="#eeeeee" stroke="none" font-family="Arial" font-size="24px" font-style="normal" font-weight="normal" text-decoration="none" x="0" y="270">UNREGISTERED</text><text fill="#eeeeee" stroke="none" font-family="Arial" font-size="24px" font-style="normal" font-weight="normal" text-decoration="none" x="0" y="300">UNREGISTERED</text><text fill="#eeeeee" stroke="none" font-family="Arial" font-size="24px" font-style="normal" font-weight="normal" text-decoration="none" x="0" y="330">UNREGISTERED</text><text fill="#eeeeee" stroke="none" font-family="Arial" font-size="24px" font-style="normal" font-weight="normal" text-decoration="none" x="0" y="360">UNREGISTERED</text><text fill="#eeeeee" stroke="none" font-family="Arial" font-size="24px" font-style="normal" font-weight="normal" text-decoration="none" x="0" y="390">UNREGISTERED</text><text fill="#eeeeee" stroke="none" font-family="Arial" font-size="24px" font-style="normal" font-weight="normal" text-decoration="none" x="0" y="420">UNREGISTERED</text><text fill="#eeeeee" stroke="none" font-family="Arial" font-size="24px" font-style="normal" font-weight="normal" text-decoration="none" x="0" y="450">UNREGISTERED</text><text fill="#eeeeee" stroke="none" font-family="Arial" font-size="24px" font-style="normal" font-weight="normal" text-decoration="none" x="0" y="480">UNREGISTERED</text><text fill="#eeeeee" stroke="none" font-family="Arial" font-size="24px" font-style="normal" font-weight="normal" text-decoration="none" x="0" y="510">UNREGISTERED</text><text fill="#eeeeee" stroke="none" font-family="Arial" font-size="24px" font-style="normal" font-weight="normal" text-decoration="none" x="0" y="540">UNREGISTERED</text><text fill="#eeeeee" stroke="none" font-family="Arial" font-size="24px" font-style="normal" font-weight="normal" text-decoration="none" x="0" y="570">UNREGISTERED</text><text fill="#eeeeee" stroke="none" font-family="Arial" font-size="24px" font-style="normal" font-weight="normal" text-decoration="none" x="0" y="600">UNREGISTERED</text><text fill="#eeeeee" stroke="none" font-family="Arial" font-size="24px" font-style="normal" font-weight="normal" text-decoration="none" x="0" y="630">UNREGISTERED</text><text fill="#eeeeee" stroke="none" font-family="Arial" font-size="24px" font-style="normal" font-weight="normal" text-decoration="none" x="0" y="660">UNREGISTERED</text><text fill="#eeeeee" stroke="none" font-family="Arial" font-size="24px" font-style="normal" font-weight="normal" text-decoration="none" x="0" y="690">UNREGISTERED</text><text fill="#eeeeee" stroke="none" font-family="Arial" font-size="24px" font-style="normal" font-weight="normal" text-decoration="none" x="0" y="720">UNREGISTERED</text><text fill="#eeeeee" stroke="none" font-family="Arial" font-size="24px" font-style="normal" font-weight="normal" text-decoration="none" x="200" y="0">UNREGISTERED</text><text fill="#eeeeee" stroke="none" font-family="Arial" font-size="24px" font-style="normal" font-weight="normal" text-decoration="none" x="200" y="30">UNREGISTERED</text><text fill="#eeeeee" stroke="none" font-family="Arial" font-size="24px" font-style="normal" font-weight="normal" text-decoration="none" x="200" y="60">UNREGISTERED</text><text fill="#eeeeee" stroke="none" font-family="Arial" font-size="24px" font-style="normal" font-weight="normal" text-decoration="none" x="200" y="90">UNREGISTERED</text><text fill="#eeeeee" stroke="none" font-family="Arial" font-size="24px" font-style="normal" font-weight="normal" text-decoration="none" x="200" y="120">UNREGISTERED</text><text fill="#eeeeee" stroke="none" font-family="Arial" font-size="24px" font-style="normal" font-weight="normal" text-decoration="none" x="200" y="150">UNREGISTERED</text><text fill="#eeeeee" stroke="none" font-family="Arial" font-size="24px" font-style="normal" font-weight="normal" text-decoration="none" x="200" y="180">UNREGISTERED</text><text fill="#eeeeee" stroke="none" font-family="Arial" font-size="24px" font-style="normal" font-weight="normal" text-decoration="none" x="200" y="210">UNREGISTERED</text><text fill="#eeeeee" stroke="none" font-family="Arial" font-size="24px" font-style="normal" font-weight="normal" text-decoration="none" x="200" y="240">UNREGISTERED</text><text fill="#eeeeee" stroke="none" font-family="Arial" font-size="24px" font-style="normal" font-weight="normal" text-decoration="none" x="200" y="270">UNREGISTERED</text><text fill="#eeeeee" stroke="none" font-family="Arial" font-size="24px" font-style="normal" font-weight="normal" text-decoration="none" x="200" y="300">UNREGISTERED</text><text fill="#eeeeee" stroke="none" font-family="Arial" font-size="24px" font-style="normal" font-weight="normal" text-decoration="none" x="200" y="330">UNREGISTERED</text><text fill="#eeeeee" stroke="none" font-family="Arial" font-size="24px" font-style="normal" font-weight="normal" text-decoration="none" x="200" y="360">UNREGISTERED</text><text fill="#eeeeee" stroke="none" font-family="Arial" font-size="24px" font-style="normal" font-weight="normal" text-decoration="none" x="200" y="390">UNREGISTERED</text><text fill="#eeeeee" stroke="none" font-family="Arial" font-size="24px" font-style="normal" font-weight="normal" text-decoration="none" x="200" y="420">UNREGISTERED</text><text fill="#eeeeee" stroke="none" font-family="Arial" font-size="24px" font-style="normal" font-weight="normal" text-decoration="none" x="200" y="450">UNREGISTERED</text><text fill="#eeeeee" stroke="none" font-family="Arial" font-size="24px" font-style="normal" font-weight="normal" text-decoration="none" x="200" y="480">UNREGISTERED</text><text fill="#eeeeee" stroke="none" font-family="Arial" font-size="24px" font-style="normal" font-weight="normal" text-decoration="none" x="200" y="510">UNREGISTERED</text><text fill="#eeeeee" stroke="none" font-family="Arial" font-size="24px" font-style="normal" font-weight="normal" text-decoration="none" x="200" y="540">UNREGISTERED</text><text fill="#eeeeee" stroke="none" font-family="Arial" font-size="24px" font-style="normal" font-weight="normal" text-decoration="none" x="200" y="570">UNREGISTERED</text><text fill="#eeeeee" stroke="none" font-family="Arial" font-size="24px" font-style="normal" font-weight="normal" text-decoration="none" x="200" y="600">UNREGISTERED</text><text fill="#eeeeee" stroke="none" font-family="Arial" font-size="24px" font-style="normal" font-weight="normal" text-decoration="none" x="200" y="630">UNREGISTERED</text><text fill="#eeeeee" stroke="none" font-family="Arial" font-size="24px" font-style="normal" font-weight="normal" text-decoration="none" x="200" y="660">UNREGISTERED</text><text fill="#eeeeee" stroke="none" font-family="Arial" font-size="24px" font-style="normal" font-weight="normal" text-decoration="none" x="200" y="690">UNREGISTERED</text><text fill="#eeeeee" stroke="none" font-family="Arial" font-size="24px" font-style="normal" font-weight="normal" text-decoration="none" x="200" y="720">UNREGISTERED</text><text fill="#eeeeee" stroke="none" font-family="Arial" font-size="24px" font-style="normal" font-weight="normal" text-decoration="none" x="400" y="0">UNREGISTERED</text><text fill="#eeeeee" stroke="none" font-family="Arial" font-size="24px" font-style="normal" font-weight="normal" text-decoration="none" x="400" y="30">UNREGISTERED</text><text fill="#eeeeee" stroke="none" font-family="Arial" font-size="24px" font-style="normal" font-weight="normal" text-decoration="none" x="400" y="60">UNREGISTERED</text><text fill="#eeeeee" stroke="none" font-family="Arial" font-size="24px" font-style="normal" font-weight="normal" text-decoration="none" x="400" y="90">UNREGISTERED</text><text fill="#eeeeee" stroke="none" font-family="Arial" font-size="24px" font-style="normal" font-weight="normal" text-decoration="none" x="400" y="120">UNREGISTERED</text><text fill="#eeeeee" stroke="none" font-family="Arial" font-size="24px" font-style="normal" font-weight="normal" text-decoration="none" x="400" y="150">UNREGISTERED</text><text fill="#eeeeee" stroke="none" font-family="Arial" font-size="24px" font-style="normal" font-weight="normal" text-decoration="none" x="400" y="180">UNREGISTERED</text><text fill="#eeeeee" stroke="none" font-family="Arial" font-size="24px" font-style="normal" font-weight="normal" text-decoration="none" x="400" y="210">UNREGISTERED</text><text fill="#eeeeee" stroke="none" font-family="Arial" font-size="24px" font-style="normal" font-weight="normal" text-decoration="none" x="400" y="240">UNREGISTERED</text><text fill="#eeeeee" stroke="none" font-family="Arial" font-size="24px" font-style="normal" font-weight="normal" text-decoration="none" x="400" y="270">UNREGISTERED</text><text fill="#eeeeee" stroke="none" font-family="Arial" font-size="24px" font-style="normal" font-weight="normal" text-decoration="none" x="400" y="300">UNREGISTERED</text><text fill="#eeeeee" stroke="none" font-family="Arial" font-size="24px" font-style="normal" font-weight="normal" text-decoration="none" x="400" y="330">UNREGISTERED</text><text fill="#eeeeee" stroke="none" font-family="Arial" font-size="24px" font-style="normal" font-weight="normal" text-decoration="none" x="400" y="360">UNREGISTERED</text><text fill="#eeeeee" stroke="none" font-family="Arial" font-size="24px" font-style="normal" font-weight="normal" text-decoration="none" x="400" y="390">UNREGISTERED</text><text fill="#eeeeee" stroke="none" font-family="Arial" font-size="24px" font-style="normal" font-weight="normal" text-decoration="none" x="400" y="420">UNREGISTERED</text><text fill="#eeeeee" stroke="none" font-family="Arial" font-size="24px" font-style="normal" font-weight="normal" text-decoration="none" x="400" y="450">UNREGISTERED</text><text fill="#eeeeee" stroke="none" font-family="Arial" font-size="24px" font-style="normal" font-weight="normal" text-decoration="none" x="400" y="480">UNREGISTERED</text><text fill="#eeeeee" stroke="none" font-family="Arial" font-size="24px" font-style="normal" font-weight="normal" text-decoration="none" x="400" y="510">UNREGISTERED</text><text fill="#eeeeee" stroke="none" font-family="Arial" font-size="24px" font-style="normal" font-weight="normal" text-decoration="none" x="400" y="540">UNREGISTERED</text><text fill="#eeeeee" stroke="none" font-family="Arial" font-size="24px" font-style="normal" font-weight="normal" text-decoration="none" x="400" y="570">UNREGISTERED</text><text fill="#eeeeee" stroke="none" font-family="Arial" font-size="24px" font-style="normal" font-weight="normal" text-decoration="none" x="400" y="600">UNREGISTERED</text><text fill="#eeeeee" stroke="none" font-family="Arial" font-size="24px" font-style="normal" font-weight="normal" text-decoration="none" x="400" y="630">UNREGISTERED</text><text fill="#eeeeee" stroke="none" font-family="Arial" font-size="24px" font-style="normal" font-weight="normal" text-decoration="none" x="400" y="660">UNREGISTERED</text><text fill="#eeeeee" stroke="none" font-family="Arial" font-size="24px" font-style="normal" font-weight="normal" text-decoration="none" x="400" y="690">UNREGISTERED</text><text fill="#eeeeee" stroke="none" font-family="Arial" font-size="24px" font-style="normal" font-weight="normal" text-decoration="none" x="400" y="720">UNREGISTERED</text><text fill="#eeeeee" stroke="none" font-family="Arial" font-size="24px" font-style="normal" font-weight="normal" text-decoration="none" x="600" y="0">UNREGISTERED</text><text fill="#eeeeee" stroke="none" font-family="Arial" font-size="24px" font-style="normal" font-weight="normal" text-decoration="none" x="600" y="30">UNREGISTERED</text><text fill="#eeeeee" stroke="none" font-family="Arial" font-size="24px" font-style="normal" font-weight="normal" text-decoration="none" x="600" y="60">UNREGISTERED</text><text fill="#eeeeee" stroke="none" font-family="Arial" font-size="24px" font-style="normal" font-weight="normal" text-decoration="none" x="600" y="90">UNREGISTERED</text><text fill="#eeeeee" stroke="none" font-family="Arial" font-size="24px" font-style="normal" font-weight="normal" text-decoration="none" x="600" y="120">UNREGISTERED</text><text fill="#eeeeee" stroke="none" font-family="Arial" font-size="24px" font-style="normal" font-weight="normal" text-decoration="none" x="600" y="150">UNREGISTERED</text><text fill="#eeeeee" stroke="none" font-family="Arial" font-size="24px" font-style="normal" font-weight="normal" text-decoration="none" x="600" y="180">UNREGISTERED</text><text fill="#eeeeee" stroke="none" font-family="Arial" font-size="24px" font-style="normal" font-weight="normal" text-decoration="none" x="600" y="210">UNREGISTERED</text><text fill="#eeeeee" stroke="none" font-family="Arial" font-size="24px" font-style="normal" font-weight="normal" text-decoration="none" x="600" y="240">UNREGISTERED</text><text fill="#eeeeee" stroke="none" font-family="Arial" font-size="24px" font-style="normal" font-weight="normal" text-decoration="none" x="600" y="270">UNREGISTERED</text><text fill="#eeeeee" stroke="none" font-family="Arial" font-size="24px" font-style="normal" font-weight="normal" text-decoration="none" x="600" y="300">UNREGISTERED</text><text fill="#eeeeee" stroke="none" font-family="Arial" font-size="24px" font-style="normal" font-weight="normal" text-decoration="none" x="600" y="330">UNREGISTERED</text><text fill="#eeeeee" stroke="none" font-family="Arial" font-size="24px" font-style="normal" font-weight="normal" text-decoration="none" x="600" y="360">UNREGISTERED</text><text fill="#eeeeee" stroke="none" font-family="Arial" font-size="24px" font-style="normal" font-weight="normal" text-decoration="none" x="600" y="390">UNREGISTERED</text><text fill="#eeeeee" stroke="none" font-family="Arial" font-size="24px" font-style="normal" font-weight="normal" text-decoration="none" x="600" y="420">UNREGISTERED</text><text fill="#eeeeee" stroke="none" font-family="Arial" font-size="24px" font-style="normal" font-weight="normal" text-decoration="none" x="600" y="450">UNREGISTERED</text><text fill="#eeeeee" stroke="none" font-family="Arial" font-size="24px" font-style="normal" font-weight="normal" text-decoration="none" x="600" y="480">UNREGISTERED</text><text fill="#eeeeee" stroke="none" font-family="Arial" font-size="24px" font-style="normal" font-weight="normal" text-decoration="none" x="600" y="510">UNREGISTERED</text><text fill="#eeeeee" stroke="none" font-family="Arial" font-size="24px" font-style="normal" font-weight="normal" text-decoration="none" x="600" y="540">UNREGISTERED</text><text fill="#eeeeee" stroke="none" font-family="Arial" font-size="24px" font-style="normal" font-weight="normal" text-decoration="none" x="600" y="570">UNREGISTERED</text><text fill="#eeeeee" stroke="none" font-family="Arial" font-size="24px" font-style="normal" font-weight="normal" text-decoration="none" x="600" y="600">UNREGISTERED</text><text fill="#eeeeee" stroke="none" font-family="Arial" font-size="24px" font-style="normal" font-weight="normal" text-decoration="none" x="600" y="630">UNREGISTERED</text><text fill="#eeeeee" stroke="none" font-family="Arial" font-size="24px" font-style="normal" font-weight="normal" text-decoration="none" x="600" y="660">UNREGISTERED</text><text fill="#eeeeee" stroke="none" font-family="Arial" font-size="24px" font-style="normal" font-weight="normal" text-decoration="none" x="600" y="690">UNREGISTERED</text><text fill="#eeeeee" stroke="none" font-family="Arial" font-size="24px" font-style="normal" font-weight="normal" text-decoration="none" x="600" y="720">UNREGISTERED</text><text fill="#eeeeee" stroke="none" font-family="Arial" font-size="24px" font-style="normal" font-weight="normal" text-decoration="none" x="800" y="0">UNREGISTERED</text><text fill="#eeeeee" stroke="none" font-family="Arial" font-size="24px" font-style="normal" font-weight="normal" text-decoration="none" x="800" y="30">UNREGISTERED</text><text fill="#eeeeee" stroke="none" font-family="Arial" font-size="24px" font-style="normal" font-weight="normal" text-decoration="none" x="800" y="60">UNREGISTERED</text><text fill="#eeeeee" stroke="none" font-family="Arial" font-size="24px" font-style="normal" font-weight="normal" text-decoration="none" x="800" y="90">UNREGISTERED</text><text fill="#eeeeee" stroke="none" font-family="Arial" font-size="24px" font-style="normal" font-weight="normal" text-decoration="none" x="800" y="120">UNREGISTERED</text><text fill="#eeeeee" stroke="none" font-family="Arial" font-size="24px" font-style="normal" font-weight="normal" text-decoration="none" x="800" y="150">UNREGISTERED</text><text fill="#eeeeee" stroke="none" font-family="Arial" font-size="24px" font-style="normal" font-weight="normal" text-decoration="none" x="800" y="180">UNREGISTERED</text><text fill="#eeeeee" stroke="none" font-family="Arial" font-size="24px" font-style="normal" font-weight="normal" text-decoration="none" x="800" y="210">UNREGISTERED</text><text fill="#eeeeee" stroke="none" font-family="Arial" font-size="24px" font-style="normal" font-weight="normal" text-decoration="none" x="800" y="240">UNREGISTERED</text><text fill="#eeeeee" stroke="none" font-family="Arial" font-size="24px" font-style="normal" font-weight="normal" text-decoration="none" x="800" y="270">UNREGISTERED</text><text fill="#eeeeee" stroke="none" font-family="Arial" font-size="24px" font-style="normal" font-weight="normal" text-decoration="none" x="800" y="300">UNREGISTERED</text><text fill="#eeeeee" stroke="none" font-family="Arial" font-size="24px" font-style="normal" font-weight="normal" text-decoration="none" x="800" y="330">UNREGISTERED</text><text fill="#eeeeee" stroke="none" font-family="Arial" font-size="24px" font-style="normal" font-weight="normal" text-decoration="none" x="800" y="360">UNREGISTERED</text><text fill="#eeeeee" stroke="none" font-family="Arial" font-size="24px" font-style="normal" font-weight="normal" text-decoration="none" x="800" y="390">UNREGISTERED</text><text fill="#eeeeee" stroke="none" font-family="Arial" font-size="24px" font-style="normal" font-weight="normal" text-decoration="none" x="800" y="420">UNREGISTERED</text><text fill="#eeeeee" stroke="none" font-family="Arial" font-size="24px" font-style="normal" font-weight="normal" text-decoration="none" x="800" y="450">UNREGISTERED</text><text fill="#eeeeee" stroke="none" font-family="Arial" font-size="24px" font-style="normal" font-weight="normal" text-decoration="none" x="800" y="480">UNREGISTERED</text><text fill="#eeeeee" stroke="none" font-family="Arial" font-size="24px" font-style="normal" font-weight="normal" text-decoration="none" x="800" y="510">UNREGISTERED</text><text fill="#eeeeee" stroke="none" font-family="Arial" font-size="24px" font-style="normal" font-weight="normal" text-decoration="none" x="800" y="540">UNREGISTERED</text><text fill="#eeeeee" stroke="none" font-family="Arial" font-size="24px" font-style="normal" font-weight="normal" text-decoration="none" x="800" y="570">UNREGISTERED</text><text fill="#eeeeee" stroke="none" font-family="Arial" font-size="24px" font-style="normal" font-weight="normal" text-decoration="none" x="800" y="600">UNREGISTERED</text><text fill="#eeeeee" stroke="none" font-family="Arial" font-size="24px" font-style="normal" font-weight="normal" text-decoration="none" x="800" y="630">UNREGISTERED</text><text fill="#eeeeee" stroke="none" font-family="Arial" font-size="24px" font-style="normal" font-weight="normal" text-decoration="none" x="800" y="660">UNREGISTERED</text><text fill="#eeeeee" stroke="none" font-family="Arial" font-size="24px" font-style="normal" font-weight="normal" text-decoration="none" x="800" y="690">UNREGISTERED</text><text fill="#eeeeee" stroke="none" font-family="Arial" font-size="24px" font-style="normal" font-weight="normal" text-decoration="none" x="800" y="720">UNREGISTERED</text><text fill="#eeeeee" stroke="none" font-family="Arial" font-size="24px" font-style="normal" font-weight="normal" text-decoration="none" x="1000" y="0">UNREGISTERED</text><text fill="#eeeeee" stroke="none" font-family="Arial" font-size="24px" font-style="normal" font-weight="normal" text-decoration="none" x="1000" y="30">UNREGISTERED</text><text fill="#eeeeee" stroke="none" font-family="Arial" font-size="24px" font-style="normal" font-weight="normal" text-decoration="none" x="1000" y="60">UNREGISTERED</text><text fill="#eeeeee" stroke="none" font-family="Arial" font-size="24px" font-style="normal" font-weight="normal" text-decoration="none" x="1000" y="90">UNREGISTERED</text><text fill="#eeeeee" stroke="none" font-family="Arial" font-size="24px" font-style="normal" font-weight="normal" text-decoration="none" x="1000" y="120">UNREGISTERED</text><text fill="#eeeeee" stroke="none" font-family="Arial" font-size="24px" font-style="normal" font-weight="normal" text-decoration="none" x="1000" y="150">UNREGISTERED</text><text fill="#eeeeee" stroke="none" font-family="Arial" font-size="24px" font-style="normal" font-weight="normal" text-decoration="none" x="1000" y="180">UNREGISTERED</text><text fill="#eeeeee" stroke="none" font-family="Arial" font-size="24px" font-style="normal" font-weight="normal" text-decoration="none" x="1000" y="210">UNREGISTERED</text><text fill="#eeeeee" stroke="none" font-family="Arial" font-size="24px" font-style="normal" font-weight="normal" text-decoration="none" x="1000" y="240">UNREGISTERED</text><text fill="#eeeeee" stroke="none" font-family="Arial" font-size="24px" font-style="normal" font-weight="normal" text-decoration="none" x="1000" y="270">UNREGISTERED</text><text fill="#eeeeee" stroke="none" font-family="Arial" font-size="24px" font-style="normal" font-weight="normal" text-decoration="none" x="1000" y="300">UNREGISTERED</text><text fill="#eeeeee" stroke="none" font-family="Arial" font-size="24px" font-style="normal" font-weight="normal" text-decoration="none" x="1000" y="330">UNREGISTERED</text><text fill="#eeeeee" stroke="none" font-family="Arial" font-size="24px" font-style="normal" font-weight="normal" text-decoration="none" x="1000" y="360">UNREGISTERED</text><text fill="#eeeeee" stroke="none" font-family="Arial" font-size="24px" font-style="normal" font-weight="normal" text-decoration="none" x="1000" y="390">UNREGISTERED</text><text fill="#eeeeee" stroke="none" font-family="Arial" font-size="24px" font-style="normal" font-weight="normal" text-decoration="none" x="1000" y="420">UNREGISTERED</text><text fill="#eeeeee" stroke="none" font-family="Arial" font-size="24px" font-style="normal" font-weight="normal" text-decoration="none" x="1000" y="450">UNREGISTERED</text><text fill="#eeeeee" stroke="none" font-family="Arial" font-size="24px" font-style="normal" font-weight="normal" text-decoration="none" x="1000" y="480">UNREGISTERED</text><text fill="#eeeeee" stroke="none" font-family="Arial" font-size="24px" font-style="normal" font-weight="normal" text-decoration="none" x="1000" y="510">UNREGISTERED</text><text fill="#eeeeee" stroke="none" font-family="Arial" font-size="24px" font-style="normal" font-weight="normal" text-decoration="none" x="1000" y="540">UNREGISTERED</text><text fill="#eeeeee" stroke="none" font-family="Arial" font-size="24px" font-style="normal" font-weight="normal" text-decoration="none" x="1000" y="570">UNREGISTERED</text><text fill="#eeeeee" stroke="none" font-family="Arial" font-size="24px" font-style="normal" font-weight="normal" text-decoration="none" x="1000" y="600">UNREGISTERED</text><text fill="#eeeeee" stroke="none" font-family="Arial" font-size="24px" font-style="normal" font-weight="normal" text-decoration="none" x="1000" y="630">UNREGISTERED</text><text fill="#eeeeee" stroke="none" font-family="Arial" font-size="24px" font-style="normal" font-weight="normal" text-decoration="none" x="1000" y="660">UNREGISTERED</text><text fill="#eeeeee" stroke="none" font-family="Arial" font-size="24px" font-style="normal" font-weight="normal" text-decoration="none" x="1000" y="690">UNREGISTERED</text><text fill="#eeeeee" stroke="none" font-family="Arial" font-size="24px" font-style="normal" font-weight="normal" text-decoration="none" x="1000" y="720">UNREGISTERED</text><text fill="#eeeeee" stroke="none" font-family="Arial" font-size="24px" font-style="normal" font-weight="normal" text-decoration="none" x="1200" y="0">UNREGISTERED</text><text fill="#eeeeee" stroke="none" font-family="Arial" font-size="24px" font-style="normal" font-weight="normal" text-decoration="none" x="1200" y="30">UNREGISTERED</text><text fill="#eeeeee" stroke="none" font-family="Arial" font-size="24px" font-style="normal" font-weight="normal" text-decoration="none" x="1200" y="60">UNREGISTERED</text><text fill="#eeeeee" stroke="none" font-family="Arial" font-size="24px" font-style="normal" font-weight="normal" text-decoration="none" x="1200" y="90">UNREGISTERED</text><text fill="#eeeeee" stroke="none" font-family="Arial" font-size="24px" font-style="normal" font-weight="normal" text-decoration="none" x="1200" y="120">UNREGISTERED</text><text fill="#eeeeee" stroke="none" font-family="Arial" font-size="24px" font-style="normal" font-weight="normal" text-decoration="none" x="1200" y="150">UNREGISTERED</text><text fill="#eeeeee" stroke="none" font-family="Arial" font-size="24px" font-style="normal" font-weight="normal" text-decoration="none" x="1200" y="180">UNREGISTERED</text><text fill="#eeeeee" stroke="none" font-family="Arial" font-size="24px" font-style="normal" font-weight="normal" text-decoration="none" x="1200" y="210">UNREGISTERED</text><text fill="#eeeeee" stroke="none" font-family="Arial" font-size="24px" font-style="normal" font-weight="normal" text-decoration="none" x="1200" y="240">UNREGISTERED</text><text fill="#eeeeee" stroke="none" font-family="Arial" font-size="24px" font-style="normal" font-weight="normal" text-decoration="none" x="1200" y="270">UNREGISTERED</text><text fill="#eeeeee" stroke="none" font-family="Arial" font-size="24px" font-style="normal" font-weight="normal" text-decoration="none" x="1200" y="300">UNREGISTERED</text><text fill="#eeeeee" stroke="none" font-family="Arial" font-size="24px" font-style="normal" font-weight="normal" text-decoration="none" x="1200" y="330">UNREGISTERED</text><text fill="#eeeeee" stroke="none" font-family="Arial" font-size="24px" font-style="normal" font-weight="normal" text-decoration="none" x="1200" y="360">UNREGISTERED</text><text fill="#eeeeee" stroke="none" font-family="Arial" font-size="24px" font-style="normal" font-weight="normal" text-decoration="none" x="1200" y="390">UNREGISTERED</text><text fill="#eeeeee" stroke="none" font-family="Arial" font-size="24px" font-style="normal" font-weight="normal" text-decoration="none" x="1200" y="420">UNREGISTERED</text><text fill="#eeeeee" stroke="none" font-family="Arial" font-size="24px" font-style="normal" font-weight="normal" text-decoration="none" x="1200" y="450">UNREGISTERED</text><text fill="#eeeeee" stroke="none" font-family="Arial" font-size="24px" font-style="normal" font-weight="normal" text-decoration="none" x="1200" y="480">UNREGISTERED</text><text fill="#eeeeee" stroke="none" font-family="Arial" font-size="24px" font-style="normal" font-weight="normal" text-decoration="none" x="1200" y="510">UNREGISTERED</text><text fill="#eeeeee" stroke="none" font-family="Arial" font-size="24px" font-style="normal" font-weight="normal" text-decoration="none" x="1200" y="540">UNREGISTERED</text><text fill="#eeeeee" stroke="none" font-family="Arial" font-size="24px" font-style="normal" font-weight="normal" text-decoration="none" x="1200" y="570">UNREGISTERED</text><text fill="#eeeeee" stroke="none" font-family="Arial" font-size="24px" font-style="normal" font-weight="normal" text-decoration="none" x="1200" y="600">UNREGISTERED</text><text fill="#eeeeee" stroke="none" font-family="Arial" font-size="24px" font-style="normal" font-weight="normal" text-decoration="none" x="1200" y="630">UNREGISTERED</text><text fill="#eeeeee" stroke="none" font-family="Arial" font-size="24px" font-style="normal" font-weight="normal" text-decoration="none" x="1200" y="660">UNREGISTERED</text><text fill="#eeeeee" stroke="none" font-family="Arial" font-size="24px" font-style="normal" font-weight="normal" text-decoration="none" x="1200" y="690">UNREGISTERED</text><text fill="#eeeeee" stroke="none" font-family="Arial" font-size="24px" font-style="normal" font-weight="normal" text-decoration="none" x="1200" y="720">UNREGISTERED</text><g transform="translate(10,10) scale(1,1)"><path fill="none" stroke="#000000" d="M 0 0 L 1200 0 L 1200 712 L 0 712 L 0 0" stroke-miterlimit="10"/></g><g transform="translate(10,10) scale(1,1)"><path fill="#ffffff" stroke="none" d="M 0 0 L 0 22 L 128.01708984375 22 L 139.01708984375 11 L 139.01708984375 0 L 0 0"/></g><g transform="translate(10,10) scale(1,1)"><path fill="none" stroke="#000000" d="M 0 0 L 0 22 L 128.01708984375 22 L 139.01708984375 11 L 139.01708984375 0 L 0 0 L 0 0" stroke-miterlimit="10"/></g><g transform="translate(10,10) scale(1,1)"><g><path fill="none" stroke="none"/><text fill="#000000" stroke="none" font-family="Arial" font-size="13px" font-style="normal" font-weight="normal" text-decoration="none" x="24.72998046875" y="16">Ordem de Venda</text></g></g><g transform="translate(10,10) scale(1,1)"><g><path fill="none" stroke="none"/><text fill="#000000" stroke="none" font-family="Arial" font-size="13px" font-style="normal" font-weight="bold" text-decoration="none" x="4.279541015625" y="16">sd</text></g></g><g transform="translate(10,10) scale(1,1)"><path fill="#ffffff" stroke="none" d="M 242.8631454190341 47.3 C 242.8631454190341 43.82060576 245.74154714121593 41 249.29223632812503 41 C 252.84292551503412 41 255.72132723721595 43.82060576 255.72132723721595 47.3 C 255.72132723721595 50.779394239999995 252.84292551503412 53.6 249.29223632812503 53.6 C 245.74154714121593 53.6 242.8631454190341 50.779394239999995 242.8631454190341 47.3 Z"/></g><g transform="translate(10,10) scale(1,1)"><path fill="none" stroke="#000000" d="M 242.8631454190341 47.3 C 242.8631454190341 43.82060576 245.74154714121593 41 249.29223632812503 41 C 252.84292551503412 41 255.72132723721595 43.82060576 255.72132723721595 47.3 C 255.72132723721595 50.779394239999995 252.84292551503412 53.6 249.29223632812503 53.6 C 245.74154714121593 53.6 242.8631454190341 50.779394239999995 242.8631454190341 47.3 Z" stroke-miterlimit="10"/></g><g transform="translate(10,10) scale(1,1)"><path fill="none" stroke="#000000" d="M 249.29223632812503 53.6 L 249.29223632812503 66.4" stroke-miterlimit="10"/></g><g transform="translate(10,10) scale(1,1)"><path fill="none" stroke="#000000" d="M 242.4849636008523 58.4 L 256.0995090553978 58.4" stroke-miterlimit="10"/></g><g transform="translate(10,10) scale(1,1)"><path fill="none" stroke="#000000" d="M 249.29223632812503 66.4 L 239.83769087357956 79" stroke-miterlimit="10"/></g><g transform="translate(10,10) scale(1,1)"><path fill="none" stroke="#000000" d="M 249.29223632812503 66.4 L 258.7467817826705 79" stroke-miterlimit="10"/></g><g transform="translate(10,10) scale(1,1)"><g><path fill="none" stroke="none"/><text fill="#000000" stroke="none" font-family="Arial" font-size="13px" font-style="normal" font-weight="bold" text-decoration="none" x="204.5" y="98">Lifeline2: User</text></g></g><g transform="translate(10,10) scale(1,1)"><path fill="none" stroke="#000000" d="M 250.5 105 L 250.5 590" stroke-miterlimit="10" stroke-dasharray="3"/></g><g transform="translate(10,10) scale(1,1)"><rect fill="#C0C0C0" stroke="none" x="535" y="47" width="193.0908203125" height="39" opacity="0.2"/></g><g transform="translate(10,10) scale(1,1)"><rect fill="#ffffff" stroke="none" x="528" y="40" width="193.0908203125" height="39"/></g><g transform="translate(10,10) scale(1,1)"><path fill="none" stroke="#000000" d="M 528 40 L 721.0908203125 40 L 721.0908203125 79 L 528 79 L 528 40 Z Z" stroke-miterlimit="10"/></g><g transform="translate(10,10) scale(1,1)"><g><path fill="none" stroke="none"/><text fill="#000000" stroke="none" font-family="Arial" font-size="13px" font-style="normal" font-weight="bold" text-decoration="none" x="537.5" y="58">Lifeline3: Ordem de Compra</text></g></g><g transform="translate(10,10) scale(1,1)"><path fill="none" stroke="#000000" d="M 625.5 80 L 625.5 666" stroke-miterlimit="10" stroke-dasharray="3"/></g><g transform="translate(10,10) scale(1,1)"><path fill="#ffffff" stroke="none" d="M 919.718614169034 47.3 C 919.718614169034 43.82060576 922.597015891216 41 926.147705078125 41 C 929.698394265034 41 932.5767959872159 43.82060576 932.5767959872159 47.3 C 932.5767959872159 50.779394239999995 929.698394265034 53.6 926.147705078125 53.6 C 922.597015891216 53.6 919.718614169034 50.779394239999995 919.718614169034 47.3 Z"/></g><g transform="translate(10,10) scale(1,1)"><path fill="none" stroke="#000000" d="M 919.718614169034 47.3 C 919.718614169034 43.82060576 922.597015891216 41 926.147705078125 41 C 929.698394265034 41 932.5767959872159 43.82060576 932.5767959872159 47.3 C 932.5767959872159 50.779394239999995 929.698394265034 53.6 926.147705078125 53.6 C 922.597015891216 53.6 919.718614169034 50.779394239999995 919.718614169034 47.3 Z" stroke-miterlimit="10"/></g><g transform="translate(10,10) scale(1,1)"><path fill="none" stroke="#000000" d="M 926.147705078125 53.6 L 926.147705078125 66.4" stroke-miterlimit="10"/></g><g transform="translate(10,10) scale(1,1)"><path fill="none" stroke="#000000" d="M 919.3404323508522 58.4 L 932.9549778053977 58.4" stroke-miterlimit="10"/></g><g transform="translate(10,10) scale(1,1)"><path fill="none" stroke="#000000" d="M 926.147705078125 66.4 L 916.6931596235795 79" stroke-miterlimit="10"/></g><g transform="translate(10,10) scale(1,1)"><path fill="none" stroke="#000000" d="M 926.147705078125 66.4 L 935.6022505326704 79" stroke-miterlimit="10"/></g><g transform="translate(10,10) scale(1,1)"><g><path fill="none" stroke="none"/><text fill="#000000" stroke="none" font-family="Arial" font-size="13px" font-style="normal" font-weight="bold" text-decoration="none" x="887.5" y="98">Lifeline1: B3</text></g></g><g transform="translate(10,10) scale(1,1)"><path fill="none" stroke="#000000" d="M 927.5 105 L 927.5 650" stroke-miterlimit="10" stroke-dasharray="3"/></g><g transform="translate(10,10) scale(1,1)"><path fill="none" stroke="#000000" d="M 250 189 L 618 189" stroke-miterlimit="10"/></g><g transform="translate(10,10) scale(1,1)"><path fill="#000000" stroke="none" d="M 607.8373251423759 193.209517756016 L 618 189 L 607.8373251423758 184.790482243984"/></g><g transform="translate(10,10) scale(1,1)"><path fill="none" stroke="#000000" d="M 607.8373251423759 193.209517756016 L 618 189 L 607.8373251423758 184.790482243984 L 607.8373251423759 193.209517756016" stroke-miterlimit="10"/></g><g transform="translate(10,10) scale(1,1)"><g><path fill="none" stroke="none"/><text fill="#000000" stroke="none" font-family="Arial" font-size="13px" font-style="normal" font-weight="normal" text-decoration="none" x="384.5" y="184">1 : EnviaOrdem()</text></g></g><g transform="translate(10,10) scale(1,1)"><rect fill="#ffffff" stroke="none" x="618" y="189" width="13" height="28"/></g><g transform="translate(10,10) scale(1,1)"><path fill="none" stroke="#000000" d="M 618 189 L 631 189 L 631 217 L 618 217 L 618 189 Z Z" stroke-miterlimit="10"/></g><g transform="translate(10,10) scale(1,1)"><path fill="none" stroke="#000000" d="M 625 232 L 655 232 L 655 252 L 631 252" stroke-miterlimit="10"/></g><g transform="translate(10,10) scale(1,1)"><path fill="#000000" stroke="none" d="M 641.1626748576241 247.790482243984 L 631 252 L 641.1626748576241 256.209517756016"/></g><g transform="translate(10,10) scale(1,1)"><path fill="none" stroke="#000000" d="M 641.1626748576241 247.790482243984 L 631 252 L 641.1626748576241 256.209517756016 L 641.1626748576241 247.790482243984" stroke-miterlimit="10"/></g><g transform="translate(10,10) scale(1,1)"><g><path fill="none" stroke="none"/><text fill="#000000" stroke="none" font-family="Arial" font-size="13px" font-style="normal" font-weight="normal" text-decoration="none" x="676.486328125" y="246">2 : VerificaSaldo()</text></g></g><g transform="translate(10,10) scale(1,1)"><rect fill="#ffffff" stroke="none" x="618" y="252" width="13" height="28"/></g><g transform="translate(10,10) scale(1,1)"><path fill="none" stroke="#000000" d="M 618 252 L 631 252 L 631 280 L 618 280 L 618 252 Z Z" stroke-miterlimit="10"/></g><g transform="translate(10,10) scale(1,1)"><path fill="none" stroke="#000000" d="M 625 320 L 920 320" stroke-miterlimit="10"/></g><g transform="translate(10,10) scale(1,1)"><path fill="#000000" stroke="none" d="M 909.8373251423759 324.209517756016 L 920 320 L 909.8373251423758 315.790482243984"/></g><g transform="translate(10,10) scale(1,1)"><path fill="none" stroke="#000000" d="M 909.8373251423759 324.209517756016 L 920 320 L 909.8373251423758 315.790482243984 L 909.8373251423759 324.209517756016" stroke-miterlimit="10"/></g><g transform="translate(10,10) scale(1,1)"><g><path fill="none" stroke="none"/><text fill="#000000" stroke="none" font-family="Arial" font-size="13px" font-style="normal" font-weight="normal" text-decoration="none" x="722.5" y="315">3 : EnviaOrdem()</text></g></g><g transform="translate(10,10) scale(1,1)"><rect fill="#ffffff" stroke="none" x="920" y="320" width="13" height="28"/></g><g transform="translate(10,10) scale(1,1)"><path fill="none" stroke="#000000" d="M 920 320 L 933 320 L 933 348 L 920 348 L 920 320 Z Z" stroke-miterlimit="10"/></g><g transform="translate(10,10) scale(1,1)"><path fill="none" stroke="#000000" d="M 920 346 L 631 346" stroke-miterlimit="10"/></g><g transform="translate(10,10) scale(1,1)"><path fill="#000000" stroke="none" d="M 641.1626748576241 341.790482243984 L 631 346 L 641.1626748576241 350.209517756016"/></g><g transform="translate(10,10) scale(1,1)"><path fill="none" stroke="#000000" d="M 641.1626748576241 341.790482243984 L 631 346 L 641.1626748576241 350.209517756016 L 641.1626748576241 341.790482243984" stroke-miterlimit="10"/></g><g transform="translate(10,10) scale(1,1)"><g><path fill="none" stroke="none"/><text fill="#000000" stroke="none" font-family="Arial" font-size="13px" font-style="normal" font-weight="normal" text-decoration="none" x="707.5" y="361">4 : EnviaConfirmacao()</text></g></g><g transform="translate(10,10) scale(1,1)"><rect fill="#ffffff" stroke="none" x="618" y="346" width="13" height="28"/></g><g transform="translate(10,10) scale(1,1)"><path fill="none" stroke="#000000" d="M 618 346 L 631 346 L 631 374 L 618 374 L 618 346 Z Z" stroke-miterlimit="10"/></g><g transform="translate(10,10) scale(1,1)"><path fill="none" stroke="#000000" d="M 625 384 L 256 384" stroke-miterlimit="10"/></g><g transform="translate(10,10) scale(1,1)"><path fill="#000000" stroke="none" d="M 266.16267485762415 379.790482243984 L 256 384 L 266.16267485762415 388.209517756016"/></g><g transform="translate(10,10) scale(1,1)"><path fill="none" stroke="#000000" d="M 266.16267485762415 379.790482243984 L 256 384 L 266.16267485762415 388.209517756016 L 266.16267485762415 379.790482243984" stroke-miterlimit="10"/></g><g transform="translate(10,10) scale(1,1)"><g><path fill="none" stroke="none"/><text fill="#000000" stroke="none" font-family="Arial" font-size="13px" font-style="normal" font-weight="normal" text-decoration="none" x="384.5" y="399">5 : RetornaStatus()</text></g></g><g transform="translate(10,10) scale(1,1)"><rect fill="#ffffff" stroke="none" x="243" y="384" width="13" height="55"/></g><g transform="translate(10,10) scale(1,1)"><path fill="none" stroke="#000000" d="M 243 384 L 256 384 L 256 439 L 243 439 L 243 384 Z Z" stroke-miterlimit="10"/></g><g transform="translate(10,10) scale(1,1)"><path fill="none" stroke="#000000" d="M 625 453 L 256 453" stroke-miterlimit="10"/></g><g transform="translate(10,10) scale(1,1)"><path fill="#000000" stroke="none" d="M 266.16267485762415 448.790482243984 L 256 453 L 266.16267485762415 457.209517756016"/></g><g transform="translate(10,10) scale(1,1)"><path fill="none" stroke="#000000" d="M 266.16267485762415 448.790482243984 L 256 453 L 266.16267485762415 457.209517756016 L 266.16267485762415 448.790482243984" stroke-miterlimit="10"/></g><g transform="translate(10,10) scale(1,1)"><g><path fill="none" stroke="none"/><text fill="#000000" stroke="none" font-family="Arial" font-size="13px" font-style="normal" font-weight="normal" text-decoration="none" x="384.5" y="468">6 : RetornaStatus()</text></g></g><g transform="translate(10,10) scale(1,1)"><rect fill="#ffffff" stroke="none" x="243" y="453" width="13" height="28"/></g><g transform="translate(10,10) scale(1,1)"><path fill="none" stroke="#000000" d="M 243 453 L 256 453 L 256 481 L 243 481 L 243 453 Z Z" stroke-miterlimit="10"/></g><g transform="translate(10,10) scale(1,1)"><path fill="none" stroke="#000000" d="M 625 552 L 256 552" stroke-miterlimit="10"/></g><g transform="translate(10,10) scale(1,1)"><path fill="#000000" stroke="none" d="M 266.16267485762415 547.790482243984 L 256 552 L 266.16267485762415 556.209517756016"/></g><g transform="translate(10,10) scale(1,1)"><path fill="none" stroke="#000000" d="M 266.16267485762415 547.790482243984 L 256 552 L 266.16267485762415 556.209517756016 L 266.16267485762415 547.790482243984" stroke-miterlimit="10"/></g><g transform="translate(10,10) scale(1,1)"><g><path fill="none" stroke="none"/><text fill="#000000" stroke="none" font-family="Arial" font-size="13px" font-style="normal" font-weight="normal" text-decoration="none" x="384.5" y="567">7 : RetornaStatus()</text></g></g><g transform="translate(10,10) scale(1,1)"><rect fill="#ffffff" stroke="none" x="243" y="552" width="13" height="40"/></g><g transform="translate(10,10) scale(1,1)"><path fill="none" stroke="#000000" d="M 243 552 L 256 552 L 256 592 L 243 592 L 243 552 Z Z" stroke-miterlimit="10"/></g><g transform="translate(10,10) scale(1,1)"><path fill="none" stroke="#000000" d="M 625 576 L 920 576" stroke-miterlimit="10"/></g><g transform="translate(10,10) scale(1,1)"><path fill="#000000" stroke="none" d="M 909.8373251423759 580.209517756016 L 920 576 L 909.8373251423758 571.790482243984"/></g><g transform="translate(10,10) scale(1,1)"><path fill="none" stroke="#000000" d="M 909.8373251423759 580.209517756016 L 920 576 L 909.8373251423758 571.790482243984 L 909.8373251423759 580.209517756016" stroke-miterlimit="10"/></g><g transform="translate(10,10) scale(1,1)"><g><path fill="none" stroke="none"/><text fill="#000000" stroke="none" font-family="Arial" font-size="13px" font-style="normal" font-weight="normal" text-decoration="none" x="722.5" y="571">8 : EnviaOrdem()</text></g></g><g transform="translate(10,10) scale(1,1)"><rect fill="#ffffff" stroke="none" x="920" y="576" width="13" height="28"/></g><g transform="translate(10,10) scale(1,1)"><path fill="none" stroke="#000000" d="M 920 576 L 933 576 L 933 604 L 920 604 L 920 576 Z Z" stroke-miterlimit="10"/></g><g transform="translate(10,10) scale(1,1)"><path fill="none" stroke="#000000" d="M 927 624 L 631 624" stroke-miterlimit="10"/></g><g transform="translate(10,10) scale(1,1)"><path fill="#000000" stroke="none" d="M 641.1626748576241 619.790482243984 L 631 624 L 641.1626748576241 628.209517756016"/></g><g transform="translate(10,10) scale(1,1)"><path fill="none" stroke="#000000" d="M 641.1626748576241 619.790482243984 L 631 624 L 641.1626748576241 628.209517756016 L 641.1626748576241 619.790482243984" stroke-miterlimit="10"/></g><g transform="translate(10,10) scale(1,1)"><g><path fill="none" stroke="none"/><text fill="#000000" stroke="none" font-family="Arial" font-size="13px" font-style="normal" font-weight="normal" text-decoration="none" x="706.5" y="639">9 : EnviaCancelamento()</text></g></g><g transform="translate(10,10) scale(1,1)"><rect fill="#ffffff" stroke="none" x="618" y="624" width="13" height="28"/></g><g transform="translate(10,10) scale(1,1)"><path fill="none" stroke="#000000" d="M 618 624 L 631 624 L 631 652 L 618 652 L 618 624 Z Z" stroke-miterlimit="10"/></g><g transform="translate(10,10) scale(1,1)"><path fill="none" stroke="#000000" d="M 16 288 L 1136 288 L 1136 672 L 16 672 L 16 288" stroke-miterlimit="10"/></g><g transform="translate(10,10) scale(1,1)"><path fill="#ffffff" stroke="none" d="M 16 288 L 16 310 L 175.076171875 310 L 186.076171875 299 L 186.076171875 288 L 16 288"/></g><g transform="translate(10,10) scale(1,1)"><path fill="none" stroke="#000000" d="M 16 288 L 16 310 L 175.076171875 310 L 186.076171875 299 L 186.076171875 288 L 16 288 L 16 288" stroke-miterlimit="10"/></g><g transform="translate(10,10) scale(1,1)"><g><path fill="none" stroke="none"/><text fill="#000000" stroke="none" font-family="Arial" font-size="13px" font-style="normal" font-weight="normal" text-decoration="none" x="47.9599609375" y="304">CombinedFragment1</text></g></g><g transform="translate(10,10) scale(1,1)"><g><path fill="none" stroke="none"/><text fill="#000000" stroke="none" font-family="Arial" font-size="13px" font-style="normal" font-weight="bold" text-decoration="none" x="20.279541015625" y="302.5">seq</text></g></g><g transform="translate(10,10) scale(1,1)"><g><path fill="none" stroke="none"/><text fill="#000000" stroke="none" font-family="Arial" font-size="13px" font-style="normal" font-weight="normal" text-decoration="none" x="35.5" y="337">[Se aceito]</text></g></g><g transform="translate(10,10) scale(1,1)"><path fill="none" stroke="#000000" d="M 16 433 L 1136 433" stroke-miterlimit="10" stroke-dasharray="10,3"/></g><g transform="translate(10,10) scale(1,1)"><g><path fill="none" stroke="none"/><text fill="#000000" stroke="none" font-family="Arial" font-size="13px" font-style="normal" font-weight="normal" text-decoration="none" x="35.5" y="459">[se recusado]</text></g></g><g transform="translate(10,10) scale(1,1)"><path fill="none" stroke="#000000" d="M 16 537 L 1136 537" stroke-miterlimit="10" stroke-dasharray="10,3"/></g><g transform="translate(10,10) scale(1,1)"><g><path fill="none" stroke="none"/><text fill="#000000" stroke="none" font-family="Arial" font-size="13px" font-style="normal" font-weight="normal" text-decoration="none" x="35.5" y="563">[Se recusado pela B3]</text></g></g></g></svg>