<svg version="1.1" xmlns="http://www.w3.org/2000/svg" xmlns:xlink="http://www.w3.org/1999/xlink" width="1067" height="557"><defs/><g><text fill="#eeeeee" stroke="none" font-family="Arial" font-size="24px" font-style="normal" font-weight="normal" text-decoration="none" x="0" y="0">UNREGISTERED</text><text fill="#eeeeee" stroke="none" font-family="Arial" font-size="24px" font-style="normal" font-weight="normal" text-decoration="none" x="0" y="30">UNREGISTERED</text><text fill="#eeeeee" stroke="none" font-family="Arial" font-size="24px" font-style="normal" font-weight="normal" text-decoration="none" x="0" y="60">UNREGISTERED</text><text fill="#eeeeee" stroke="none" font-family="Arial" font-size="24px" font-style="normal" font-weight="normal" text-decoration="none" x="0" y="90">UNREGISTERED</text><text fill="#eeeeee" stroke="none" font-family="Arial" font-size="24px" font-style="normal" font-weight="normal" text-decoration="none" x="0" y="120">UNREGISTERED</text><text fill="#eeeeee" stroke="none" font-family="Arial" font-size="24px" font-style="normal" font-weight="normal" text-decoration="none" x="0" y="150">UNREGISTERED</text><text fill="#eeeeee" stroke="none" font-family="Arial" font-size="24px" font-style="normal" font-weight="normal" text-decoration="none" x="0" y="180">UNREGISTERED</text><text fill="#eeeeee" stroke="none" font-family="Arial" font-size="24px" font-style="normal" font-weight="normal" text-decoration="none" x="0" y="210">UNREGISTERED</text><text fill="#eeeeee" stroke="none" font-family="Arial" font-size="24px" font-style="normal" font-weight="normal" text-decoration="none" x="0" y="240">UNREGISTERED</text><text fill="#eeeeee" stroke="none" font-family="Arial" font-size="24px" font-style="normal" font-weight="normal" text-decoration="none" x="0" y="270">UNREGISTERED</text><text fill="#eeeeee" stroke="none" font-family="Arial" font-size="24px" font-style="normal" font-weight="normal" text-decoration="none" x="0" y="300">UNREGISTERED</text><text fill="#eeeeee" stroke="none" font-family="Arial" font-size="24px" font-style="normal" font-weight="normal" text-decoration="none" x="0" y="330">UNREGISTERED</text><text fill="#eeeeee" stroke="none" font-family="Arial" font-size="24px" font-style="normal" font-weight="normal" text-decoration="none" x="0" y="360">UNREGISTERED</text><text fill="#eeeeee" stroke="none" font-family="Arial" font-size="24px" font-style="normal" font-weight="normal" text-decoration="none" x="0" y="390">UNREGISTERED</text><text fill="#eeeeee" stroke="none" font-family="Arial" font-size="24px" font-style="normal" font-weight="normal" text-decoration="none" x="0" y="420">UNREGISTERED</text><text fill="#eeeeee" stroke="none" font-family="Arial" font-size="24px" font-style="normal" font-weight="normal" text-decoration="none" x="0" y="450">UNREGISTERED</text><text fill="#eeeeee" stroke="none" font-family="Arial" font-size="24px" font-style="normal" font-weight="normal" text-decoration="none" x="0" y="480">UNREGISTERED</text><text fill="#eeeeee" stroke="none" font-family="Arial" font-size="24px" font-style="normal" font-weight="normal" text-decoration="none" x="0" y="510">UNREGISTERED</text><text fill="#eeeeee" stroke="none" font-family="Arial" font-size="24px" font-style="normal" font-weight="normal" text-decoration="none" x="0" y="540">UNREGISTERED</text><text fill="#eeeeee" stroke="none" font-family="Arial" font-size="24px" font-style="normal" font-weight="normal" text-decoration="none" x="200" y="0">UNREGISTERED</text><text fill="#eeeeee" stroke="none" font-family="Arial" font-size="24px" font-style="normal" font-weight="normal" text-decoration="none" x="200" y="30">UNREGISTERED</text><text fill="#eeeeee" stroke="none" font-family="Arial" font-size="24px" font-style="normal" font-weight="normal" text-decoration="none" x="200" y="60">UNREGISTERED</text><text fill="#eeeeee" stroke="none" font-family="Arial" font-size="24px" font-style="normal" font-weight="normal" text-decoration="none" x="200" y="90">UNREGISTERED</text><text fill="#eeeeee" stroke="none" font-family="Arial" font-size="24px" font-style="normal" font-weight="normal" text-decoration="none" x="200" y="120">UNREGISTERED</text><text fill="#eeeeee" stroke="none" font-family="Arial" font-size="24px" font-style="normal" font-weight="normal" text-decoration="none" x="200" y="150">UNREGISTERED</text><text fill="#eeeeee" stroke="none" font-family="Arial" font-size="24px" font-style="normal" font-weight="normal" text-decoration="none" x="200" y="180">UNREGISTERED</text><text fill="#eeeeee" stroke="none" font-family="Arial" font-size="24px" font-style="normal" font-weight="normal" text-decoration="none" x="200" y="210">UNREGISTERED</text><text fill="#eeeeee" stroke="none" font-family="Arial" font-size="24px" font-style="normal" font-weight="normal" text-decoration="none" x="200" y="240">UNREGISTERED</text><text fill="#eeeeee" stroke="none" font-family="Arial" font-size="24px" font-style="normal" font-weight="normal" text-decoration="none" x="200" y="270">UNREGISTERED</text><text fill="#eeeeee" stroke="none" font-family="Arial" font-size="24px" font-style="normal" font-weight="normal" text-decoration="none" x="200" y="300">UNREGISTERED</text><text fill="#eeeeee" stroke="none" font-family="Arial" font-size="24px" font-style="normal" font-weight="normal" text-decoration="none" x="200" y="330">UNREGISTERED</text><text fill="#eeeeee" stroke="none" font-family="Arial" font-size="24px" font-style="normal" font-weight="normal" text-decoration="none" x="200" y="360">UNREGISTERED</text><text fill="#eeeeee" stroke="none" font-family="Arial" font-size="24px" font-style="normal" font-weight="normal" text-decoration="none" x="200" y="390">UNREGISTERED</text><text fill="#eeeeee" stroke="none" font-family="Arial" font-size="24px" font-style="normal" font-weight="normal" text-decoration="none" x="200" y="420">UNREGISTERED</text><text fill="#eeeeee" stroke="none" font-family="Arial" font-size="24px" font-style="normal" font-weight="normal" text-decoration="none" x="200" y="450">UNREGISTERED</text><text fill="#eeeeee" stroke="none" font-family="Arial" font-size="24px" font-style="normal" font-weight="normal" text-decoration="none" x="200" y="480">UNREGISTERED</text><text fill="#eeeeee" stroke="none" font-family="Arial" font-size="24px" font-style="normal" font-weight="normal" text-decoration="none" x="200" y="510">UNREGISTERED</text><text fill="#eeeeee" stroke="none" font-family="Arial" font-size="24px" font-style="normal" font-weight="normal" text-decoration="none" x="200" y="540">UNREGISTERED</text><text fill="#eeeeee" stroke="none" font-family="Arial" font-size="24px" font-style="normal" font-weight="normal" text-decoration="none" x="400" y="0">UNREGISTERED</text><text fill="#eeeeee" stroke="none" font-family="Arial" font-size="24px" font-style="normal" font-weight="normal" text-decoration="none" x="400" y="30">UNREGISTERED</text><text fill="#eeeeee" stroke="none" font-family="Arial" font-size="24px" font-style="normal" font-weight="normal" text-decoration="none" x="400" y="60">UNREGISTERED</text><text fill="#eeeeee" stroke="none" font-family="Arial" font-size="24px" font-style="normal" font-weight="normal" text-decoration="none" x="400" y="90">UNREGISTERED</text><text fill="#eeeeee" stroke="none" font-family="Arial" font-size="24px" font-style="normal" font-weight="normal" text-decoration="none" x="400" y="120">UNREGISTERED</text><text fill="#eeeeee" stroke="none" font-family="Arial" font-size="24px" font-style="normal" font-weight="normal" text-decoration="none" x="400" y="150">UNREGISTERED</text><text fill="#eeeeee" stroke="none" font-family="Arial" font-size="24px" font-style="normal" font-weight="normal" text-decoration="none" x="400" y="180">UNREGISTERED</text><text fill="#eeeeee" stroke="none" font-family="Arial" font-size="24px" font-style="normal" font-weight="normal" text-decoration="none" x="400" y="210">UNREGISTERED</text><text fill="#eeeeee" stroke="none" font-family="Arial" font-size="24px" font-style="normal" font-weight="normal" text-decoration="none" x="400" y="240">UNREGISTERED</text><text fill="#eeeeee" stroke="none" font-family="Arial" font-size="24px" font-style="normal" font-weight="normal" text-decoration="none" x="400" y="270">UNREGISTERED</text><text fill="#eeeeee" stroke="none" font-family="Arial" font-size="24px" font-style="normal" font-weight="normal" text-decoration="none" x="400" y="300">UNREGISTERED</text><text fill="#eeeeee" stroke="none" font-family="Arial" font-size="24px" font-style="normal" font-weight="normal" text-decoration="none" x="400" y="330">UNREGISTERED</text><text fill="#eeeeee" stroke="none" font-family="Arial" font-size="24px" font-style="normal" font-weight="normal" text-decoration="none" x="400" y="360">UNREGISTERED</text><text fill="#eeeeee" stroke="none" font-family="Arial" font-size="24px" font-style="normal" font-weight="normal" text-decoration="none" x="400" y="390">UNREGISTERED</text><text fill="#eeeeee" stroke="none" font-family="Arial" font-size="24px" font-style="normal" font-weight="normal" text-decoration="none" x="400" y="420">UNREGISTERED</text><text fill="#eeeeee" stroke="none" font-family="Arial" font-size="24px" font-style="normal" font-weight="normal" text-decoration="none" x="400" y="450">UNREGISTERED</text><text fill="#eeeeee" stroke="none" font-family="Arial" font-size="24px" font-style="normal" font-weight="normal" text-decoration="none" x="400" y="480">UNREGISTERED</text><text fill="#eeeeee" stroke="none" font-family="Arial" font-size="24px" font-style="normal" font-weight="normal" text-decoration="none" x="400" y="510">UNREGISTERED</text><text fill="#eeeeee" stroke="none" font-family="Arial" font-size="24px" font-style="normal" font-weight="normal" text-decoration="none" x="400" y="540">UNREGISTERED</text><text fill="#eeeeee" stroke="none" font-family="Arial" font-size="24px" font-style="normal" font-weight="normal" text-decoration="none" x="600" y="0">UNREGISTERED</text><text fill="#eeeeee" stroke="none" font-family="Arial" font-size="24px" font-style="normal" font-weight="normal" text-decoration="none" x="600" y="30">UNREGISTERED</text><text fill="#eeeeee" stroke="none" font-family="Arial" font-size="24px" font-style="normal" font-weight="normal" text-decoration="none" x="600" y="60">UNREGISTERED</text><text fill="#eeeeee" stroke="none" font-family="Arial" font-size="24px" font-style="normal" font-weight="normal" text-decoration="none" x="600" y="90">UNREGISTERED</text><text fill="#eeeeee" stroke="none" font-family="Arial" font-size="24px" font-style="normal" font-weight="normal" text-decoration="none" x="600" y="120">UNREGISTERED</text><text fill="#eeeeee" stroke="none" font-family="Arial" font-size="24px" font-style="normal" font-weight="normal" text-decoration="none" x="600" y="150">UNREGISTERED</text><text fill="#eeeeee" stroke="none" font-family="Arial" font-size="24px" font-style="normal" font-weight="normal" text-decoration="none" x="600" y="180">UNREGISTERED</text><text fill="#eeeeee" stroke="none" font-family="Arial" font-size="24px" font-style="normal" font-weight="normal" text-decoration="none" x="600" y="210">UNREGISTERED</text><text fill="#eeeeee" stroke="none" font-family="Arial" font-size="24px" font-style="normal" font-weight="normal" text-decoration="none" x="600" y="240">UNREGISTERED</text><text fill="#eeeeee" stroke="none" font-family="Arial" font-size="24px" font-style="normal" font-weight="normal" text-decoration="none" x="600" y="270">UNREGISTERED</text><text fill="#eeeeee" stroke="none" font-family="Arial" font-size="24px" font-style="normal" font-weight="normal" text-decoration="none" x="600" y="300">UNREGISTERED</text><text fill="#eeeeee" stroke="none" font-family="Arial" font-size="24px" font-style="normal" font-weight="normal" text-decoration="none" x="600" y="330">UNREGISTERED</text><text fill="#eeeeee" stroke="none" font-family="Arial" font-size="24px" font-style="normal" font-weight="normal" text-decoration="none" x="600" y="360">UNREGISTERED</text><text fill="#eeeeee" stroke="none" font-family="Arial" font-size="24px" font-style="normal" font-weight="normal" text-decoration="none" x="600" y="390">UNREGISTERED</text><text fill="#eeeeee" stroke="none" font-family="Arial" font-size="24px" font-style="normal" font-weight="normal" text-decoration="none" x="600" y="420">UNREGISTERED</text><text fill="#eeeeee" stroke="none" font-family="Arial" font-size="24px" font-style="normal" font-weight="normal" text-decoration="none" x="600" y="450">UNREGISTERED</text><text fill="#eeeeee" stroke="none" font-family="Arial" font-size="24px" font-style="normal" font-weight="normal" text-decoration="none" x="600" y="480">UNREGISTERED</text><text fill="#eeeeee" stroke="none" font-family="Arial" font-size="24px" font-style="normal" font-weight="normal" text-decoration="none" x="600" y="510">UNREGISTERED</text><text fill="#eeeeee" stroke="none" font-family="Arial" font-size="24px" font-style="normal" font-weight="normal" text-decoration="none" x="600" y="540">UNREGISTERED</text><text fill="#eeeeee" stroke="none" font-family="Arial" font-size="24px" font-style="normal" font-weight="normal" text-decoration="none" x="800" y="0">UNREGISTERED</text><text fill="#eeeeee" stroke="none" font-family="Arial" font-size="24px" font-style="normal" font-weight="normal" text-decoration="none" x="800" y="30">UNREGISTERED</text><text fill="#eeeeee" stroke="none" font-family="Arial" font-size="24px" font-style="normal" font-weight="normal" text-decoration="none" x="800" y="60">UNREGISTERED</text><text fill="#eeeeee" stroke="none" font-family="Arial" font-size="24px" font-style="normal" font-weight="normal" text-decoration="none" x="800" y="90">UNREGISTERED</text><text fill="#eeeeee" stroke="none" font-family="Arial" font-size="24px" font-style="normal" font-weight="normal" text-decoration="none" x="800" y="120">UNREGISTERED</text><text fill="#eeeeee" stroke="none" font-family="Arial" font-size="24px" font-style="normal" font-weight="normal" text-decoration="none" x="800" y="150">UNREGISTERED</text><text fill="#eeeeee" stroke="none" font-family="Arial" font-size="24px" font-style="normal" font-weight="normal" text-decoration="none" x="800" y="180">UNREGISTERED</text><text fill="#eeeeee" stroke="none" font-family="Arial" font-size="24px" font-style="normal" font-weight="normal" text-decoration="none" x="800" y="210">UNREGISTERED</text><text fill="#eeeeee" stroke="none" font-family="Arial" font-size="24px" font-style="normal" font-weight="normal" text-decoration="none" x="800" y="240">UNREGISTERED</text><text fill="#eeeeee" stroke="none" font-family="Arial" font-size="24px" font-style="normal" font-weight="normal" text-decoration="none" x="800" y="270">UNREGISTERED</text><text fill="#eeeeee" stroke="none" font-family="Arial" font-size="24px" font-style="normal" font-weight="normal" text-decoration="none" x="800" y="300">UNREGISTERED</text><text fill="#eeeeee" stroke="none" font-family="Arial" font-size="24px" font-style="normal" font-weight="normal" text-decoration="none" x="800" y="330">UNREGISTERED</text><text fill="#eeeeee" stroke="none" font-family="Arial" font-size="24px" font-style="normal" font-weight="normal" text-decoration="none" x="800" y="360">UNREGISTERED</text><text fill="#eeeeee" stroke="none" font-family="Arial" font-size="24px" font-style="normal" font-weight="normal" text-decoration="none" x="800" y="390">UNREGISTERED</text><text fill="#eeeeee" stroke="none" font-family="Arial" font-size="24px" font-style="normal" font-weight="normal" text-decoration="none" x="800" y="420">UNREGISTERED</text><text fill="#eeeeee" stroke="none" font-family="Arial" font-size="24px" font-style="normal" font-weight="normal" text-decoration="none" x="800" y="450">UNREGISTERED</text><text fill="#eeeeee" stroke="none" font-family="Arial" font-size="24px" font-style="normal" font-weight="normal" text-decoration="none" x="800" y="480">UNREGISTERED</text><text fill="#eeeeee" stroke="none" font-family="Arial" font-size="24px" font-style="normal" font-weight="normal" text-decoration="none" x="800" y="510">UNREGISTERED</text><text fill="#eeeeee" stroke="none" font-family="Arial" font-size="24px" font-style="normal" font-weight="normal" text-decoration="none" x="800" y="540">UNREGISTERED</text><text fill="#eeeeee" stroke="none" font-family="Arial" font-size="24px" font-style="normal" font-weight="normal" text-decoration="none" x="1000" y="0">UNREGISTERED</text><text fill="#eeeeee" stroke="none" font-family="Arial" font-size="24px" font-style="normal" font-weight="normal" text-decoration="none" x="1000" y="30">UNREGISTERED</text><text fill="#eeeeee" stroke="none" font-family="Arial" font-size="24px" font-style="normal" font-weight="normal" text-decoration="none" x="1000" y="60">UNREGISTERED</text><text fill="#eeeeee" stroke="none" font-family="Arial" font-size="24px" font-style="normal" font-weight="normal" text-decoration="none" x="1000" y="90">UNREGISTERED</text><text fill="#eeeeee" stroke="none" font-family="Arial" font-size="24px" font-style="normal" font-weight="normal" text-decoration="none" x="1000" y="120">UNREGISTERED</text><text fill="#eeeeee" stroke="none" font-family="Arial" font-size="24px" font-style="normal" font-weight="normal" text-decoration="none" x="1000" y="150">UNREGISTERED</text><text fill="#eeeeee" stroke="none" font-family="Arial" font-size="24px" font-style="normal" font-weight="normal" text-decoration="none" x="1000" y="180">UNREGISTERED</text><text fill="#eeeeee" stroke="none" font-family="Arial" font-size="24px" font-style="normal" font-weight="normal" text-decoration="none" x="1000" y="210">UNREGISTERED</text><text fill="#eeeeee" stroke="none" font-family="Arial" font-size="24px" font-style="normal" font-weight="normal" text-decoration="none" x="1000" y="240">UNREGISTERED</text><text fill="#eeeeee" stroke="none" font-family="Arial" font-size="24px" font-style="normal" font-weight="normal" text-decoration="none" x="1000" y="270">UNREGISTERED</text><text fill="#eeeeee" stroke="none" font-family="Arial" font-size="24px" font-style="normal" font-weight="normal" text-decoration="none" x="1000" y="300">UNREGISTERED</text><text fill="#eeeeee" stroke="none" font-family="Arial" font-size="24px" font-style="normal" font-weight="normal" text-decoration="none" x="1000" y="330">UNREGISTERED</text><text fill="#eeeeee" stroke="none" font-family="Arial" font-size="24px" font-style="normal" font-weight="normal" text-decoration="none" x="1000" y="360">UNREGISTERED</text><text fill="#eeeeee" stroke="none" font-family="Arial" font-size="24px" font-style="normal" font-weight="normal" text-decoration="none" x="1000" y="390">UNREGISTERED</text><text fill="#eeeeee" stroke="none" font-family="Arial" font-size="24px" font-style="normal" font-weight="normal" text-decoration="none" x="1000" y="420">UNREGISTERED</text><text fill="#eeeeee" stroke="none" font-family="Arial" font-size="24px" font-style="normal" font-weight="normal" text-decoration="none" x="1000" y="450">UNREGISTERED</text><text fill="#eeeeee" stroke="none" font-family="Arial" font-size="24px" font-style="normal" font-weight="normal" text-decoration="none" x="1000" y="480">UNREGISTERED</text><text fill="#eeeeee" stroke="none" font-family="Arial" font-size="24px" font-style="normal" font-weight="normal" text-decoration="none" x="1000" y="510">UNREGISTERED</text><text fill="#eeeeee" stroke="none" font-family="Arial" font-size="24px" font-style="normal" font-weight="normal" text-decoration="none" x="1000" y="540">UNREGISTERED</text><g transform="translate(-126,-86) scale(1,1)"><path fill="#C0C0C0" stroke="none" d="M 143 128.5 C 143 123.2532944 147.2532944 119 152.5 119 C 157.7467056 119 162 123.2532944 162 128.5 C 162 133.7467056 157.7467056 138 152.5 138 C 147.2532944 138 143 133.7467056 143 128.5 Z" opacity="0.2"/></g><g transform="translate(-126,-86) scale(1,1)"><path fill="#000000" stroke="none" d="M 136 121.5 C 136 116.2532944 140.2532944 112 145.5 112 C 150.7467056 112 155 116.2532944 155 121.5 C 155 126.7467056 150.7467056 131 145.5 131 C 140.2532944 131 136 126.7467056 136 121.5 Z"/></g><g transform="translate(-126,-86) scale(1,1)"><path fill="#C0C0C0" stroke="none" d="M 329 103 L 492 103 Q 502 103 502 113 L 502 140 Q 502 150 492 150 L 329 150 Q 319 150 319 140 L 319 113 Q 319 103 329 103 Z" opacity="0.2"/></g><g transform="translate(-126,-86) scale(1,1)"><path fill="#ffffff" stroke="none" d="M 322 96 L 485 96 Q 495 96 495 106 L 495 133 Q 495 143 485 143 L 322 143 Q 312 143 312 133 L 312 106 Q 312 96 322 96 Z"/></g><g transform="translate(-126,-86) scale(1,1)"><path fill="none" stroke="#000000" d="M 322 96 L 485 96 Q 495 96 495 106 L 495 133 Q 495 143 485 143 L 322 143 Q 312 143 312 133 L 312 106 Q 312 96 322 96 Z" stroke-miterlimit="10"/></g><g transform="translate(-126,-86) scale(1,1)"><path fill="none" stroke="#000000" d="M 312 121 L 495 121" stroke-miterlimit="10"/></g><g transform="translate(-126,-86) scale(1,1)"><g><path fill="none" stroke="none"/><text fill="#000000" stroke="none" font-family="Arial" font-size="13px" font-style="normal" font-weight="bold" text-decoration="none" x="334.148681640625" y="114">Digita usuário e senha</text></g></g><g transform="translate(-126,-86) scale(1,1)"><g><path fill="none" stroke="none"/><text fill="#000000" stroke="none" font-family="Arial" font-size="13px" font-style="normal" font-weight="normal" text-decoration="none" x="317" y="137">do/Login</text></g></g><g transform="translate(-126,-86) scale(1,1)"><path fill="none" stroke="#000000" d="M 156 121 L 311 120" stroke-miterlimit="10"/></g><g transform="translate(-126,-86) scale(1,1)"><path fill="none" stroke="#000000" d="M 300.8646942517338 124.2749944314773 L 311 120 L 300.81037902396963 115.8561341280343" stroke-miterlimit="10"/></g><g transform="translate(-126,-86) scale(1,1)"><g><path fill="none" stroke="none"/><text fill="#000000" stroke="none" font-family="Arial" font-size="13px" font-style="normal" font-weight="normal" text-decoration="none" x="202.107666015625" y="110">Inicia login</text></g></g><g transform="translate(-126,-86) scale(1,1)"><path fill="#C0C0C0" stroke="none" d="M 657 103 L 844.65625 103 Q 854.65625 103 854.65625 113 L 854.65625 148 Q 854.65625 158 844.65625 158 L 657 158 Q 647 158 647 148 L 647 113 Q 647 103 657 103 Z" opacity="0.2"/></g><g transform="translate(-126,-86) scale(1,1)"><path fill="#ffffff" stroke="none" d="M 650 96 L 837.65625 96 Q 847.65625 96 847.65625 106 L 847.65625 141 Q 847.65625 151 837.65625 151 L 650 151 Q 640 151 640 141 L 640 106 Q 640 96 650 96 Z"/></g><g transform="translate(-126,-86) scale(1,1)"><path fill="none" stroke="#000000" d="M 650 96 L 837.65625 96 Q 847.65625 96 847.65625 106 L 847.65625 141 Q 847.65625 151 837.65625 151 L 650 151 Q 640 151 640 141 L 640 106 Q 640 96 650 96 Z" stroke-miterlimit="10"/></g><g transform="translate(-126,-86) scale(1,1)"><path fill="none" stroke="#000000" d="M 640 121 L 847.65625 121" stroke-miterlimit="10"/></g><g transform="translate(-126,-86) scale(1,1)"><g><path fill="none" stroke="none"/><text fill="#000000" stroke="none" font-family="Arial" font-size="13px" font-style="normal" font-weight="bold" text-decoration="none" x="644.5" y="114">Validação dos dados do usuário</text></g></g><g transform="translate(-126,-86) scale(1,1)"><g><path fill="none" stroke="none"/><text fill="#000000" stroke="none" font-family="Arial" font-size="13px" font-style="normal" font-weight="normal" text-decoration="none" x="645" y="137">do/ValidarLogin</text></g></g><g transform="translate(-126,-86) scale(1,1)"><path fill="none" stroke="#000000" d="M 496 120 L 639 122" stroke-miterlimit="10"/></g><g transform="translate(-126,-86) scale(1,1)"><path fill="none" stroke="#000000" d="M 628.7794503329278 126.06698469420664 L 639 122 L 628.8971875667039 117.64877247921478" stroke-miterlimit="10"/></g><g transform="translate(-126,-86) scale(1,1)"><g><path fill="none" stroke="none"/><text fill="#000000" stroke="none" font-family="Arial" font-size="13px" font-style="normal" font-weight="normal" text-decoration="none" x="506.5" y="111">Envia dados de login</text></g></g><g transform="translate(-126,-86) scale(1,1)"><path fill="#C0C0C0" stroke="none" d="M 743 214 C 743 210.1340064 746.1340064 207 750 207 C 753.8659936 207 757 210.1340064 757 214 C 757 217.8659936 753.8659936 221 750 221 C 746.1340064 221 743 217.8659936 743 214 Z" opacity="0.2"/></g><g transform="translate(-126,-86) scale(1,1)"><path fill="#ffffff" stroke="none" d="M 736 207 C 736 203.1340064 739.1340064 200 743 200 C 746.8659936 200 750 203.1340064 750 207 C 750 210.8659936 746.8659936 214 743 214 C 739.1340064 214 736 210.8659936 736 207 Z"/></g><g transform="translate(-126,-86) scale(1,1)"><path fill="none" stroke="#000000" d="M 736 207 C 736 203.1340064 739.1340064 200 743 200 C 746.8659936 200 750 203.1340064 750 207 C 750 210.8659936 746.8659936 214 743 214 C 739.1340064 214 736 210.8659936 736 207 Z" stroke-miterlimit="10"/></g><g transform="translate(-126,-86) scale(1,1)"><path fill="none" stroke="#000000" d="M 743 152 L 743 199" stroke-miterlimit="10"/></g><g transform="translate(-126,-86) scale(1,1)"><path fill="none" stroke="#000000" d="M 738.790482243984 188.83732514237585 L 743 199 L 747.209517756016 188.83732514237585" stroke-miterlimit="10"/></g><g transform="translate(-126,-86) scale(1,1)"><path fill="#C0C0C0" stroke="none" d="M 641 311 L 853 311 Q 863 311 863 321 L 863 348 Q 863 358 853 358 L 641 358 Q 631 358 631 348 L 631 321 Q 631 311 641 311 Z" opacity="0.2"/></g><g transform="translate(-126,-86) scale(1,1)"><path fill="#ffffff" stroke="none" d="M 634 304 L 846 304 Q 856 304 856 314 L 856 341 Q 856 351 846 351 L 634 351 Q 624 351 624 341 L 624 314 Q 624 304 634 304 Z"/></g><g transform="translate(-126,-86) scale(1,1)"><path fill="none" stroke="#000000" d="M 634 304 L 846 304 Q 856 304 856 314 L 856 341 Q 856 351 846 351 L 634 351 Q 624 351 624 341 L 624 314 Q 624 304 634 304 Z" stroke-miterlimit="10"/></g><g transform="translate(-126,-86) scale(1,1)"><path fill="none" stroke="#000000" d="M 624 329 L 856 329" stroke-miterlimit="10"/></g><g transform="translate(-126,-86) scale(1,1)"><g><path fill="none" stroke="none"/><text fill="#000000" stroke="none" font-family="Arial" font-size="13px" font-style="normal" font-weight="bold" text-decoration="none" x="716.53271484375" y="322">Logado</text></g></g><g transform="translate(-126,-86) scale(1,1)"><g><path fill="none" stroke="none"/><text fill="#000000" stroke="none" font-family="Arial" font-size="13px" font-style="normal" font-weight="normal" text-decoration="none" x="629" y="345">do/Login</text></g></g><g transform="translate(-126,-86) scale(1,1)"><path fill="none" stroke="#000000" d="M 743 215 L 741 303" stroke-miterlimit="10"/></g><g transform="translate(-126,-86) scale(1,1)"><path fill="none" stroke="#000000" d="M 737.0224792467553 292.7443026245161 L 741 303 L 745.4393412630723 292.93559494306874" stroke-miterlimit="10"/></g><g transform="translate(-126,-86) scale(1,1)"><g><path fill="none" stroke="none"/><text fill="#000000" stroke="none" font-family="Arial" font-size="13px" font-style="normal" font-weight="normal" text-decoration="none" x="749.5" y="256">se dados válidos</text></g></g><g transform="translate(-126,-86) scale(1,1)"><path fill="#C0C0C0" stroke="none" d="M 337 191 L 476 191 Q 486 191 486 201 L 486 228 Q 486 238 476 238 L 337 238 Q 327 238 327 228 L 327 201 Q 327 191 337 191 Z" opacity="0.2"/></g><g transform="translate(-126,-86) scale(1,1)"><path fill="#ffffff" stroke="none" d="M 330 184 L 469 184 Q 479 184 479 194 L 479 221 Q 479 231 469 231 L 330 231 Q 320 231 320 221 L 320 194 Q 320 184 330 184 Z"/></g><g transform="translate(-126,-86) scale(1,1)"><path fill="none" stroke="#000000" d="M 330 184 L 469 184 Q 479 184 479 194 L 479 221 Q 479 231 469 231 L 330 231 Q 320 231 320 221 L 320 194 Q 320 184 330 184 Z" stroke-miterlimit="10"/></g><g transform="translate(-126,-86) scale(1,1)"><path fill="none" stroke="#000000" d="M 320 209 L 479 209" stroke-miterlimit="10"/></g><g transform="translate(-126,-86) scale(1,1)"><g><path fill="none" stroke="none"/><text fill="#000000" stroke="none" font-family="Arial" font-size="13px" font-style="normal" font-weight="bold" text-decoration="none" x="365.917724609375" y="202">Bloqueado</text></g></g><g transform="translate(-126,-86) scale(1,1)"><g><path fill="none" stroke="none"/><text fill="#000000" stroke="none" font-family="Arial" font-size="13px" font-style="normal" font-weight="normal" text-decoration="none" x="325" y="225">do/Bloquear</text></g></g><g transform="translate(-126,-86) scale(1,1)"><path fill="none" stroke="#000000" d="M 735 207 L 480 207" stroke-miterlimit="10"/></g><g transform="translate(-126,-86) scale(1,1)"><path fill="none" stroke="#000000" d="M 490.16267485762415 202.790482243984 L 480 207 L 490.16267485762415 211.209517756016" stroke-miterlimit="10"/></g><g transform="translate(-126,-86) scale(1,1)"><g><path fill="none" stroke="none"/><text fill="#000000" stroke="none" font-family="Arial" font-size="13px" font-style="normal" font-weight="normal" text-decoration="none" x="513.5" y="227">se errou senha mais de 3 vezes</text></g></g><g transform="translate(-126,-86) scale(1,1)"><path fill="#C0C0C0" stroke="none" d="M 1017 191 L 1180 191 Q 1190 191 1190 201 L 1190 228 Q 1190 238 1180 238 L 1017 238 Q 1007 238 1007 228 L 1007 201 Q 1007 191 1017 191 Z" opacity="0.2"/></g><g transform="translate(-126,-86) scale(1,1)"><path fill="#ffffff" stroke="none" d="M 1010 184 L 1173 184 Q 1183 184 1183 194 L 1183 221 Q 1183 231 1173 231 L 1010 231 Q 1000 231 1000 221 L 1000 194 Q 1000 184 1010 184 Z"/></g><g transform="translate(-126,-86) scale(1,1)"><path fill="none" stroke="#000000" d="M 1010 184 L 1173 184 Q 1183 184 1183 194 L 1183 221 Q 1183 231 1173 231 L 1010 231 Q 1000 231 1000 221 L 1000 194 Q 1000 184 1010 184 Z" stroke-miterlimit="10"/></g><g transform="translate(-126,-86) scale(1,1)"><path fill="none" stroke="#000000" d="M 1000 209 L 1183 209" stroke-miterlimit="10"/></g><g transform="translate(-126,-86) scale(1,1)"><g><path fill="none" stroke="none"/><text fill="#000000" stroke="none" font-family="Arial" font-size="13px" font-style="normal" font-weight="bold" text-decoration="none" x="1045.266845703125" y="202">Atualiza Senha</text></g></g><g transform="translate(-126,-86) scale(1,1)"><g><path fill="none" stroke="none"/><text fill="#000000" stroke="none" font-family="Arial" font-size="13px" font-style="normal" font-weight="normal" text-decoration="none" x="1005" y="225">do/EsqueciSenha</text></g></g><g transform="translate(-126,-86) scale(1,1)"><path fill="none" stroke="#000000" d="M 751 207 L 999 207" stroke-miterlimit="10"/></g><g transform="translate(-126,-86) scale(1,1)"><path fill="none" stroke="#000000" d="M 988.8373251423759 211.209517756016 L 999 207 L 988.8373251423758 202.790482243984" stroke-miterlimit="10"/></g><g transform="translate(-126,-86) scale(1,1)"><g><path fill="none" stroke="none"/><text fill="#000000" stroke="none" font-family="Arial" font-size="13px" font-style="normal" font-weight="normal" text-decoration="none" x="818.5" y="197">se esqueceu senha</text></g></g><g transform="translate(-126,-86) scale(1,1)"><path fill="#C0C0C0" stroke="none" d="M 481 519 L 717 519 Q 727 519 727 529 L 727 556 Q 727 566 717 566 L 481 566 Q 471 566 471 556 L 471 529 Q 471 519 481 519 Z" opacity="0.2"/></g><g transform="translate(-126,-86) scale(1,1)"><path fill="#ffffff" stroke="none" d="M 474 512 L 710 512 Q 720 512 720 522 L 720 549 Q 720 559 710 559 L 474 559 Q 464 559 464 549 L 464 522 Q 464 512 474 512 Z"/></g><g transform="translate(-126,-86) scale(1,1)"><path fill="none" stroke="#000000" d="M 474 512 L 710 512 Q 720 512 720 522 L 720 549 Q 720 559 710 559 L 474 559 Q 464 559 464 549 L 464 522 Q 464 512 474 512 Z" stroke-miterlimit="10"/></g><g transform="translate(-126,-86) scale(1,1)"><path fill="none" stroke="#000000" d="M 464 537 L 720 537" stroke-miterlimit="10"/></g><g transform="translate(-126,-86) scale(1,1)"><g><path fill="none" stroke="none"/><text fill="#000000" stroke="none" font-family="Arial" font-size="13px" font-style="normal" font-weight="bold" text-decoration="none" x="551.552734375" y="530">Alterar Login</text></g></g><g transform="translate(-126,-86) scale(1,1)"><g><path fill="none" stroke="none"/><text fill="#000000" stroke="none" font-family="Arial" font-size="13px" font-style="normal" font-weight="normal" text-decoration="none" x="469" y="553">do/AlterarLogin</text></g></g><g transform="translate(-126,-86) scale(1,1)"><path fill="#C0C0C0" stroke="none" d="M 617 423 L 884 423 Q 894 423 894 433 L 894 460 Q 894 470 884 470 L 617 470 Q 607 470 607 460 L 607 433 Q 607 423 617 423 Z" opacity="0.2"/></g><g transform="translate(-126,-86) scale(1,1)"><path fill="#ffffff" stroke="none" d="M 610 416 L 877 416 Q 887 416 887 426 L 887 453 Q 887 463 877 463 L 610 463 Q 600 463 600 453 L 600 426 Q 600 416 610 416 Z"/></g><g transform="translate(-126,-86) scale(1,1)"><path fill="none" stroke="#000000" d="M 610 416 L 877 416 Q 887 416 887 426 L 887 453 Q 887 463 877 463 L 610 463 Q 600 463 600 453 L 600 426 Q 600 416 610 416 Z" stroke-miterlimit="10"/></g><g transform="translate(-126,-86) scale(1,1)"><path fill="none" stroke="#000000" d="M 600 441 L 887 441" stroke-miterlimit="10"/></g><g transform="translate(-126,-86) scale(1,1)"><g><path fill="none" stroke="none"/><text fill="#000000" stroke="none" font-family="Arial" font-size="13px" font-style="normal" font-weight="bold" text-decoration="none" x="673.06640625" y="434">Alterar dados da conta</text></g></g><g transform="translate(-126,-86) scale(1,1)"><g><path fill="none" stroke="none"/><text fill="#000000" stroke="none" font-family="Arial" font-size="13px" font-style="normal" font-weight="normal" text-decoration="none" x="605" y="457">entry/AlterarPerfil</text></g></g><g transform="translate(-126,-86) scale(1,1)"><path fill="none" stroke="#000000" d="M 741 352 L 742 415" stroke-miterlimit="10"/></g><g transform="translate(-126,-86) scale(1,1)"><path fill="none" stroke="#000000" d="M 737.6297204617009 404.9054144831438 L 742 415 L 746.0476955750245 404.7717958305513" stroke-miterlimit="10"/></g><g transform="translate(-126,-86) scale(1,1)"><g><path fill="none" stroke="none"/><text fill="#000000" stroke="none" font-family="Arial" font-size="13px" font-style="normal" font-weight="normal" text-decoration="none" x="654.5" y="386"> [Alterar perfil]</text></g></g><g transform="translate(-126,-86) scale(1,1)"><path fill="#C0C0C0" stroke="none" d="M 793 519 L 1012 519 Q 1022 519 1022 529 L 1022 556 Q 1022 566 1012 566 L 793 566 Q 783 566 783 556 L 783 529 Q 783 519 793 519 Z" opacity="0.2"/></g><g transform="translate(-126,-86) scale(1,1)"><path fill="#ffffff" stroke="none" d="M 786 512 L 1005 512 Q 1015 512 1015 522 L 1015 549 Q 1015 559 1005 559 L 786 559 Q 776 559 776 549 L 776 522 Q 776 512 786 512 Z"/></g><g transform="translate(-126,-86) scale(1,1)"><path fill="none" stroke="#000000" d="M 786 512 L 1005 512 Q 1015 512 1015 522 L 1015 549 Q 1015 559 1005 559 L 786 559 Q 776 559 776 549 L 776 522 Q 776 512 786 512 Z" stroke-miterlimit="10"/></g><g transform="translate(-126,-86) scale(1,1)"><path fill="none" stroke="#000000" d="M 776 537 L 1015 537" stroke-miterlimit="10"/></g><g transform="translate(-126,-86) scale(1,1)"><g><path fill="none" stroke="none"/><text fill="#000000" stroke="none" font-family="Arial" font-size="13px" font-style="normal" font-weight="bold" text-decoration="none" x="855.043212890625" y="530">Apagar Perfil</text></g></g><g transform="translate(-126,-86) scale(1,1)"><g><path fill="none" stroke="none"/><text fill="#000000" stroke="none" font-family="Arial" font-size="13px" font-style="normal" font-weight="normal" text-decoration="none" x="781" y="553">do/EncerrarConta</text></g></g><g transform="translate(-126,-86) scale(1,1)"><path fill="none" stroke="#000000" d="M 704 464 L 630 511" stroke-miterlimit="10"/></g><g transform="translate(-126,-86) scale(1,1)"><path fill="none" stroke="#000000" d="M 636.3217486297468 501.9980283125143 L 630 511 L 640.8355065493212 509.10479610078033" stroke-miterlimit="10"/></g><g transform="translate(-126,-86) scale(1,1)"><g><path fill="none" stroke="none"/><text fill="#000000" stroke="none" font-family="Arial" font-size="13px" font-style="normal" font-weight="normal" text-decoration="none" x="680.5" y="490"> [Alterar Login]</text></g></g><g transform="translate(-126,-86) scale(1,1)"><path fill="none" stroke="#000000" d="M 783 464 L 857 511" stroke-miterlimit="10"/></g><g transform="translate(-126,-86) scale(1,1)"><path fill="none" stroke="#000000" d="M 846.1644934506788 509.10479610078033 L 857 511 L 850.6782513702532 501.9980283125143" stroke-miterlimit="10"/></g><g transform="translate(-126,-86) scale(1,1)"><g><path fill="none" stroke="none"/><text fill="#000000" stroke="none" font-family="Arial" font-size="13px" font-style="normal" font-weight="normal" text-decoration="none" x="831.5" y="491"> [Apagar Perfil]</text></g></g><g transform="translate(-126,-86) scale(1,1)"><path fill="#C0C0C0" stroke="none" d="M 1047 339.5 C 1047 332.59644 1052.59644 327 1059.5 327 C 1066.40356 327 1072 332.59644 1072 339.5 C 1072 346.40356 1066.40356 352 1059.5 352 C 1052.59644 352 1047 346.40356 1047 339.5 Z" opacity="0.2"/></g><g transform="translate(-126,-86) scale(1,1)"><path fill="none" stroke="#000000" d="M 1040 332.5 C 1040 325.59644 1045.59644 320 1052.5 320 C 1059.40356 320 1065 325.59644 1065 332.5 C 1065 339.40356 1059.40356 345 1052.5 345 C 1045.59644 345 1040 339.40356 1040 332.5 Z" stroke-miterlimit="10"/></g><g transform="translate(-126,-86) scale(1,1)"><path fill="#000000" stroke="none" d="M 1045 332.5 C 1045 328.357864 1048.357864 325 1052.5 325 C 1056.642136 325 1060 328.357864 1060 332.5 C 1060 336.642136 1056.642136 340 1052.5 340 C 1048.357864 340 1045 336.642136 1045 332.5 Z"/></g><g transform="translate(-126,-86) scale(1,1)"><path fill="none" stroke="#000000" d="M 857 329 L 1039 332" stroke-miterlimit="10"/></g><g transform="translate(-126,-86) scale(1,1)"><path fill="none" stroke="#000000" d="M 1028.769327261859 336.0414521307392 L 1039 332 L 1028.9080837232736 327.62356013824655" stroke-miterlimit="10"/></g><g transform="translate(-126,-86) scale(1,1)"><g><path fill="none" stroke="none"/><text fill="#000000" stroke="none" font-family="Arial" font-size="13px" font-style="normal" font-weight="normal" text-decoration="none" x="937.5" y="320">Fim</text></g></g><g transform="translate(-126,-86) scale(1,1)"><path fill="none" stroke="#000000" d="M 914 511 L 1041 346" stroke-miterlimit="10"/></g><g transform="translate(-126,-86) scale(1,1)"><path fill="none" stroke="#000000" d="M 1038.1371623315838 356.62093030220507 L 1041 346 L 1031.4655362320277 351.48579991042556" stroke-miterlimit="10"/></g><g transform="translate(-126,-86) scale(1,1)"><g><path fill="none" stroke="none"/><text fill="#000000" stroke="none" font-family="Arial" font-size="13px" font-style="normal" font-weight="normal" text-decoration="none" x="906.5" y="410">ConfirmaCancelamento</text></g></g><g transform="translate(-126,-86) scale(1,1)"><path fill="none" stroke="#000000" d="M 592 560 L 592 632 L 1056 632 L 1052 346" stroke-miterlimit="10"/></g><g transform="translate(-126,-86) scale(1,1)"><path fill="none" stroke="#000000" d="M 1056.3512275207852 356.10281243329604 L 1052 346 L 1047.9330153057933 356.2205496670722" stroke-miterlimit="10"/></g><g transform="translate(-126,-86) scale(1,1)"><g><path fill="none" stroke="none"/><text fill="#000000" stroke="none" font-family="Arial" font-size="13px" font-style="normal" font-weight="normal" text-decoration="none" x="782.5" y="622">Login Alterado</text></g></g></g></svg>